<svg xmlns="http://www.w3.org/2000/svg" xmlns:xlink="http://www.w3.org/1999/xlink" fill="none" version="1.1" width="128" height="128" viewBox="0 0 128 128"><defs><clipPath id="master_svg0_43_160"><rect x="0" y="0" width="128" height="128" rx="0"/></clipPath></defs><g><g clip-path="url(#master_svg0_43_160)"><rect x="0" y="0" width="128" height="128" rx="0" fill="#FF6A00" fill-opacity="1"/><g><path d="M128,64Q128,65.5711,127.923,67.1403Q127.846,68.7095,127.692,70.2731Q127.538,71.8366,127.307,73.3907Q127.077,74.9449,126.77,76.4858Q126.464,78.0267,126.082,79.5507Q125.7,81.0748,125.244,82.5782Q124.788,84.0817,124.259,85.561Q123.73,87.0402,123.128,88.4917Q122.527,89.9433,121.855,91.3635Q121.184,92.7838,120.443,94.1694Q119.702,95.555,118.895,96.9026Q118.087,98.2502,117.214,99.5565Q116.341,100.863,115.405,102.125Q114.469,103.387,113.473,104.601Q112.476,105.816,111.421,106.98Q110.366,108.144,109.255,109.255Q108.144,110.366,106.98,111.421Q105.816,112.476,104.601,113.473Q103.387,114.469,102.125,115.405Q100.863,116.341,99.5565,117.214Q98.2502,118.087,96.9026,118.895Q95.555,119.702,94.1694,120.443Q92.7838,121.184,91.3635,121.855Q89.9433,122.527,88.4917,123.128Q87.0402,123.73,85.561,124.259Q84.0817,124.788,82.5782,125.244Q81.0748,125.7,79.5507,126.082Q78.0267,126.464,76.4858,126.77Q74.9449,127.077,73.3907,127.307Q71.8366,127.538,70.2731,127.692Q68.7095,127.846,67.1403,127.923Q65.5711,128,64,128Q62.4289,128,60.8597,127.923Q59.2904,127.846,57.7269,127.692Q56.1634,127.538,54.6092,127.307Q53.0551,127.077,51.5142,126.77Q49.9733,126.464,48.4493,126.082Q46.9252,125.7,45.4218,125.244Q43.9183,124.788,42.439,124.259Q40.9598,123.73,39.5083,123.128Q38.0567,122.527,36.6365,121.855Q35.2162,121.184,33.8306,120.443Q32.445,119.702,31.0974,118.895Q29.7498,118.087,28.4435,117.214Q27.1372,116.341,25.8752,115.405Q24.6133,114.469,23.3988,113.473Q22.1843,112.476,21.0202,111.421Q19.8561,110.366,18.7452,109.255Q17.6342,108.144,16.5791,106.98Q15.524,105.816,14.5273,104.601Q13.5306,103.387,12.5947,102.125Q11.6588,100.863,10.7859,99.5565Q9.91308,98.2502,9.10537,96.9026Q8.29766,95.555,7.55704,94.1694Q6.81642,92.7838,6.14468,91.3635Q5.47295,89.9433,4.87171,88.4917Q4.27047,87.0402,3.74118,85.561Q3.21189,84.0817,2.75582,82.5782Q2.29975,81.0748,1.918,79.5507Q1.53625,78.0267,1.22974,76.4858Q0.923233,74.9449,0.692703,73.3907Q0.462173,71.8366,0.308177,70.2731Q0.154182,68.7095,0.0770908,67.1403Q0,65.5711,0,64Q0,62.4289,0.0770908,60.8597Q0.154182,59.2904,0.308177,57.7269Q0.462173,56.1634,0.692703,54.6092Q0.923233,53.0551,1.22974,51.5142Q1.53625,49.9733,1.918,48.4493Q2.29975,46.9252,2.75582,45.4218Q3.21189,43.9183,3.74118,42.439Q4.27047,40.9598,4.87171,39.5083Q5.47295,38.0567,6.14468,36.6365Q6.81642,35.2162,7.55704,33.8306Q8.29766,32.445,9.10537,31.0974Q9.91308,29.7498,10.7859,28.4435Q11.6588,27.1372,12.5947,25.8752Q13.5306,24.6133,14.5273,23.3988Q15.524,22.1843,16.5791,21.0202Q17.6342,19.8561,18.7452,18.7452Q19.8561,17.6342,21.0202,16.5791Q22.1843,15.524,23.3988,14.5273Q24.6133,13.5306,25.8752,12.5947Q27.1372,11.6588,28.4435,10.7859Q29.7498,9.91308,31.0974,9.10537Q32.445,8.29766,33.8306,7.55704Q35.2162,6.81642,36.6365,6.14468Q38.0567,5.47295,39.5083,4.87171Q40.9598,4.27047,42.439,3.74118Q43.9183,3.21189,45.4218,2.75582Q46.9252,2.29975,48.4493,1.918Q49.9733,1.53625,51.5142,1.22974Q53.0551,0.923233,54.6092,0.692703Q56.1634,0.462173,57.7269,0.308177Q59.2904,0.154182,60.8597,0.0770908Q62.4289,0,64,0Q65.5711,0,67.1403,0.0770908Q68.7095,0.154182,70.2731,0.308177Q71.8366,0.462173,73.3907,0.692703Q74.9449,0.923233,76.4858,1.22974Q78.0267,1.53625,79.5507,1.918Q81.0748,2.29975,82.5782,2.75582Q84.0817,3.21189,85.561,3.74118Q87.0402,4.27047,88.4917,4.87171Q89.9433,5.47295,91.3635,6.14468Q92.7838,6.81642,94.1694,7.55704Q95.555,8.29766,96.9026,9.10537Q98.2502,9.91308,99.5565,10.7859Q100.863,11.6588,102.125,12.5947Q103.387,13.5306,104.601,14.5273Q105.816,15.524,106.98,16.5791Q108.144,17.6342,109.255,18.7452Q110.366,19.8561,111.421,21.0202Q112.476,22.1843,113.473,23.3988Q114.469,24.6133,115.405,25.8752Q116.341,27.1372,117.214,28.4435Q118.087,29.7498,118.895,31.0974Q119.702,32.445,120.443,33.8306Q121.184,35.2162,121.855,36.6365Q122.527,38.0567,123.128,39.5083Q123.73,40.9598,124.259,42.439Q124.788,43.9183,125.244,45.4218Q125.7,46.9252,126.082,48.4493Q126.464,49.9733,126.77,51.5142Q127.077,53.0551,127.307,54.6092Q127.538,56.1634,127.692,57.7269Q127.846,59.2904,127.923,60.8597Q128,62.4289,128,64Z" fill="#FF6A00" fill-opacity="1"/></g><g><path d="M92.34217151489258,89.17905375366212L70.18827151489258,89.17905375366212L72.20927151489258,81.05595375366211L91.16307151489258,76.95015375366211C92.88957151489258,76.53885375366211,94.13297151489257,75.0310537536621,94.20797151489258,73.25785375366212L94.20797151489258,52.86155375366211C94.18447151489258,51.06645375366211,92.91957151489258,49.52755375366211,91.16307151489258,49.15695375366211L72.20927151489258,45.05108375366211L70.18827151489258,36.92800140366211L92.34217151489258,36.92800140366211C100.05977151489257,36.93821715366211,106.33667151489257,43.14818375366211,106.42957151489257,50.86525375366211L106.42957151489257,75.17295375366211C106.40787151489258,82.91935375366211,100.12057151489257,89.18675375366212,92.37417151489258,89.18405375366211L92.34217151489258,89.17905375366212ZM36.18957151489258,88.98705375366211C28.461791514892578,88.93605375366211,22.209781614892577,82.68405375366211,22.158771514892578,74.95635375366211L22.158771514892578,50.76435375366211C22.207544314892576,43.06576375366211,28.49104151489258,36.86605075366211,36.18957151489258,36.920612335662106L58.17847151489258,36.920612335662106L56.18217151489258,45.04369375366211L37.25787151489258,49.14215375366211C35.52317151489258,49.55095375366211,34.273871514892576,51.06605375366211,34.20307151489258,52.846753753662114L34.20307151489258,73.24305375366211C34.22327151489258,75.0442537536621,35.49417151489258,76.5886537536621,37.25787151489258,76.9550537536621L56.19197151489258,80.9107537536621L58.17847151489258,88.98955375366211L36.18957151489258,88.98705375366211ZM56.18217151489258,63.96795375366211L56.18217151489258,61.98155375366211L72.33727151489258,61.98155375366211L72.33727151489258,63.96795375366211L56.18217151489258,63.96795375366211Z" fill="#FFFFFF" fill-opacity="1"/></g></g></g></svg>