<?xml version="1.0" encoding="UTF-8"?>
<svg width="50px" height="50px" viewBox="0 0 50 50" version="1.1" xmlns="http://www.w3.org/2000/svg" xmlns:xlink="http://www.w3.org/1999/xlink">
    <title>书签</title>
    <g id="书签" stroke="none" stroke-width="1" fill="none" fill-rule="evenodd">
        <rect fill="#FA636E" x="0" y="0" width="50" height="50"></rect>
        <g id="MBE风格多色图标-书签" transform="translate(7.000000, 9.000000)" fill-rule="nonzero">
            <path d="M11.263164,12.074106 C11.147004,11.957946 11.2167,11.748858 11.379324,11.702394 L12.889404,11.493306 L12.889404,10.122618 C12.889404,8.961018 13.818684,8.008506 14.980284,8.008506 L23.4135,8.008506 L23.4135,7.47417 C23.4135,6.31257 22.460988,5.360058 21.299388,5.360058 L10.75206,5.360058 C9.59046,5.360058 8.66118,6.31257 8.66118,7.47417 L8.66118,24.31737 L12.866172,22.505274 L12.866172,13.607418 L11.263164,12.074106 Z" id="路径" fill-opacity="0.477136145" fill="#FFFFFF"></path>
            <path d="M20.74182,11.748858 L20.416572,11.098362 C20.346876,10.935738 20.114556,10.935738 20.04486,11.098362 L19.81254,11.586234 L20.695356,11.702394 L20.74182,11.748858 Z M20.85798,11.981178 C20.85798,12.027642 20.834748,12.050874 20.788284,12.074106 L18.558012,14.257914 L19.092348,17.324538 C19.11558,17.487162 18.929724,17.626554 18.790332,17.556858 L17.698428,16.976058 L17.187324,19.972986 C17.164092,20.13561 17.349948,20.275002 17.48934,20.205306 L20.253948,18.764922 L23.018556,20.205306 C23.18118,20.298234 23.367036,20.158842 23.320572,19.972986 L22.786236,16.906362 L23.4135,16.30233 L23.4135,14.141754 L21.833724,13.909434 L20.85798,11.981178 L20.85798,11.981178 Z" id="形状" fill-opacity="0.477136145" fill="#FFFFFF"></path>
            <path d="M20.74182,11.748858 L20.8799785,11.981178 C20.9076102,11.88825 20.8523468,11.795322 20.74182,11.748858 Z" id="路径" fill="#FFBA00"></path>
            <path d="M25.50438,8.031738 L14.980284,8.031738 C13.818684,8.031738 12.889404,8.98425 12.889404,10.14585 L12.889404,27.012282 L20.253948,23.85273 L27.618492,27.012282 L27.618492,10.122618 C27.618492,8.961018 26.66598,8.031738 25.50438,8.031738 Z M25.016508,14.699322 L23.390268,16.279098 L22.763004,16.88313 L23.29734,19.949754 C23.320572,20.112378 23.134716,20.25177 22.995324,20.182074 L20.230716,18.74169 L17.466108,20.182074 C17.303484,20.275002 17.117628,20.13561 17.164092,19.949754 L17.675196,16.952826 L17.698428,16.859898 L15.468156,14.67609 C15.351996,14.55993 15.421692,14.350842 15.584316,14.304378 L18.674172,13.86297 L19.81254,11.563002 L20.04486,11.07513 C20.114556,10.912506 20.346876,10.912506 20.416572,11.07513 L20.74182,11.725626 C20.834748,11.77209 20.881212,11.865018 20.85798,11.957946 L21.810492,13.886202 L23.390268,14.118522 L24.877116,14.32761 C25.062972,14.374074 25.132668,14.583162 25.016508,14.699322 L25.016508,14.699322 Z" id="形状" fill="#FFFFFF"></path>
            <path d="M5.780412,24.340602 L4.432956,24.340602 L4.432956,22.993146 C4.432956,22.69113 4.200636,22.45881 3.89862,22.45881 C3.596604,22.45881 3.364284,22.69113 3.364284,22.993146 L3.364284,24.340602 L2.04006,24.340602 C1.738044,24.340602 1.505724,24.572922 1.505724,24.874938 C1.505724,25.176954 1.738044,25.409274 2.04006,25.409274 L3.387516,25.409274 L3.387516,26.75673 C3.387516,27.058746 3.619836,27.291066 3.921852,27.291066 C4.223868,27.291066 4.456188,27.058746 4.456188,26.75673 L4.456188,25.409274 L5.803644,25.409274 C6.10566,25.409274 6.33798,25.176954 6.33798,24.874938 C6.314748,24.572922 6.082428,24.340602 5.780412,24.340602 Z" id="路径" fill="#FFFFFF"></path>
            <path d="M10.17126,3.17625 C9.24198,3.17625 8.77734,2.432826 8.42886,1.875258 C8.08038,1.31769 7.917756,1.08537 7.592508,1.08537 C7.290492,1.08537 7.104636,1.31769 6.756156,1.875258 C6.430908,2.432826 5.966268,3.17625 5.013756,3.17625 C4.084476,3.17625 3.619836,2.432826 3.271356,1.875258 C2.922876,1.31769 2.760252,1.08537 2.435004,1.08537 C2.132988,1.08537 1.900668,0.85305 1.900668,0.551034 C1.900668,0.249018 2.132988,0.016698 2.435004,0.016698 C3.364284,0.016698 3.828924,0.760122 4.177404,1.31769 C4.525884,1.875258 4.688508,2.107578 5.013756,2.107578 C5.315772,2.107578 5.501628,1.875258 5.850108,1.31769 C6.175356,0.760122 6.639996,0.016698 7.592508,0.016698 C8.521788,0.016698 8.986428,0.760122 9.334908,1.31769 C9.683388,1.875258 9.846012,2.107578 10.17126,2.107578 C10.496508,2.107578 10.659132,1.852026 11.007612,1.31769 C11.33286,0.760122 11.7975,0.016698 12.750012,0.016698 C13.052028,0.016698 13.284348,0.249018 13.284348,0.551034 C13.284348,0.85305 13.052028,1.08537 12.750012,1.08537 C12.424764,1.08537 12.26214,1.31769 11.91366,1.875258 C11.56518,2.432826 11.10054,3.17625 10.17126,3.17625 Z M7.60342704,30.0582295 L9.70615536,27.9557335 L11.8088837,30.0582295 L9.70638768,32.1607255 L7.60342704,30.0582295 Z M33.589116,19.345722 L35.168892,17.765946 L32.00934,17.765946 L33.589116,19.345722 Z" id="形状" fill="#FFFFFF"></path>
            <path d="M0.042108,17.58009 C0.042108,18.4012535 0.707792524,19.066938 1.528956,19.066938 C2.35011948,19.066938 3.015804,18.4012535 3.015804,17.58009 C3.015804,16.7589265 2.35011948,16.093242 1.528956,16.093242 C0.707792524,16.093242 0.042108,16.7589265 0.042108,17.58009 Z" id="路径" fill="#FFFFFF"></path>
            <path d="M33.333564,6.149946 L31.08006,3.896442 C30.917436,3.733818 30.661884,3.733818 30.49926,3.896442 L28.245756,6.149946 C28.083132,6.31257 28.083132,6.568122 28.245756,6.730746 L30.49926,8.98425 C30.661884,9.146874 30.917436,9.146874 31.08006,8.98425 L33.333564,6.730746 C33.496188,6.568122 33.496188,6.31257 33.333564,6.149946 Z M30.778044,8.124666 L29.10534,6.451962 L30.778044,4.779258 L32.450748,6.451962 L30.778044,8.124666 Z" id="形状" fill="#FFFFFF"></path>
        </g>
    </g>
</svg>