<svg xmlns="http://www.w3.org/2000/svg" xmlns:xlink="http://www.w3.org/1999/xlink" fill="none" version="1.1" width="32" height="32" viewBox="0 0 32 32"><defs><linearGradient x1="0" y1="0.00128936767578125" x2="1.0219955444335938" y2="1.0386810302734375" id="master_svg0_110_3049"><stop offset="0.128936767578125%" stop-color="#FF6866" stop-opacity="1"/><stop offset="100%" stop-color="#FF5E4E" stop-opacity="1"/></linearGradient></defs><g><g><rect x="0" y="0" width="32" height="32" rx="0" fill="url(#master_svg0_110_3049)" fill-opacity="1"/></g><g><g><g><path d="M26,16Q26,16.2455,25.988,16.4907Q25.9759,16.7359,25.9518,16.9802Q25.9278,17.2245,25.8918,17.4673Q25.8557,17.7101,25.8078,17.9509Q25.76,18.1917,25.7003,18.4298Q25.6407,18.6679,25.5694,18.9028Q25.4981,19.1378,25.4154,19.3689Q25.3327,19.6,25.2388,19.8268Q25.1448,20.0536,25.0399,20.2755Q24.9349,20.497500000000002,24.8192,20.714Q24.7035,20.930500000000002,24.5773,21.141Q24.4511,21.351599999999998,24.3147,21.5557Q24.1783,21.7598,24.0321,21.957Q23.8858,22.1542,23.7301,22.3439Q23.5744,22.5337,23.4095,22.7156Q23.2446,22.8975,23.0711,23.0711Q22.8975,23.2446,22.7156,23.4095Q22.5337,23.5744,22.3439,23.7301Q22.1542,23.8858,21.957,24.0321Q21.7598,24.1783,21.5557,24.3147Q21.351599999999998,24.4511,21.141,24.5773Q20.930500000000002,24.7035,20.714,24.8192Q20.497500000000002,24.9349,20.2755,25.0399Q20.0536,25.1448,19.8268,25.2388Q19.6,25.3327,19.3689,25.4154Q19.1378,25.4981,18.9028,25.5694Q18.6679,25.6407,18.4298,25.7003Q18.1917,25.76,17.9509,25.8078Q17.7101,25.8557,17.4673,25.8918Q17.2245,25.9278,16.9802,25.9518Q16.7359,25.9759,16.4907,25.988Q16.2455,26,16,26Q15.75451,26,15.50932,25.988Q15.26413,25.9759,15.01983,25.9518Q14.77552,25.9278,14.53269,25.8918Q14.28987,25.8557,14.0491,25.8078Q13.80833,25.76,13.5702,25.7003Q13.33207,25.6407,13.09715,25.5694Q12.86224,25.4981,12.6311,25.4154Q12.39996,25.3327,12.17316,25.2388Q11.94636,25.1448,11.724450000000001,25.0399Q11.50253,24.9349,11.28603,24.8192Q11.06953,24.7035,10.85897,24.5773Q10.64841,24.4511,10.4443,24.3147Q10.240179999999999,24.1783,10.043009999999999,24.0321Q9.84583,23.8858,9.65607,23.7301Q9.4663,23.5744,9.28441,23.4095Q9.10252,23.2446,8.92893,23.0711Q8.75535,22.8975,8.590489999999999,22.7156Q8.42563,22.5337,8.2699,22.3439Q8.11416,22.1542,7.9679199999999994,21.957Q7.82169,21.7598,7.6853,21.5557Q7.54892,21.351599999999998,7.42271,21.141Q7.29651,20.930500000000002,7.18079,20.714Q7.06507,20.497500000000002,6.960107,20.2755Q6.855148,20.0536,6.761204,19.8268Q6.667261,19.6,6.5845590000000005,19.3689Q6.501857,19.1378,6.4305959999999995,18.9028Q6.359335,18.6679,6.299687,18.4298Q6.240039,18.1917,6.192147,17.9509Q6.144255,17.7101,6.108234,17.4673Q6.0722142,17.2245,6.0481523,16.9802Q6.0240905,16.7359,6.012045,16.4907Q5.999999577081,16.2455,5.999999577081,16Q5.999999577081,15.75451,6.012045,15.50932Q6.0240905,15.26413,6.0481523,15.01983Q6.0722142,14.77552,6.108234,14.53269Q6.144255,14.28987,6.192147,14.0491Q6.240039,13.80833,6.299687,13.5702Q6.359335,13.33207,6.4305959999999995,13.09715Q6.501857,12.86224,6.5845590000000005,12.6311Q6.667261,12.39996,6.761204,12.17316Q6.855148,11.94636,6.960107,11.724450000000001Q7.06507,11.50253,7.18079,11.28603Q7.29651,11.06953,7.42271,10.85897Q7.54892,10.64841,7.6853,10.4443Q7.82169,10.240179999999999,7.9679199999999994,10.043009999999999Q8.11416,9.84583,8.2699,9.65607Q8.42563,9.4663,8.590489999999999,9.28441Q8.75535,9.10252,8.92893,8.92893Q9.10252,8.75535,9.28441,8.590489999999999Q9.4663,8.42563,9.65607,8.2699Q9.84583,8.11416,10.043009999999999,7.9679199999999994Q10.240179999999999,7.82169,10.4443,7.6853Q10.64841,7.54892,10.85897,7.42271Q11.06953,7.29651,11.28603,7.18079Q11.50253,7.06507,11.724450000000001,6.960107Q11.94636,6.855148,12.17316,6.761205Q12.39996,6.667261,12.6311,6.5845590000000005Q12.86224,6.501857,13.09715,6.430597Q13.33207,6.359336,13.5702,6.299687Q13.80833,6.240039,14.0491,6.192147Q14.28987,6.144255,14.53269,6.108235Q14.77552,6.0722146,15.01983,6.0481527Q15.26413,6.0240909,15.50932,6.0120454Q15.75451,6,16,6Q16.2455,6,16.4907,6.0120454Q16.7359,6.0240909,16.9802,6.0481527Q17.2245,6.0722146,17.4673,6.108235Q17.7101,6.144255,17.9509,6.192147Q18.1917,6.240039,18.4298,6.299687Q18.6679,6.359336,18.9028,6.430597Q19.1378,6.501857,19.3689,6.5845590000000005Q19.6,6.667261,19.8268,6.761205Q20.0536,6.855148,20.2755,6.960107Q20.497500000000002,7.06507,20.714,7.18079Q20.930500000000002,7.29651,21.141,7.42271Q21.351599999999998,7.54892,21.5557,7.6853Q21.7598,7.82169,21.957,7.9679199999999994Q22.1542,8.11416,22.3439,8.2699Q22.5337,8.42563,22.7156,8.590489999999999Q22.8975,8.75535,23.0711,8.92893Q23.2446,9.10252,23.4095,9.28441Q23.5744,9.4663,23.7301,9.65607Q23.8858,9.84583,24.0321,10.043009999999999Q24.1783,10.240179999999999,24.3147,10.4443Q24.4511,10.64841,24.5773,10.85897Q24.7035,11.06953,24.8192,11.28603Q24.9349,11.50253,25.0399,11.724450000000001Q25.1448,11.94636,25.2388,12.17316Q25.3327,12.39996,25.4154,12.6311Q25.4981,12.86224,25.5694,13.09715Q25.6407,13.33207,25.7003,13.5702Q25.76,13.80833,25.8078,14.0491Q25.8557,14.28987,25.8918,14.53269Q25.9278,14.77552,25.9518,15.01983Q25.9759,15.26413,25.988,15.50932Q26,15.75451,26,16Z" fill="#FFF3F3" fill-opacity="1" style="mix-blend-mode:passthrough"/></g><g><path d="M24.5184453125,15.9999653125Q24.5184453125,16.2090853125,24.5082453125,16.417945312500002Q24.4979453125,16.6268153125,24.4774453125,16.834925312499998Q24.4569453125,17.043035312500002,24.4262453125,17.2498953125Q24.3956453125,17.4567453125,24.3548453125,17.6618453125Q24.3140453125,17.8669453125,24.2631453125,18.0697453125Q24.2123453125,18.2726453125,24.1516453125,18.472745312500003Q24.0909453125,18.6728453125,24.0205453125,18.8697453125Q23.9500453125,19.0666453125,23.8700453125,19.259845312499998Q23.7900453125,19.453045312500002,23.7006453125,19.6421453125Q23.6112453125,19.8311453125,23.5126453125,20.015545312500002Q23.4140453125,20.1999453125,23.3065453125,20.3793453125Q23.199045312499997,20.5587453125,23.082845312499998,20.7326453125Q22.9666453125,20.9064453125,22.8421453125,21.0744453125Q22.7175453125,21.2424453125,22.5848453125,21.4040453125Q22.4522453125,21.5657453125,22.3117453125,21.7206453125Q22.1713453125,21.875645312499998,22.0234453125,22.0234453125Q21.8755453125,22.1713453125,21.7206453125,22.3117453125Q21.5657453125,22.4522453125,21.4040453125,22.5848453125Q21.2424453125,22.7175453125,21.0744453125,22.8421453125Q20.9064453125,22.9666453125,20.7326453125,23.082845312499998Q20.5587453125,23.199045312499997,20.3793453125,23.3065453125Q20.1999453125,23.4140453125,20.015545312500002,23.5126453125Q19.8311453125,23.6112453125,19.6421453125,23.7006453125Q19.453045312500002,23.7900453125,19.259845312499998,23.8700453125Q19.0666453125,23.9500453125,18.8697453125,24.0205453125Q18.6728453125,24.0909453125,18.472745312500003,24.1516453125Q18.2726453125,24.2123453125,18.0697453125,24.2631453125Q17.8669453125,24.3140453125,17.6618453125,24.3548453125Q17.4567453125,24.3956453125,17.2498953125,24.4262453125Q17.043035312500002,24.4569453125,16.834925312499998,24.4774453125Q16.6268153125,24.4979453125,16.417945312500002,24.5082453125Q16.2090853125,24.5184453125,15.9999653125,24.5184453125Q15.7908453125,24.5184453125,15.5819753125,24.5082453125Q15.373115312500001,24.4979453125,15.1650053125,24.4774453125Q14.9568953125,24.4569453125,14.7500353125,24.4262453125Q14.5431853125,24.3956453125,14.338085312499999,24.3548453125Q14.1329853125,24.3140453125,13.9301353125,24.2631453125Q13.727285312500001,24.2123453125,13.5271653125,24.1516453125Q13.3270553125,24.0909453125,13.1301653125,24.0205453125Q12.9332653125,23.9500453125,12.7400653125,23.8700453125Q12.5468653125,23.7900453125,12.357825312500001,23.7006453125Q12.168785312499999,23.6112453125,11.9843653125,23.5126453125Q11.7999353125,23.4140453125,11.6205653125,23.3065453125Q11.4412053125,23.199045312499997,11.2673253125,23.082845312499998Q11.0934553125,22.9666453125,10.925485312500001,22.8421453125Q10.7575253125,22.7175453125,10.5958753125,22.5848453125Q10.4342253125,22.4522453125,10.2792753125,22.3117453125Q10.1243253125,22.1713453125,9.9764653125,22.0234453125Q9.8285953125,21.875645312499998,9.688155312500001,21.7206453125Q9.547725312499999,21.5657453125,9.4150553125,21.4040453125Q9.2823953125,21.2424453125,9.1578253125,21.0744453125Q9.0332553125,20.9064453125,8.9170753125,20.7326453125Q8.8008953125,20.5587453125,8.6933853125,20.3793453125Q8.5858753125,20.1999453125,8.4873053125,20.015545312500002Q8.3887233125,19.8311453125,8.2993143125,19.6421453125Q8.2099043125,19.453045312500002,8.1298793125,19.259845312499998Q8.0498533125,19.0666453125,7.9794033125,18.8697453125Q7.9089533124999996,18.6728453125,7.8482503125,18.472745312500003Q7.7875463125,18.2726453125,7.7367343125,18.0697453125Q7.6859233125,17.8669453125,7.6451263125,17.6618453125Q7.6043293125,17.4567453125,7.5736454125,17.2498953125Q7.5429614125,17.043035312500002,7.5224643125,16.834925312499998Q7.5019672125,16.6268153125,7.4917062125,16.417945312500002Q7.4814453125,16.2090853125,7.4814453125,15.9999653125Q7.4814453125,15.7908453125,7.4917062125,15.5819853125Q7.5019672125,15.373115312500001,7.5224643125,15.1650053125Q7.5429614125,14.9568953125,7.5736454125,14.7500353125Q7.6043293125,14.5431853125,7.6451263125,14.338085312499999Q7.6859233125,14.1329853125,7.7367343125,13.9301353125Q7.7875463125,13.727285312500001,7.8482503125,13.5271653125Q7.9089533124999996,13.3270553125,7.9794033125,13.1301653125Q8.0498533125,12.9332653125,8.1298793125,12.7400653125Q8.2099043125,12.5468653125,8.2993143125,12.357825312500001Q8.3887233125,12.168785312499999,8.4873053125,11.9843653125Q8.5858753125,11.7999353125,8.6933853125,11.6205653125Q8.8008953125,11.4412053125,8.9170753125,11.2673253125Q9.0332553125,11.0934553125,9.1578253125,10.925485312500001Q9.2823953125,10.7575253125,9.4150553125,10.5958753125Q9.547725312499999,10.4342253125,9.688155312500001,10.2792753125Q9.8285953125,10.1243353125,9.9764653125,9.9764653125Q10.1243253125,9.8285953125,10.2792753125,9.688155312500001Q10.4342253125,9.547725312499999,10.5958753125,9.4150553125Q10.7575253125,9.2823953125,10.925485312500001,9.1578253125Q11.0934553125,9.0332553125,11.2673253125,8.9170753125Q11.4412053125,8.8008953125,11.6205653125,8.6933853125Q11.7999353125,8.5858753125,11.9843653125,8.4873053125Q12.168785312499999,8.3887233125,12.357825312500001,8.2993143125Q12.5468653125,8.2099043125,12.7400653125,8.1298793125Q12.9332653125,8.0498533125,13.1301653125,7.9794033125Q13.3270553125,7.9089533124999996,13.5271653125,7.8482503125Q13.727285312500001,7.7875463125,13.9301353125,7.7367343125Q14.1329853125,7.6859233125,14.338085312499999,7.6451263125Q14.5431853125,7.6043293125,14.7500353125,7.5736454125Q14.9568953125,7.5429614125,15.1650053125,7.5224643125Q15.373115312500001,7.5019672125,15.5819753125,7.4917062125Q15.7908453125,7.4814453125,15.9999653125,7.4814453125Q16.2090853125,7.4814453125,16.417945312500002,7.4917062125Q16.6268153125,7.5019672125,16.834925312499998,7.5224643125Q17.043035312500002,7.5429614125,17.2498953125,7.5736454125Q17.4567453125,7.6043293125,17.6618453125,7.6451263125Q17.8669453125,7.6859233125,18.0697453125,7.7367343125Q18.2726453125,7.7875463125,18.472745312500003,7.8482503125Q18.6728453125,7.9089533124999996,18.8697453125,7.9794033125Q19.0666453125,8.0498533125,19.259845312499998,8.1298793125Q19.453045312500002,8.2099043125,19.6421453125,8.2993143125Q19.8311453125,8.3887233125,20.015545312500002,8.4873053125Q20.1999453125,8.5858753125,20.3793453125,8.6933853125Q20.5587453125,8.8008953125,20.7326453125,8.9170753125Q20.9064453125,9.0332553125,21.0744453125,9.1578253125Q21.2424453125,9.2823953125,21.4040453125,9.4150553125Q21.5657453125,9.547725312499999,21.7206453125,9.688155312500001Q21.875645312499998,9.8285953125,22.0234453125,9.9764653125Q22.1713453125,10.1243353125,22.3117453125,10.2792753125Q22.4522453125,10.4342253125,22.5848453125,10.5958753125Q22.7175453125,10.7575253125,22.8421453125,10.925485312500001Q22.9666453125,11.0934553125,23.082845312499998,11.2673253125Q23.199045312499997,11.4412053125,23.3065453125,11.6205653125Q23.4140453125,11.7999353125,23.5126453125,11.9843653125Q23.6112453125,12.168785312499999,23.7006453125,12.357825312500001Q23.7900453125,12.5468653125,23.8700453125,12.7400653125Q23.9500453125,12.9332653125,24.0205453125,13.1301653125Q24.0909453125,13.3270553125,24.1516453125,13.5271653125Q24.2123453125,13.727285312500001,24.2631453125,13.9301353125Q24.3140453125,14.1329853125,24.3548453125,14.338085312499999Q24.3956453125,14.5431853125,24.4262453125,14.7500353125Q24.4569453125,14.9568953125,24.4774453125,15.1650053125Q24.4979453125,15.373115312500001,24.5082453125,15.5819853125Q24.5184453125,15.7908453125,24.5184453125,15.9999653125Z" fill="#FF635B" fill-opacity="1" style="mix-blend-mode:passthrough"/></g><g><path d="M15.37611537109375,10.126708984375L16.63469537109375,10.126708984375L16.63469537109375,11.546638984375L17.88251537109375,11.546638984375C18.14068537109375,11.116359984375,18.37195537109375,10.669941984375,18.57634537109375,10.202008884375L19.73272537109375,10.605398984375C19.56599537109375,10.976517984375,19.383125371093747,11.288468984375,19.18949537109375,11.552018984375L21.35170537109375,11.552018984375L21.35170537109375,14.192878984375L20.16838537109375,14.192878984375L20.16838537109375,12.579318984375L11.84241537109375,12.579318984375L11.84241537109375,14.203638984375L10.64838405109375,14.203638984375L10.64838405109375,11.546638984375L12.89123537109375,11.546638984375C12.71374537109375,11.234688984375,12.50397537109375,10.933489984375,12.26194537109375,10.643049984375L13.39681537109375,10.228902984375C13.67649537109375,10.589264984375,13.92391537109375,11.030304984375,14.14981537109375,11.552018984375L15.381495371093749,11.552018984375L15.381495371093749,10.126711521885L15.37611537109375,10.126708984375ZM16.67234537109375,17.791118984375C16.49484537109375,19.227188984374997,16.12373537109375,20.173808984375,15.553605371093749,20.636408984375002C14.935075371093749,21.233408984375,13.45597537109375,21.615208984375002,11.12169437109375,21.792708984375L10.64300537109375,20.711708984375C12.59541537109375,20.636408984375002,13.88626537109375,20.372808984375,14.50479537109375,19.921018984375C15.04802537109375,19.501498984375,15.370735371093751,18.759258984375002,15.472925371093751,17.694308984375L16.67234537109375,17.791118984375ZM20.04468537109375,16.247478984375L20.04468537109375,19.732768984375L18.861405371093753,19.732768984375L18.861405371093753,17.301678984375002L13.16015537109375,17.301678984375002L13.16015537109375,19.872608984375L11.97688537109375,19.872608984375L11.97688537109375,16.247478984375L20.04468537109375,16.247478984375ZM12.70836537109375,13.224748984375001L19.30244537109375,13.224748984375001L19.30244537109375,15.704248984374999L12.70836537109375,15.704248984374999L12.70836537109375,13.224748984375001ZM18.13530537109375,14.859818984375L18.13530537109375,14.079928984375L13.88088537109375,14.079928984375L13.88088537109375,14.859818984375L18.13530537109375,14.859818984375ZM16.822945371093752,19.566038984374998C18.490285371093748,19.910258984374998,19.996275371093752,20.329808984375,21.34090537109375,20.824608984375L20.663205371093753,21.868008984375003C19.221765371093753,21.265608984375,17.73729537109375,20.797708984375,16.22054537109375,20.469608984375L16.822945371093752,19.566038984374998Z" fill="#FFFFFF" fill-opacity="1" style="mix-blend-mode:passthrough"/></g></g></g></g></svg>