<svg t="1714921500836" class="icon" viewBox="0 0 1024 1024" version="1.1" xmlns="http://www.w3.org/2000/svg" p-id="8594" width="32" height="32"><path d="M128 128.042667a85.333333 85.333333 0 0 0-85.333333 85.333333v512a85.333333 85.333333 0 0 0 85.333333 85.333333h223.445333a85.333333 85.333333 0 0 1 56.832 21.674667l46.890667 41.898667a85.333333 85.333333 0 0 0 113.664 0l46.890667-41.898667a85.333333 85.333333 0 0 1 56.832-21.674667H896a85.333333 85.333333 0 0 0 85.333333-85.333333v-512a85.333333 85.333333 0 0 0-85.333333-85.333333H128z m768 85.333333v512h-223.445333a170.666667 170.666667 0 0 0-113.706667 43.392L512 810.624l-46.848-41.856A170.666667 170.666667 0 0 0 351.402667 725.333333H128v-512h768z" fill="#ffffff" p-id="8595"></path><path d="M341.333333 469.376a64 64 0 1 1-128 0 64 64 0 0 1 128 0zM576 469.376a64 64 0 1 1-128 0 64 64 0 0 1 128 0zM746.666667 533.376a64 64 0 1 0 0-128 64 64 0 0 0 0 128z" fill="#ffffff" p-id="8596"></path></svg>