<svg xmlns="http://www.w3.org/2000/svg" xmlns:xlink="http://www.w3.org/1999/xlink" fill="none" version="1.1" width="32" height="32" viewBox="0 0 32 32"><defs><clipPath id="master_svg0_81_2114"><rect x="0" y="0" width="32" height="32" rx="0"/></clipPath></defs><g clip-path="url(#master_svg0_81_2114)"><g><path d="M25.9412,4.00000060536C27.6305,4,29,5.45507,29,7.25L29,21.0625C29,22.8574,27.6305,24.3125,25.9412,24.3125L17.147100000000002,24.3125L17.147100000000002,27.5625L20.5882,27.5625C21.2217,27.5625,21.7353,28.1082,21.7353,28.7813C21.7353,29.4543,21.2217,30,20.5882,30L11.41177,30C10.77826,30,10.264710000000001,29.4543,10.264710000000001,28.7813C10.264710000000001,28.1082,10.77826,27.5625,11.41177,27.5625L14.8529,27.5625L14.8529,24.3125L6.05882,24.3125C4.36948,24.3125,3,22.8574,3,21.0625L3,7.25C2.99999943025,5.45507,4.36948,4,6.05882,4L25.9412,4.00000060536ZM26.7059,18.8281L5.2941199999999995,18.8281L5.2941199999999995,21.0625C5.2941199999999995,21.5112,5.63649,21.875,6.05882,21.875L25.9412,21.875C26.3635,21.875,26.7059,21.5112,26.7059,21.0625L26.7059,18.8281ZM25.9412,6.4375L6.05882,6.4375C5.63649,6.4375,5.2941199999999995,6.801270000000001,5.2941199999999995,7.25L5.2941199999999995,16.3906L26.7059,16.3906L26.7059,7.25C26.7059,6.801270000000001,26.3635,6.4375,25.9412,6.4375Z" fill="#FFFFFF" fill-opacity="1"/></g></g></svg>