<svg t="1714921340017" class="icon" viewBox="0 0 1024 1024" version="1.1" xmlns="http://www.w3.org/2000/svg" p-id="1106" width="32" height="32"><path d="M383.36 524.842667L332.8 387.584a42.666667 42.666667 0 0 1 54.784-54.826667l137.301333 50.602667a42.666667 42.666667 0 0 1 15.445334 70.186667l-86.741334 86.698666a42.666667 42.666667 0 0 1-70.186666-15.36z" fill="#ffffff" p-id="1107"></path><path d="M483.754667 570.453333l86.698666-86.698666a42.666667 42.666667 0 0 1 70.186667 15.402666l50.602667 137.301334a42.666667 42.666667 0 0 1-54.784 54.784l-137.301334-50.602667a42.666667 42.666667 0 0 1-15.402666-70.186667z" fill="#ffffff" p-id="1108"></path><path d="M981.333333 512c0 259.2-210.133333 469.333333-469.333333 469.333333S42.666667 771.2 42.666667 512 252.8 42.666667 512 42.666667s469.333333 210.133333 469.333333 469.333333z m-85.333333 0a384 384 0 1 0-768 0 384 384 0 0 0 768 0z" fill="#ffffff" p-id="1109"></path></svg>