<svg t="1714921444525" class="icon" viewBox="0 0 1024 1024" version="1.1" xmlns="http://www.w3.org/2000/svg" p-id="5214" width="32" height="32"><path d="M510.54537 63.815421c-142.857639 0-258.668271 115.793236-258.668271 258.629385 0 84.454484 40.492226 159.445432 103.117542 206.646454-150.319587 57.994855-241.456261 202.592115-242.319931 387.552663-0.005117 0.268106-0.020466 0.533143-0.020466 0.802272 0 0.144286 0.00921 0.285502 0.011256 0.428765-0.001023 0.473791-0.011256 0.943488-0.011256 1.418302l0.047072 0c0.968048 21.098527 18.428721 37.941124 39.819914 37.941124 21.409612 0 38.870286-16.842597 39.839357-37.941124l0.008186 0c0-0.182149 0.005117-0.36225 0.005117-0.544399 0.014326-0.433882 0.032746-0.865717 0.032746-1.301645 0-0.190335-0.011256-0.3776-0.014326-0.567935 0.89744-164.311253 93.245707-298.358225 248.387114-329.141322l-0.330528-0.413416c0 0 0.778736 0.028653 2.251274 0.055259 21.453614-4.124947 44.086078-6.303566 67.846224-6.303566 5.056156 0 10.04989 0.121773 15.005762 0.316202 25.790386-3.843538 55.100946-10.090822 84.466764-20.212344 35.240619-12.145621 69.810972-41.717124 97.68481-71.340815 38.3484-45.11143 61.491493-103.546308 61.491493-167.393451C769.194198 179.607634 653.401985 63.815421 510.54537 63.815421zM510.54537 501.495762c-98.831936 0-178.954765-80.160691-178.954765-179.051979 0-98.890264 80.122829-179.050955 178.954765-179.050955s178.953741 80.160691 178.953741 179.050955C689.499112 421.335071 609.377306 501.495762 510.54537 501.495762zM908.437519 917.446195c0-0.26913-0.01535-0.534166-0.020466-0.802272-0.607844-130.048915-45.844118-240.142335-124.901685-314.209238l-0.26913 0.226151c-7.628748-9.359158-19.260669-15.33629-32.298614-15.33629-22.966061 0-41.593304 18.564821-41.593304 41.508369 0 14.70798 7.687076 27.633361 19.264762 35.009352 63.981197 61.313437 99.634208 151.628396 100.063997 253.588579l0 0.016373c0 0.01228 0.001023 0.023536 0.001023 0.035816 0.002047 0.604774 0.01842 1.205455 0.01842 1.811252l0.027629 0c0.968048 21.098527 18.429745 37.941124 39.839357 37.941124 21.391193 0 38.851866-16.842597 39.819914-37.941124l0.047072 0c0-0.474814-0.010233-0.944512-0.011256-1.418302C908.42831 917.731698 908.437519 917.590482 908.437519 917.446195z" fill="#ffffff" p-id="5215"></path></svg>