<svg xmlns="http://www.w3.org/2000/svg" xmlns:xlink="http://www.w3.org/1999/xlink" fill="none" version="1.1" width="32" height="32" viewBox="0 0 32 32"><defs><clipPath id="master_svg0_81_2110"><rect x="0" y="0" width="32" height="32" rx="0"/></clipPath></defs><g clip-path="url(#master_svg0_81_2110)"><g><path d="M18.6,3C21.0615,3,23.0571,5.05438,23.0571,7.58824L23.0571,8.35294L26.0286,8.35294C27.6696,8.35294,29,9.72242,29,11.41177L29,25.9412C29,27.6305,27.6696,29,26.0286,29L5.97143,29C4.33035,29,3,27.6305,3.000000553472,25.9412L3.000000553472,11.41177C3,9.72242,4.33035,8.35294,5.97143,8.35294L8.94286,8.35294L8.94286,7.58824C8.94286,5.05438,10.93854,3,13.4,3L18.6,3ZM26.7714,17.529400000000003L20.7041,17.529400000000003C20.7071,17.599,20.7086,17.669,20.7086,17.7393C20.7086,20.3684,18.637900000000002,22.5,16.0836,22.5C13.5293,22.5,11.45891,20.3684,11.45891,17.7393C11.45891,17.669,11.4604,17.599,11.463,17.529400000000003L5.2285699999999995,17.529400000000003L5.2285699999999995,25.9412C5.2285699999999995,26.3635,5.56116,26.7059,5.97143,26.7059L26.0286,26.7059C26.4388,26.7059,26.7714,26.3635,26.7714,25.9412L26.7714,17.529400000000003ZM18.4715,17.529400000000003L13.6957,17.529400000000003C13.5786,18.9678,14.6812,20.2018,16.083399999999997,20.2018C17.485599999999998,20.2018,18.5881,18.9678,18.4715,17.529400000000003L18.4715,17.529400000000003ZM26.0286,10.64706L5.97143,10.64706C5.56116,10.64706,5.2285699999999995,10.989429999999999,5.2285699999999995,11.41177L5.2285699999999995,15.2353L26.7714,15.2353L26.7714,11.41177C26.7714,10.989429999999999,26.4388,10.64706,26.0286,10.64706ZM18.6,5.2941199999999995L13.4,5.2941199999999995C12.16919,5.2941199999999995,11.17143,6.32123,11.17143,7.58824L11.17143,8.35294L20.8286,8.35294L20.8286,7.58824C20.8286,6.3546700000000005,19.8811,5.34191,18.6836,5.29565L18.6,5.2941199999999995Z" fill="#FFFFFF" fill-opacity="1"/></g></g></svg>