<svg t="1714921053250" class="icon" viewBox="0 0 1024 1024" version="1.1" xmlns="http://www.w3.org/2000/svg" p-id="984" width="32" height="32"><path d="M454.3488 247.296a35.84 35.84 0 0 0 35.84-35.84V99.9936a35.84 35.84 0 0 0-71.68 0V211.456a35.84 35.84 0 0 0 35.84 35.84zM312.32 247.296a35.84 35.84 0 0 0 35.84-35.84V123.9552a35.84 35.84 0 0 0-71.68 0V211.456a35.84 35.84 0 0 0 35.84 35.84zM595.0976 247.296a35.84 35.84 0 0 0 35.84-35.84V123.9552a35.84 35.84 0 1 0-71.68 0V211.456a35.84 35.84 0 0 0 35.84 35.84zM855.04 427.1104V339.456a35.84 35.84 0 0 0-35.84-35.84H103.8336a35.84 35.84 0 0 0-35.84 35.84V527.36a393.472 393.472 0 0 0 199.68 342.1696H181.6064a35.84 35.84 0 0 0 0 71.68h563.2a35.84 35.84 0 0 0 0-71.68H655.36a396.032 396.032 0 0 0 156.2112-162.7648 140.3904 140.3904 0 0 0 29.3888 3.1232A141.7728 141.7728 0 0 0 855.04 427.1104z m-393.6256 422.0416A322.048 322.048 0 0 1 139.6736 527.36V375.296H783.36V527.36c0 5.4272 0 10.8032-0.4096 16.128 0 1.6384-0.256 3.1744-0.3584 4.7616 0 3.7888-0.4608 7.5264-0.8192 11.264 0 1.8432-0.4608 3.6864-0.6656 5.5296-0.4096 3.4304-0.8192 6.8608-1.3312 10.24-0.3072 1.9968-0.6656 3.9936-1.024 5.9904-0.5632 3.1744-1.0752 6.4-1.6896 9.5232-0.4608 2.2016-0.9728 4.4032-1.4848 6.5536s-1.28 5.8368-1.9968 8.7552-1.28 4.6592-1.9456 7.0144-1.4336 5.12-2.2528 7.9872-1.5872 5.12-2.4064 7.3216-1.6384 5.12-2.56 7.5776-1.7408 4.6592-2.6624 7.0144a322.0992 322.0992 0 0 1-300.3392 206.1312z m379.2896-210.8416h-1.792c1.024-3.6352 1.9968-7.2704 2.9696-10.9568l0.6144-2.0992c1.4336-5.632 2.7136-11.264 3.8912-16.9984 0.3072-1.3824 0.6144-2.816 0.8704-4.2496 0.9216-4.7104 1.792-9.4208 2.56-14.1824l0.6144-3.7888c0.8704-5.888 1.6384-11.776 2.2528-17.7152 0-0.9216 0-1.8944 0.256-2.816 0.4608-5.12 0.8704-10.24 1.1264-15.36 0-1.536 0-3.1232 0.256-4.7104 0.3072-5.9904 0.4608-12.032 0.4608-18.0736v-27.8528a70.0928 70.0928 0 0 1-14.08 138.8032z" fill="#ffffff" p-id="985"></path><path d="M698.7776 492.6464a35.84 35.84 0 0 0-50.0224-8.0384c-12.288 8.8576-78.336 50.6368-174.08 3.2768-132.2496-65.536-237.3632 22.6816-241.7664 26.4704a35.84 35.84 0 0 0 46.5408 54.4768c3.0208-2.4576 74.3936-60.8256 163.3792-16.7424a266.24 266.24 0 0 0 119.4496 29.6448 225.28 225.28 0 0 0 128-39.0144 35.84 35.84 0 0 0 8.4992-50.0736z" fill="#ffffff" p-id="986"></path></svg>