<svg xmlns="http://www.w3.org/2000/svg" xmlns:xlink="http://www.w3.org/1999/xlink" fill="none" version="1.1" width="120" height="120" viewBox="0 0 120 120"><g><g><rect x="0" y="0" width="120" height="120" rx="0" fill="#FFFFFF" fill-opacity="1"/></g><g><g><path d="M33.7727,73.12129999999999L14.35396,54.3169C10.33441,50.4245,11.590535,46.5839,17.1455,45.782L43.981700000000004,41.908100000000005M60.5,92.4119L36.4969,104.9481C31.5285,107.5429,28.2397,105.1693,29.1886,99.6732L33.7727,73.12129999999999M87.2271,73.12129999999999L91.8113,99.6732C92.7602,105.1693,89.4714,107.5429,84.5029,104.9481L60.5,92.4119M77.0183,41.9082L103.8545,45.7821C109.4095,46.584,110.6656,50.4247,106.646,54.3171L87.2271,73.12129999999999M77.0183,41.9082L65.0168,17.75034C62.5326,12.74989,58.4674,12.74989,55.9832,17.75034L43.981700000000004,41.908100000000005" fill="#FBB03B" fill-opacity="1" style="mix-blend-mode:passthrough"/></g><g><path d="M60.65872655830383,17.35517692565918L77.01872655830383,41.90817692565918L107.03752655830384,49.64897692565918L87.22752655830384,73.12127692565917L88.13772655830384,102.40797692565918L60.500426558303836,92.41197692565918L33.51742655830383,102.97127692565918L33.77322655830383,73.12127692565917L14.806626558303833,50.21217692565918L43.98212655830383,41.90817692565918L60.65872655830383,17.35517692565918Z" fill="#FBB03B" fill-opacity="1" style="mix-blend-mode:passthrough"/></g></g></g></svg>