<svg xmlns="http://www.w3.org/2000/svg" xmlns:xlink="http://www.w3.org/1999/xlink" fill="none" version="1.1" width="120" height="120.046875" viewBox="0 0 120 120.046875"><defs><linearGradient x1="0.13513512909412384" y1="-0.29411765933036804" x2="0.8648648858070375" y2="1.2941176891326904" id="master_svg0_16_724"><stop offset="0%" stop-color="#111827" stop-opacity="1"/><stop offset="50%" stop-color="#1F2937" stop-opacity="1"/><stop offset="100%" stop-color="#000000" stop-opacity="1"/></linearGradient><clipPath id="master_svg1_16_786"><rect x="10" y="9.046875" width="100" height="100" rx="0"/></clipPath></defs><g><rect x="0" y="0" width="120" height="120" rx="0" fill="#D8D8D8" fill-opacity="1"/><rect x="0" y="0.046875" width="120" height="120" rx="0" fill="url(#master_svg0_16_724)" fill-opacity="1" style="mix-blend-mode:passthrough"/><rect x="0" y="0.046875" width="120" height="120" rx="0" fill="#000000" fill-opacity="0" style="mix-blend-mode:passthrough"/><g clip-path="url(#master_svg1_16_786)"><path d="M32.409557625,27.852482338867187C39.760846625,21.343230938867187,49.429050625,17.391647338867188,60.020263625,17.391647338867188C83.031928625,17.391647338867188,101.686927625,36.046440338867185,101.686927625,59.05810933886719C101.686927625,67.91227333886718,98.925254625,76.12101733886719,94.216499625,82.87059833886718L82.936927625,59.05810933886719L93.353584625,59.05810933886719C93.353584625,40.64881533886719,78.429839625,25.724981338867188,60.020263625,25.724981338867188C50.668926625,25.724981338867188,42.217056625,29.57564833886719,36.163678625,35.777855338867184L32.409557625,27.852482338867187ZM87.630660625,90.26393133886718C80.279426625,96.77352133886718,70.611507625,100.72476933886719,60.020263625,100.72476933886719C37.008346625,100.72476933886719,18.353515625,82.07019833886719,18.353515625,59.05810933886719C18.353515625,50.20435733886719,21.115140725,41.99544133886719,25.823932125,35.24585533886719L37.103513625000005,59.05810933886719L26.686847725,59.05810933886719C26.686847725,77.46768933886719,41.610679625,92.39144933886719,60.020263625,92.39144933886719C69.371509625,92.39144933886719,77.82316962499999,88.54102333886719,83.876502625,82.3385163388672L87.630660625,90.26393133886718ZM64.18692762500001,65.4564403388672L76.68692362499999,65.4564403388672L76.68692362499999,73.78977233886718L64.18692762500001,73.78977233886718L64.18692762500001,82.12310833886718L55.853595625,82.12310833886718L55.853595625,73.78977233886718L43.353513625000005,73.78977233886718L43.353513625000005,65.4564403388672L55.853595625,65.4564403388672L55.853595625,61.28976833886719L43.353513625000005,61.28976833886719L43.353513625000005,52.956436338867185L54.127761625,52.956436338867185L45.288806625,44.11752533886719L51.181342625,38.224979338867186L60.020263625,47.06381433886719L68.859008625,38.224979338867186L74.751502625,44.11752533886719L65.912757625,52.956436338867185L76.68692362499999,52.956436338867185L76.68692362499999,61.28976833886719L64.18692762500001,61.28976833886719L64.18692762500001,65.4564403388672Z" fill="#EAB308" fill-opacity="1" style="mix-blend-mode:passthrough"/></g></g></svg>