<svg xmlns="http://www.w3.org/2000/svg" xmlns:xlink="http://www.w3.org/1999/xlink" fill="none" version="1.1" width="83.33341217041016" height="83.33312225341797" viewBox="0 0 83.33341217041016 83.33312225341797"><path d="M14.056042,10.460835C21.407331,3.9515836,31.075535,0,41.666748,0C64.678413,0,83.333412,18.654793,83.333412,41.666462C83.333412,50.520626,80.571739,58.72937,75.862984,65.478951L64.583412,41.666462L75.000069,41.666462C75.000069,23.257168,60.076324,8.333334,41.666748,8.333334C32.315411,8.333334,23.863541,12.184001,17.810163,18.386208L14.056042,10.460835ZM69.277145,72.872284C61.925911,79.381874,52.257992,83.333122,41.666748,83.333122C18.654831,83.333122,0,64.678551,0,41.666462C0,32.81271,2.7616251,24.603794,7.4704165,17.854208L18.749998,41.666462L8.3333321,41.666462C8.3333321,60.076042,23.257164,74.999802,41.666748,74.999802C51.017994,74.999802,59.469654,71.149376,65.522987,64.946869L69.277145,72.872284ZM45.833412,48.064793L58.333408,48.064793L58.333408,56.398125L45.833412,56.398125L45.833412,64.731461L37.50008,64.731461L37.50008,56.398125L24.999998,56.398125L24.999998,48.064793L37.50008,48.064793L37.50008,43.898121L24.999998,43.898121L24.999998,35.564789L35.774246,35.564789L26.935291,26.725878L32.827827,20.833332L41.666748,29.672167L50.505493,20.833332L56.397987,26.725878L47.559242,35.564789L58.333408,35.564789L58.333408,43.898121L45.833412,43.898121L45.833412,48.064793Z" fill="#EAB308" fill-opacity="1" style="mix-blend-mode:passthrough"/></svg>