<svg xmlns="http://www.w3.org/2000/svg" xmlns:xlink="http://www.w3.org/1999/xlink" fill="none" version="1.1" width="128" height="128" viewBox="0 0 128 128"><defs><clipPath id="master_svg0_43_429"><rect x="0" y="0" width="128" height="128" rx="0"/></clipPath><clipPath id="master_svg1_43_430"><rect x="4" y="0" width="128" height="128" rx="0"/></clipPath><clipPath id="master_svg2_43_248"><rect x="14" y="13" width="103" height="103" rx="0"/></clipPath></defs><g><g clip-path="url(#master_svg0_43_429)"><rect x="0" y="0" width="128" height="128" rx="0" fill="#FA636E" fill-opacity="1"/><g clip-path="url(#master_svg1_43_430)"><g clip-path="url(#master_svg2_43_248)"><g><path d="M64.69269970703125,30.140736256875C64.66849970703126,30.164877396875,64.13139970703125,30.213158296875,63.49919970703125,30.248061796875C62.86729970703125,30.282863796875,62.21509970703125,30.332051796875,62.04999970703125,30.357297796875C61.88499970703125,30.382443796875,61.56999970703125,30.422476796875,61.34989970703125,30.446114796875C61.12989970703125,30.469851796875,60.52249970703125,30.583112796875,59.99999970703125,30.698182796875C59.47759970703125,30.813353796875,58.95999970703125,30.922488796875,58.84999970703125,30.940997796875C58.74009970703125,30.959304796875,58.64989970703125,30.983242796875,58.64989970703125,30.994106796875C58.64989970703125,31.004868796875,58.53739970703125,31.028808796875,58.39989970703125,31.047617796875C57.93639970703125,31.110181796875,56.85109970703125,31.417171796875,56.72489970703125,31.521181796875C56.65619970703125,31.578111796875,56.59999970703125,31.590981796875,56.59999970703125,31.550041796875C56.59999970703125,31.509111796875,56.53259970703125,31.531541796875,56.44989970703125,31.599941796875C56.36749970703125,31.668431796875,56.29999970703125,31.698911796875,56.29999970703125,31.667731796875C56.29999970703125,31.596111796875,55.36659970703125,31.868601796875,54.89999970703125,32.076111796875C54.70739970703125,32.161811796875,54.51629970703125,32.241671796874996,54.47489970703125,32.253541796875C54.43359970703125,32.265411796875,54.38889970703125,32.283921796875,54.37499970703125,32.294981796875C54.36129970703125,32.305751796875,54.23899970703125,32.335221796875,54.10329970703125,32.360161796875C53.96749970703125,32.385111796875,53.75389970703125,32.472621796875,53.62849970703125,32.555101796875C53.50279970703125,32.637181796875,53.40009970703125,32.679931796875,53.40009970703125,32.649851796875C53.40009970703125,32.619471796875,53.26529970703125,32.664541796875,53.10109970703125,32.749431796875C52.93659970703125,32.834431796875,52.77869970703125,32.902121796875,52.74989970703125,32.900111796875C52.72119970703125,32.897801796875,52.56389970703125,32.965291796875,52.39989970703125,33.049981796875C52.23609970703125,33.134681796875,52.07859970703125,33.202171796875,52.04969970703125,33.199551796875C51.89159970703125,33.185981796875,48.65269970703125,34.909921796875,47.48819970703125,35.627501796875C46.25499970703125,36.387421796875,46.10869970703125,36.453311796875,45.93809970703125,36.325361796875C45.727599707031246,36.167241796875004,44.82999970703125,35.695501796875,44.74959970703125,35.700721796875C44.721199707031246,35.702431796875,44.563899707031254,35.634741796875,44.39989970703125,35.550051796874996C44.23609970703125,35.465351796875,44.08009970703125,35.394741796875,44.05309970703125,35.393131796875C44.02629970703125,35.391621796875,43.78939970703125,35.293351796875,43.52699970703125,35.174561796875C43.26459970703125,35.055671796875004,42.98239970703125,34.955681796875,42.89989970703125,34.952671796875C42.80309970703125,34.945071796875,42.709199707031246,34.916041796875,42.62489970703125,34.867671796875C42.556199707031254,34.823921796875,42.500099707031254,34.818691796875,42.500099707031254,34.856311796875C42.500099707031254,34.893921796875,42.43239970703125,34.868371796875,42.34989970703125,34.799981796875C42.26749970703125,34.731481796875,42.20009970703125,34.709051796875,42.20009970703125,34.749991796875C42.20009970703125,34.790921796875,42.132399707031254,34.768491796875,42.04999970703125,34.700001796875C41.96749970703125,34.631601796875,41.900099707031245,34.609171796875,41.900099707031245,34.650111796875C41.900099707031245,34.691041796875,41.82799970703125,34.664791796875,41.739999707031245,34.591671796875C41.58339970703125,34.461611796875,41.51069970703125,34.438671796875,40.99989970703125,34.357601796875C40.86239970703125,34.335671796875,40.62009970703125,34.267481796875,40.46119970703125,34.206121796875C40.30229970703125,34.144561796875,40.150099707031245,34.116601796875,40.12289970703125,34.143561796875C40.09579970703125,34.170921796875,39.98069970703125,34.143051796875,39.86719970703125,34.082201796875C39.753299707031246,34.021551796875,39.50039970703125,33.956361796875,39.30529970703125,33.937561796875C39.08569970703125,33.915301796875,38.86709970703125,33.884191796875,38.64999970703125,33.844311796875C38.22019970703125,33.759421796875,37.91219970703125,33.713251796875,37.39999970703125,33.657621796875C37.15259970703125,33.630671796875,36.797199707031254,33.562871796875,36.61079970703125,33.507251796874996C36.424099707031246,33.451421796875,36.23409970703125,33.428791796875004,36.188499707031255,33.457061796875C36.08009970703125,33.524051796875,33.10239970703125,33.535621796875,33.03599970703125,33.469131796875C33.00779970703125,33.441061796875,32.84199970703125,33.461181796875,32.66739970703125,33.513391796875C32.49289970703125,33.565691796875,32.16989970703125,33.628561796875,31.94999970703125,33.652801796874996C31.53189970703125,33.698871796875,31.08919970703125,33.769681796875,30.75009970703125,33.844921796875C30.63989970703125,33.869361796875,30.34809970703125,33.917441796874996,30.10149970703125,33.951741796875C29.85469970703125,33.986241796875,29.60319970703125,34.055741796875,29.54239970703125,34.106241796875C29.48139970703125,34.156931796875,29.409599707031248,34.176051796875,29.38249970703125,34.148991796875C29.31099970703125,34.077571796875,27.12059970703125,34.785501796874996,27.047799707031253,34.903681796875C27.01379970703125,34.958611796875,26.95019970703125,34.980941796875,26.90599970703125,34.953681796875C26.77639970703125,34.873611796875,23.92559970703125,36.335731796875,23.00121970703125,36.956241796875C19.40516970703125,39.370301796875,15.54316970703125,44.331591796875,14.96359870703125,47.281691796874995C14.94549270703125,47.374191796874996,14.87749670703125,47.579891796875,14.81241770703125,47.738791796875C14.74753970703125,47.897691796875,14.71766570703125,48.051191796875,14.74623270703125,48.079791796875C14.77479870703125,48.108291796875,14.75961070703125,48.180591796875,14.71223470703125,48.240691796875C14.63347570703125,48.340591796875,14.41299070703125,49.165891796875,14.33553970703125,49.649891796874996C14.31803770703125,49.759891796874996,14.25024270703125,50.075091796875,14.18516370703125,50.350091796875C14.05299410703125,50.908091796875,14.00511518703125,55.362591796875,14.12330370703125,56.100091796875C14.16069470703125,56.333591796875,14.19932070703125,56.566891796875,14.23917870703125,56.799991796875C14.26331970703125,56.937491796875,14.30586670703125,57.186991796875,14.33423270703125,57.354691796875C14.41148270703125,57.814791796875,14.80668470703125,59.329891796875,14.87991070703125,59.447091796875C14.91511670703125,59.503691796875,14.95655770703125,59.629891796875,14.97174570703125,59.727691796875C14.98693470703125,59.825291796875,15.07403970703125,60.072691796875,15.16516970703125,60.277791796875C15.25629970703125,60.482491796874996,15.326609707031249,60.675791796875004,15.32117970703125,60.707791796875C15.27078970703125,61.009091796875,17.00679970703125,64.095191796875,17.86579970703125,65.231291796875C18.84279970703125,66.522891796875,20.72384970703125,68.400791796875,22.020809707031248,69.37959179687499L22.69171970703125,69.88559179687499L22.016779707031247,70.71779179687499C20.452669707031248,72.646291796875,17.14510970703125,76.765491796875,15.77471970703125,78.49179179687499C14.96329670703125,79.513791796875,14.23203670703125,80.42119179687501,14.14955570703125,80.50859179687501C13.95623000703125,80.712891796875,13.95643120703125,81.33939179687499,14.15005870703125,81.499891796875C14.23253970703125,81.568291796875,14.29993170703125,81.59849179687501,14.29993170703125,81.566591796875C14.29993170703125,81.534891796875,14.47998070703125,81.572591796875,14.69986170703125,81.650091796875C14.92004470703125,81.727591796875,15.09998970703125,81.765091796875,15.09998970703125,81.733491796875C15.09998970703125,81.70149179687499,15.16748970703125,81.731691796875,15.24986970703125,81.799891796875C15.33254970703125,81.868391796875,15.400039707031251,81.895391796875,15.400039707031251,81.85989179687499C15.400039707031251,81.824291796875,15.50273970703125,81.862691796875,15.62836970703125,81.945091796875C15.75409970703125,82.027291796875,15.94521970703125,82.111491796875,16.05324970703125,82.131991796875C16.16147970703125,82.152591796875,16.38497970703125,82.225791796875,16.55003970703125,82.294791796875C17.14228970703125,82.542491796875,17.60015970703125,82.69009179687501,17.60015970703125,82.633391796875C17.60015970703125,82.60139179687499,17.66754970703125,82.631591796875,17.75002970703125,82.700091796875C17.83230970703125,82.768491796875,17.90009970703125,82.79539179687501,17.90009970703125,82.759891796875C17.90009970703125,82.724591796875,18.02180970703125,82.775291796875,18.17067970703125,82.872591796875C18.31924970703125,82.970191796875,18.45442970703125,83.038691796875,18.47072970703125,83.025091796875C18.51830970703125,82.984391796875,18.65077970703125,83.025291796875,19.09998970703125,83.21919179687501C19.713369707031248,83.484191796875,19.84603970703125,83.532391796875,20.02497970703125,83.55399179687501C20.12123970703125,83.565591796875,20.23379970703125,83.585891796875,20.27503970703125,83.59929179687501C20.31627970703125,83.612591796875,20.37360970703125,83.621691796875,20.40247970703125,83.619391796875C20.431349707031252,83.617091796875,20.56291970703125,83.696591796875,20.69518970703125,83.796491796875L20.93578970703125,83.977891796875L20.75854970703125,84.44129179687499C20.66128970703125,84.696191796875,20.57246970703125,84.960191796875,20.56109970703125,85.02739179687501C20.54973970703125,85.094791796875,20.49068970703125,85.24009179687499,20.43003970703125,85.349991796875C20.36928970703125,85.459991796875,20.31516970703125,85.583791796875,20.309739707031248,85.625091796875C20.30430970703125,85.666291796875,20.29434970703125,85.722391796875,20.28740970703125,85.749891796875C20.28066970703125,85.77739179687501,20.26748970703125,85.83389179687501,20.25823970703125,85.875091796875C20.24898970703125,85.916291796875,20.17072970703125,86.084891796875,20.084429707031248,86.24999179687501C19.95436970703125,86.497691796875,19.57797970703125,87.520191796875,19.55061970703125,87.699891796875C19.54628970703125,87.727491796875,19.48654970703125,87.851091796875,19.41804970703125,87.974891796875C19.349249707031248,88.098891796875,19.32248970703125,88.200091796875,19.35879970703125,88.200091796875C19.39490970703125,88.200091796875,19.36835970703125,88.267391796875,19.30005970703125,88.349891796875C19.23165970703125,88.432591796875,19.20610970703125,88.49999179687501,19.24342970703125,88.49999179687501C19.280749707031248,88.49999179687501,19.244229707031252,88.595791796875,19.16204970703125,88.71319179687501C18.97566970703125,88.97949179687501,19.216369707031248,89.444991796875,19.50223970703125,89.370391796875C19.59517970703125,89.34619179687499,19.75017970703125,89.370091796875,19.846239707031252,89.423991796875C19.94229970703125,89.47779179687501,20.25773970703125,89.532791796875,20.54721970703125,89.546691796875C20.83690970703125,89.560691796875,21.12759970703125,89.605191796875,21.19378970703125,89.646191796875C21.25966970703125,89.686791796875,21.551679707031248,89.731691796875,21.84256970703125,89.745591796875C22.13365970703125,89.759191796875,22.42053970703125,89.80089179687499,22.48027970703125,89.83769179687499C22.53962970703125,89.874591796875,22.782539707031248,89.923691796875,23.019219707031247,89.946591796875C23.25609970703125,89.969791796875,23.60764970703125,90.015891796875,23.79986970703125,90.049391796875C23.99248970703125,90.082591796875,24.37489970703125,90.125391796875,24.649899707031253,90.143991796875C24.92489970703125,90.16269179687501,25.269199707031248,90.224991796875,25.41469970703125,90.28249179687501C25.560199707031252,90.340091796875,25.702099707031252,90.364591796875,25.72989970703125,90.33679179687499C25.75769970703125,90.308891796875,26.043499707031252,90.338091796875,26.36509970703125,90.401191796875C26.686699707031252,90.464191796875,27.17489970703125,90.536391796875,27.44989970703125,90.56109179687499C28.279899707031248,90.635691796875,28.56359970703125,90.674891796875,28.78969970703125,90.746691796875C29.00759970703125,90.815991796875,29.35839970703125,90.874091796875,29.99999970703125,90.94809179687499C30.19229970703125,90.96999179687501,30.50749970703125,91.01659179687499,30.69989970703125,91.051091796875C30.89249970703125,91.085891796875,31.25329970703125,91.126291796875,31.50149970703125,91.140991796875C31.74999970703125,91.155891796875,32.05099970703125,91.220191796875,32.17039970703125,91.284091796875C32.31549970703125,91.361891796875,32.40889970703125,91.366591796875,32.450899707031255,91.298491796875C32.48539970703125,91.242691796875,32.55259970703125,91.220691796875,32.59989970703125,91.250091796875C32.647399707031255,91.27949179687499,32.75679970703125,91.20239179687499,32.84309970703125,91.079391796875C33.010399707031254,90.840391796875,33.05499970703125,90.345691796875,32.91669970703125,90.260191796875C32.82319970703125,90.202591796875,32.88679970703125,89.600091796875,32.98619970703125,89.600091796875C33.02129970703125,89.600091796875,33.18169970703125,89.83649179687501,33.34269970703125,90.125191796875C33.78319970703125,90.915691796875,35.13869970703125,92.909391796875,35.827199707031255,93.77939179687499C37.110299707031245,95.401291796875,39.86219970703125,98.091391796875,40.80989970703125,98.649791796875C40.903099707031245,98.704991796875,41.130399707031245,98.869491796875,41.31479970703125,99.015791796875C41.83989970703125,99.431891796875,43.31719970703125,100.301191796875,43.40599970703125,100.246091796875C43.44999970703125,100.218991796875,43.51759970703125,100.247691796875,43.55639970703125,100.309991796875C43.63849970703125,100.443191796875,45.821599707031254,101.511791796875,45.88389970703125,101.449391796875C45.907399707031246,101.425991796875,46.01319970703125,101.453591796875,46.11949970703125,101.510491796875C46.31859970703125,101.616791796875,46.64839970703125,101.459191796875,46.55239970703125,101.303691796875C46.52719970703125,101.263191796875,46.48229970703125,101.009291796875,46.45219970703125,100.739991796875C46.42089970703125,100.459391796875,46.38489970703125,100.179391796875,46.34429970703125,99.900091796875C46.31489970703125,99.707491796875,46.28739970703125,99.482391796875,46.28319970703125,99.399991796875C46.27889970703125,99.317491796875,46.18769970703125,98.642491796875,46.08039970703125,97.899991796875C45.97299970703125,97.157391796875,45.87289970703125,96.437491796875,45.85769970703125,96.299891796875C45.84249970703125,96.162391796875,45.817899707031245,96.005091796875,45.80299970703125,95.949991796875C45.68149970703125,95.495991796875,45.80219970703125,95.503791796875,46.74989970703125,96.010291796875C47.27259970703125,96.289391796875,47.69999970703125,96.491991796875,47.69999970703125,96.460991796875C47.69999970703125,96.429491796875,47.98269970703125,96.559191796875,48.32839970703125,96.749191796875C48.67419970703125,96.939291796875,49.04549970703125,97.109491796875,49.15339970703125,97.127791796875C49.26149970703125,97.146091796875,49.49369970703125,97.237291796875,49.66969970703125,97.330391796875C49.84549970703125,97.423391796875,50.09299970703125,97.518891796875,50.21969970703125,97.542391796875C50.34639970703125,97.565791796875,50.46119970703125,97.594191796875,50.47489970703125,97.604891796875C50.48869970703125,97.615991796875,50.53379970703125,97.634591796875,50.57499970703125,97.646391796875C50.61629970703125,97.658091796875,50.80759970703125,97.738091796875,50.99989970703125,97.823791796875C51.46649970703125,98.031391796875,52.39999970703125,98.303791796875,52.39999970703125,98.232191796875C52.39999970703125,98.200991796875,52.46739970703125,98.231491796875,52.54999970703125,98.299991796875C52.63249970703125,98.368391796875,52.69989970703125,98.390791796875,52.69989970703125,98.349791796875C52.69989970703125,98.308891796875,52.75729970703125,98.323091796875,52.82739970703125,98.381291796875C52.89769970703125,98.439491796875,53.06639970703125,98.505691796875,53.20249970703125,98.528091796875C53.33849970703125,98.550691796875,53.51749970703125,98.595291796875,53.59989970703125,98.626991796875C53.88699970703125,98.737591796875,54.55109970703125,98.936791796875,54.69989970703125,98.956891796875C55.36939970703125,99.047691796875,55.60549970703125,99.091491796875,55.68279970703125,99.139391796875C55.76209970703125,99.188291796875,56.13489970703125,99.260691796875,56.74989970703125,99.346491796875C56.86879970703125,99.363691796875,56.98599970703125,99.391291796875,57.10009970703125,99.428791796875C57.18249970703125,99.458691796875,57.31729970703125,99.487191796875,57.40009970703125,99.491891796875C57.48249970703125,99.496791796875,57.68489970703125,99.524391796875,57.84989970703125,99.553291796875C58.32069970703125,99.635491796875,58.71279970703125,99.695591796875,59.19999970703125,99.759691796875C59.44739970703125,99.792191796875,59.78499970703125,99.837091796875,59.95009970703125,99.859591796875C60.11489970703125,99.881991796875,60.58219970703125,99.924491796875,60.98859970703125,99.953891796875C61.39499970703125,99.983491796875,61.80839970703125,100.050991796875,61.90759970703125,100.103991796875C62.00669970703125,100.156991796875,62.11019970703125,100.164291796875,62.13789970703125,100.119691796875C62.16539970703125,100.075091796875,62.56169970703125,100.093191796875,63.01899970703125,100.159291796875C63.47599970703125,100.225491796875,63.89499970703125,100.245591796875,63.95009970703125,100.203891796875C64.00499970703126,100.162191796875,64.36499970703125,100.164191796875,64.74989970703125,100.208791796875C65.62509970703124,100.309991796875,67.45669970703125,100.308191796875,68.25009970703124,100.205491796875C68.57999970703125,100.162691796875,68.89769970703125,100.164691796875,68.95619970703126,100.210291796875C69.01459970703125,100.255891796875,69.45309970703124,100.235991796875,69.93099970703125,100.166291796875C70.44199970703124,100.091891796875,70.83639970703125,100.076391796875,70.88899970703125,100.128891796875C70.94169970703125,100.181691796875,71.06399970703126,100.172791796875,71.18609970703125,100.107291796875C71.30049970703125,100.046291796875,71.79949970703126,99.977491796875,72.29539970703125,99.954891796875C72.79139970703125,99.932291796875,73.24399970703125,99.884591796875,73.30139970703125,99.849091796875C73.40289970703125,99.786491796875,73.81049970703125,99.728591796875,74.66879970703124,99.655391796875C74.89899970703125,99.635491796875,75.14649970703125,99.582991796875,75.21859970703125,99.538491796875C75.33599970703125,99.465891796875,75.68359970703125,99.403591796875,76.09989970703126,99.380991796875C76.18239970703125,99.376291796875,76.29489970703125,99.341491796875,76.34999970703126,99.303391796875C76.40509970703124,99.265291796875,76.62599970703124,99.224291796875,76.84139970703126,99.212791796875C77.05659970703125,99.201191796875,77.28159970703125,99.160791796875,77.34139970703126,99.123391796875C77.40109970703125,99.085791796875,77.49509970703124,99.052591796875,77.54999970703125,99.049491796875C77.88009970703125,99.030391796875,78.50759970703125,98.868491796875,78.55619970703125,98.789691796875C78.58809970703125,98.738391796875,78.65549970703125,98.722491796875,78.70689970703125,98.754191796875C78.75819970703125,98.785791796875,78.85449970703125,98.778091796875,78.92069970703125,98.737091796875C78.98709970703125,98.695991796875,79.13329970703126,98.649391796875,79.24589970703126,98.633391796875C79.62699970703125,98.579091796875,79.74979970703124,98.544591796875,79.89989970703125,98.448691796875C79.98259970703126,98.395991796875,80.08369970703124,98.346791796875,80.12499970703125,98.339091796875C80.16619970703125,98.331291796875,80.22249970703125,98.313791796875,80.25009970703125,98.299891796875C80.27739970703125,98.286291796875,80.34489970703125,98.263591796875,80.39999970703126,98.249991796875C80.45509970703125,98.236291796875,80.51119970703125,98.215991796875,80.52509970703125,98.204891796875C80.53879970703125,98.193791796875,80.63219970703125,98.169091796875,80.73289970703125,98.150091796875C80.85269970703125,98.124991796875,80.96989970703125,98.088591796875,81.08289970703125,98.041491796875C81.17479970703126,98.000391796875,81.28369970703125,97.957691796875,81.32489970703125,97.946091796875C81.36639970703125,97.934491796875,81.41119970703124,97.915891796875,81.42499970703125,97.904791796875C81.43869970703125,97.894091796875,81.56099970703124,97.864691796875,81.69669970703124,97.839791796875C81.83219970703125,97.814991796875,82.04589970703125,97.727191796875,82.17149970703124,97.645091796875C82.29719970703125,97.562691796875,82.39989970703125,97.517091796875,82.39989970703125,97.543991796875C82.39989970703125,97.626791796875,83.99869970703125,96.913791796875,85.09209970703125,96.343691796875C85.66499970703126,96.044491796875,86.14469970703125,95.799891796875,86.15789970703125,95.799891796875C86.17099970703126,95.799891796875,86.12369970703125,96.021091796875,86.05229970703125,96.291491796875C85.96559970703125,96.619791796875,85.95569970703124,96.815891796875,86.02299970703125,96.882891796875C86.08989970703125,96.949891796875,86.07029970703125,97.058191796875,85.96429970703124,97.209691796875C85.84709970703125,97.377091796875,85.83419970703125,97.470791796875,85.91499970703126,97.568091796875C85.99369970703125,97.662791796875,85.99389970703125,97.736791796875,85.91589970703124,97.830691796875C85.85639970703124,97.902591796875,85.78739970703126,98.175691796875,85.76289970703125,98.438291796875C85.73849970703125,98.700391796875,85.69339970703125,98.939791796875,85.66269970703125,98.970491796875C85.63209970703124,99.001191796875,85.65349970703124,99.113091796875,85.71039970703124,99.219391796875C85.77759970703126,99.345091796875,85.77979970703124,99.454291796875,85.71649970703125,99.531191796875C85.58059970703125,99.697391796875,85.53959970703124,100.025691796875,85.63599970703125,100.179391796875C85.68199970703125,100.252491796875,85.66619970703125,100.370491796875,85.59919970703125,100.451091796875C85.53429970703125,100.529091796875,85.50179970703125,100.650891796875,85.52699970703125,100.721691796875C85.55219970703125,100.792291796875,85.53659970703124,100.920991796875,85.49219970703125,101.007491796875C85.06999970703124,101.832291796875,87.06039970703125,100.941291796875,89.70009970703126,99.124491796875C91.18199970703125,98.104191796875,91.87309970703124,97.516391796875,93.37199970703125,95.999991796875C94.78319970703124,94.572291796875,94.99989970703125,94.338291796875,94.99989970703125,94.241191796875C94.99989970703125,94.189891796875,95.09009970703126,94.091791796875,95.20009970703126,94.02309179687501C95.30999970703125,93.954291796875,95.40019970703125,93.831191796875,95.40019970703125,93.749091796875C95.40019970703125,93.66699179687501,95.44109970703126,93.600091796875,95.49129970703125,93.600091796875C95.69059970703125,93.600091796875,97.17279970703125,91.325491796875,98.04999970703125,89.672891796875C98.60339970703124,88.630291796875,98.67009970703126,88.598591796875,98.75049970703125,89.340991796875L98.84899970703125,90.253091796875C98.92909970703126,90.993091796875,99.27599970703125,91.49059179687501,99.53299970703125,91.233591796875C99.56919970703125,91.197391796875,99.74149970703125,91.151691796875,99.91539970703126,91.13269179687501C100.08939970703125,91.11389179687501,100.28489970703124,91.053791796875,100.34999970703124,90.99999179687501C100.41519970703125,90.945991796875,100.49679970703124,90.930291796875,100.53179970703125,90.964991796875C100.56649970703126,90.99999179687501,100.65669970703125,90.977391796875,100.73159970703125,90.914991796875C100.80679970703125,90.85279179687501,100.89489970703124,90.82829179687499,100.92759970703125,90.860691796875C100.95999970703124,90.893391796875,101.04579970703125,90.883191796875,101.11839970703124,90.837791796875C101.19079970703125,90.792691796875,101.36819970703125,90.753291796875,101.51289970703125,90.75029179687499C101.65739970703125,90.747291796875,101.84149970703125,90.689991796875,101.92199970703125,90.622991796875C102.00259970703125,90.556291796875,102.08899970703125,90.522091796875,102.11389970703125,90.54709179687501C102.13889970703126,90.572091796875,102.40449970703125,90.522991796875,102.70459970703125,90.437691796875C103.00449970703124,90.352691796875,103.36379970703125,90.27309179687501,103.50319970703126,90.260791796875C103.64249970703125,90.248791796875,103.81419970703125,90.203091796875,103.88479970703125,90.159191796875C103.95559970703125,90.11559179687501,104.03869970703126,90.105191796875,104.06989970703125,90.136391796875C104.10069970703125,90.167591796875,104.21569970703125,90.13049179687499,104.32449970703125,90.053891796875C104.43369970703125,89.977491796875,104.58069970703124,89.937091796875,104.65129970703126,89.96439179687499C104.72189970703126,89.99149179687501,104.80999970703125,89.96489179687501,104.84679970703125,89.905091796875C104.88359970703125,89.84539179687499,104.95569970703124,89.822491796875,105.00689970703125,89.854191796875C105.05809970703125,89.885791796875,105.15629970703125,89.876591796875,105.22499970703124,89.833791796875C105.29379970703125,89.790891796875,105.46239970703125,89.753291796875,105.59999970703124,89.749791796875C105.73749970703125,89.746791796875,105.89989970703125,89.712791796875,105.96119970703126,89.67469179687501C106.02219970703125,89.636591796875,106.22469970703125,89.58559179687501,106.41109970703125,89.561591796875C106.59749970703125,89.537491796875,106.87739970703124,89.468391796875,107.03339970703125,89.408191796875C107.18919970703125,89.34789179687499,107.35149970703125,89.319791796875,107.39369970703125,89.346091796875C107.43599970703124,89.372091796875,107.55419970703124,89.33249179687499,107.65599970703126,89.257791796875C107.75799970703125,89.183091796875,107.89529970703126,89.142691796875,107.96069970703125,89.167891796875C108.02609970703125,89.192891796875,108.10829970703125,89.167391796875,108.14299970703125,89.110991796875C108.17779970703126,89.054891796875,108.26789970703125,89.032291796875,108.34309970703124,89.060991796875C108.41829970703125,89.08989179687501,108.50989970703125,89.06459179687499,108.54669970703125,89.00519179687501C108.58349970703125,88.94549179687499,108.65569970703125,88.922491796875,108.70699970703124,88.954191796875C108.75829970703126,88.985891796875,108.85549970703126,88.977291796875,108.92319970703124,88.935691796875C108.99089970703125,88.893591796875,109.11479970703125,88.853191796875,109.19819970703125,88.845791796875C109.45239970703125,88.82279179687501,110.04389970703124,88.680191796875,110.14999970703126,88.616091796875C110.20509970703125,88.582891796875,110.36239970703124,88.549891796875,110.49989970703125,88.542991796875C110.63739970703125,88.535791796875,110.82259970703124,88.498391796875,110.91089970703125,88.459491796875C110.99939970703124,88.420891796875,111.18149970703125,88.37759179687501,111.31519970703125,88.36329179687499C111.44899970703125,88.349191796875,111.60149970703125,88.311791796875,111.65419970703125,88.280391796875C111.70679970703125,88.24919179687501,111.89659970703126,88.191991796875,112.07579970703125,88.15359179687499C112.43349970703125,88.076891796875,112.67269970703126,87.761791796875,112.52029970703126,87.568591796875C112.39509970703125,87.410491796875,110.48639970703125,83.629391796875,110.48079970703125,83.528691796875C110.47829970703125,83.48549179687501,110.41409970703126,83.36129179687501,110.33819970703125,83.252691796875C110.26219970703124,83.144291796875,110.19999970703125,82.998491796875,110.19999970703125,82.929191796875C110.19999970703125,82.824391796875,111.28429970703125,82.191891796875,111.44999970703125,82.200291796875C111.47819970703125,82.201591796875,111.72559970703125,82.088991796875,111.99999970703125,81.949991796875C112.27429970703125,81.810891796875,112.52149970703125,81.69809179687499,112.54959970703125,81.699391796875C112.57769970703124,81.70039179687501,113.09519970703126,81.45319179687499,113.69979970703125,81.14989179687501C114.30469970703125,80.84679179687501,114.82269970703125,80.599591796875,114.85069970703125,80.600691796875C114.87869970703125,80.601691796875,115.12569970703125,80.48889179687501,115.39969970703125,80.349891796875C115.67369970703125,80.211091796875,115.92169970703125,80.09849179687501,115.94969970703124,80.099991796875C116.17469970703125,80.111691796875,116.99969970703125,79.566491796875,116.99969970703125,79.406391796875C116.99969970703125,79.290191796875,115.74169970703124,77.949691796875,113.77509970703125,75.970791796875C110.87019970703125,73.047891796875,108.19679970703125,70.230091796875,108.12169970703125,70.011791796875C108.10599970703124,69.966491796875,108.42979970703125,69.675991796875,108.84159970703125,69.365991796875C110.94199970703124,67.784791796875,113.10889970703126,65.430291796875,113.75499970703125,64.026191796875C113.86209970703125,63.792791796875,113.97829970703125,63.601691796875,114.01269970703125,63.600991796875C114.04669970703125,63.600491796875,114.17169970703125,63.374891796875,114.29069970703125,63.099891796875C114.40869970703125,62.824891796875,114.54869970703125,62.599891796875,114.60169970703124,62.599891796875C114.74869970703125,62.599891796875,115.50969970703125,61.027791796875,115.73969970703125,60.249891796875005C115.75569970703125,60.195091796875005,115.82569970703125,60.014991796875,115.89469970703125,59.850091796875C116.06369970703125,59.445691796874996,116.30069970703126,58.651391796875004,116.35269970703125,58.319591796875C116.37569970703125,58.171391796875,116.44569970703125,57.847391796875,116.50869970703125,57.599991796875C116.57169970703124,57.352491796875,116.63769970703125,57.059991796874996,116.65669970703125,56.950091796875C116.81469970703125,56.000391796875,116.89869970703126,55.583491796874995,116.94669970703124,55.505491796875C116.97769970703125,55.454991796875,116.96269970703125,55.388991796875004,116.91169970703125,55.357391796875C116.85769970703124,55.323691796874996,116.86069970703124,55.129791796875,116.91969970703126,54.875591796875C117.00969970703125,54.486491796875,116.96169970703124,51.527091796875,116.85569970703125,50.899791796875C116.66669970703126,49.789291796875,116.35869970703125,48.411091796875,116.22969970703124,48.099991796875C116.19869970703125,48.026191796875,116.17069970703125,47.951091796875005,116.14569970703126,47.874991796875C116.13669970703126,47.839891796875,116.12369970703125,47.806291796875,116.10469970703124,47.774991796875C116.09369970703125,47.761091796875,116.06669970703125,47.654791796875,116.04569970703125,47.538591796875C116.02369970703126,47.422291796875,115.95169970703125,47.197291796875,115.88769970703125,47.038591796875C115.82269970703125,46.879691796875,115.75369970703125,46.668891796875,115.73469970703125,46.569691796875C115.71569970703125,46.470491796874995,115.63169970703125,46.257091796875,115.54769970703126,46.095591796875C115.46469970703124,45.934191796875,115.39069970703125,45.767791796875,115.38369970703125,45.725891796875004C115.35769970703124,45.565491796875,114.44469970703125,43.819791796875,114.06369970703125,43.200091796875C112.63379970703124,40.877091796875,110.34409970703125,38.510441796875,107.99849970703124,36.931551796875C107.28959970703124,36.454371796875,105.03859970703125,35.211331796875,104.87399970703125,35.206201796875C104.83209970703125,35.204891796875,104.66389970703125,35.134681796875,104.49989970703125,35.049891796875C104.33609970703125,34.965191796875,104.17959970703124,34.895391796875,104.15219970703124,34.894981796875C104.12499970703125,34.894381796875,103.90889970703125,34.810991796875,103.67229970703124,34.709501796875C103.43569970703125,34.608011796875,103.08619970703126,34.488321796875,102.89589970703125,34.443251796875C102.46279970703125,34.340551796875,102.47949970703125,34.345681796875,102.29999970703125,34.267431796875C102.21749970703125,34.231621796875004,102.03749970703124,34.182631796875,101.89989970703125,34.158491796875C101.76239970703125,34.134551796875,101.64979970703125,34.105691796875,101.64979970703125,34.094621796875C101.64979970703125,34.083561796875,101.55999970703125,34.060831796875,101.45009970703126,34.044331796875C101.29869970703125,34.018841796875,101.14849970703125,33.986721796875,100.99999970703125,33.948071796875C100.86749970703124,33.912731796875,100.73349970703126,33.883761796875,100.59819970703126,33.861261796875C100.49879970703125,33.844041796875,100.40319970703125,33.809671796875,100.31559970703125,33.759671796875C100.24349970703125,33.715011796875,99.95169970703125,33.665831796875,99.66709970703126,33.650441796875C99.38279970703125,33.634741796875,99.02779970703125,33.573991796875,98.87839970703125,33.514641796875C98.72929970703125,33.455701796875,98.58329970703124,33.446251796875,98.55419970703124,33.493321796875C98.52479970703125,33.540491796875,98.33219970703125,33.542301796875,98.12549970703125,33.497441796875C97.75959970703126,33.418181796875,94.59879970703125,33.446451796875,93.89989970703125,33.535261796875C93.70759970703125,33.559811796875,93.32479970703125,33.606681796875,93.04989970703124,33.639571796875C92.77479970703125,33.672261796875,92.43759970703125,33.728091796875,92.30009970703125,33.764001796875C91.99869970703125,33.842251796875,91.86609970703125,33.867701796875,91.36399970703125,33.945251796875C91.15179970703124,33.977741796875,90.89899970703125,34.046951796875,90.80209970703125,34.098751796875C90.70539970703125,34.150451796875004,90.60519970703125,34.171871796875,90.57939970703126,34.146021796875C90.53799970703125,34.104681796875,90.14809970703125,34.205571796875,89.69999970703125,34.373751796875C89.51929970703125,34.441741796875,89.31839970703125,34.492441796875,89.04979970703126,34.538511796875C88.93989970703124,34.557621796875,88.72329970703125,34.624011796875,88.56829970703124,34.686371796875C88.41359970703125,34.748931796875,88.26609970703124,34.799931796875,88.24029970703126,34.799931796875C88.21459970703125,34.799931796875,88.02629970703126,34.874061796875,87.82189970703125,34.964691796875C87.61719970703125,35.055121796875,87.39589970703125,35.140821796875,87.32979970703126,35.155001796875C87.26379970703125,35.169081796875,86.95459970703125,35.297631796875,86.64279970703124,35.440261796875C86.33099970703125,35.583191796875,86.03689970703125,35.699771796875,85.98949970703126,35.699771796875C85.94179970703125,35.699771796875,85.67969970703125,35.837371796875,85.40699970703125,36.005251796875L84.91079970703125,36.310431796875L83.98039970703125,35.724821796875C82.60439970703125,34.859081796875,80.06569970703126,33.457311796875,79.97559970703125,33.513641796875C79.96149970703125,33.522391796875,79.74749970703125,33.426131796875,79.49999970703125,33.299991796875C79.25259970703125,33.173761796875,79.03829970703126,33.078001796875,79.02379970703124,33.087251796875C79.00979970703125,33.096511796875,78.86339970703125,33.034451796875,78.69889970703125,32.949451796875C78.53459970703125,32.864261796875,78.39989970703125,32.819491796875,78.39989970703125,32.849571796875C78.39989970703125,32.879951796875,78.28739970703126,32.830761796875,78.14989970703125,32.740641796874996C78.01239970703125,32.650511796875,77.89989970703125,32.605751796875,77.89989970703125,32.640751796875C77.89989970703125,32.675761796875,77.78989970703125,32.632511796875,77.65529970703125,32.544191796875C77.52049970703125,32.456081796875,77.38539970703124,32.387881796875,77.35469970703124,32.393011796875C77.32409970703125,32.398141796875,77.13859970703125,32.335371796875,76.94269970703125,32.253501796875C76.74679970703124,32.171621796875,76.55579970703124,32.110261796875,76.51809970703124,32.117711796875C76.48049970703124,32.124951796875,76.27319970703125,32.052331796875,76.05739970703125,31.956571796875C75.84139970703126,31.860811796875,75.56949970703124,31.772491796875,75.45309970703124,31.760121796875C75.33679970703125,31.747451796875,75.18709970703125,31.703791796875,75.12069970703125,31.662761796875C75.05429970703125,31.621721796875,74.99999970703125,31.618701796875,74.99999970703125,31.656321796874998C74.99999970703125,31.693641796875,74.92729970703125,31.664061796875,74.83839970703124,31.590431796875C74.74959970703125,31.516811796875,74.58089970703125,31.454641796875,74.46359970703125,31.452431796875C74.34609970703124,31.450421796875,74.19369970703124,31.412501796875,74.12489970703125,31.368441796875C74.05619970703125,31.324181796875,73.95799970703125,31.314131796875,73.90679970703124,31.345811796875C73.85539970703125,31.377291796875,73.78829970703126,31.361381796875,73.75639970703125,31.310201796875C73.70779970703126,31.231441796875,73.08019970703126,31.069499796875,72.74989970703125,31.050389796875C72.69509970703125,31.047372796875,72.58659970703124,31.005126796875,72.50939970703125,30.956744796875C72.43209970703126,30.908463796875,72.17759970703125,30.858572796875,71.94359970703124,30.845999796875C71.70979970703125,30.833627796875,71.46009970703125,30.787056796875,71.38869970703125,30.742999796875C71.31709970703125,30.698942796875,71.07169970703126,30.654885796875,70.84309970703126,30.645631796875C70.61409970703124,30.636075796875,70.37329970703125,30.595137796875,70.30739970703125,30.554701796875C70.24179970703125,30.514063796875,69.90929970703125,30.467192796875,69.56899970703125,30.450695796875C69.22859970703125,30.433998796875,68.81889970703125,30.369321796875,68.65859970703124,30.306556796875C68.48659970703125,30.239263796875,68.33069970703124,30.229306096875,68.27759970703124,30.282315796875C68.22789970703124,30.332005796875,68.00149970703126,30.337134796875,67.76909970703124,30.293883796875C67.20019970703126,30.187766196875,66.11689970703125,30.149744096875,66.03399970703126,30.232525796875C65.92759970703125,30.338945796875,64.95089970703125,30.310982796875,64.83819970703125,30.198327296875C64.78229970703126,30.142200496875,64.71689970703125,30.116450796875,64.69269970703125,30.140736256875ZM68.85009970703125,32.752811796875C82.26589970703125,34.311731796875,93.95169970703125,44.385091796875,98.03249970703125,57.908291796875005C101.49199970703125,69.372091796875,99.75799970703125,83.64559179687501,93.89989970703125,91.923491796875C92.60269970703125,93.756591796875,88.50839970703124,97.565591796875,88.42059970703124,97.020691796875C88.40429970703126,96.920291796875,88.70689970703125,94.365591796875,89.09309970703124,91.344091796875C90.58429970703125,79.67499179687499,90.84519970703126,76.231691796875,90.92069970703125,67.22689179687501L90.94999970703125,63.704091796875L90.59539970703125,63.348991796875C90.14549970703125,62.898891796875,89.67819970703125,62.810291796875,89.23039970703125,63.090491796875C88.57429970703124,63.501191796875,88.55369970703126,63.590791796875,88.51449970703125,66.220591796875C88.49499970703125,67.529291796875,88.43939970703126,68.599891796875,88.39069970703125,68.599891796875C88.34169970703125,68.599891796875,87.68359970703125,68.369691796875,86.92759970703125,68.087991796875C80.87369970703125,65.83309179687501,75.88959970703125,62.712991796875,71.48869970703126,58.423491796875C69.74489970703125,56.723791796875,69.84609970703124,56.635691796875,69.86199970703126,59.841091796875C69.87849970703125,63.079291796875,70.19649970703125,65.437291796875,71.08409970703124,68.900591796875C71.43669970703125,70.276391796875,71.51409970703125,70.169091796875,70.43939970703124,69.79489179687499C67.06429970703125,68.620291796875,63.66889970703125,66.177091796875,61.26229970703125,63.191691796875C60.24319970703125,61.927291796875,57.84039970703125,58.259191796875,57.73399970703125,57.805491796875C57.70139970703125,57.664891796875,57.43689970703125,56.987391796875,57.14659970703125,56.299891796875C56.85639970703125,55.612391796875,56.35999970703125,54.284991796875005,56.04359970703125,53.349891796875C55.17789970703125,50.791991796874996,55.27009970703125,50.792591796875,54.15069970703125,53.338191796875C52.11899970703125,57.958491796874995,47.64799970703125,64.07309179687499,43.80179970703125,67.491391796875L43.12379970703125,68.093891796875L43.06199970703125,67.784391796875C43.02799970703125,67.61419179687499,42.99989970703125,67.254191796875,42.99989970703125,66.984391796875C42.99989970703125,65.613191796875,41.84629970703125,64.844791796875,40.99649970703125,65.649991796875C40.54289970703125,66.07999179687499,40.50759970703125,66.241391796875,40.603299707031255,67.45839179687499C40.65069970703125,68.058891796875,40.73869970703125,69.292591796875,40.79899970703125,70.199991796875C41.299099707031246,77.71949179687499,42.51369970703125,89.502391796875,43.57899970703125,97.166691796875L43.66479970703125,97.783391796875L43.10719970703125,97.428791796875C33.32429970703125,91.202991796875,27.97109970703125,74.414191796875,31.41239970703125,60.750091796875C35.731699707031254,43.598391796875,52.73799970703125,30.880546796875,68.85009970703125,32.752811796875ZM36.77789970703125,35.500051796875C38.77589970703125,35.655361796875,41.476999707031254,36.357051796875,43.650099707031245,37.285351796875C44.52019970703125,37.656921796875,44.52429970703125,37.623721796875,43.49989970703125,38.446621796875C36.49589970703125,44.074091796875,31.25629970703125,51.824291796875,29.401599707031252,59.300091796875C29.33999970703125,59.547491796875,29.22909970703125,59.908191796875,29.154899707031248,60.101891796875C29.026899707031248,60.436091796875004,28.62549970703125,62.470391796875,28.40069970703125,63.923391796875C28.21959970703125,65.094591796875,28.00259970703125,68.003191796875,28.00129970703125,69.275091796875C28.00049970703125,69.94869179687501,27.97299970703125,70.49999179687501,27.939999707031248,70.49999179687501C27.90679970703125,70.49999179687501,27.311699707031252,70.22809179687499,26.61729970703125,69.89589179687499C20.659679707031252,67.046091796875,16.86778970703125,61.484591796875,16.29253970703125,54.753091796875C16.18460970703125,53.491591796875,16.19415970703125,53.283291796875005,16.49491970703125,50.299891796875C17.11311970703125,44.167791796875,21.12477970703125,39.500051796875,28.20009970703125,36.680731796875C30.62359970703125,35.714801796875,33.842999707031254,35.271721796875,36.77789970703125,35.500051796875ZM99.23449970703125,35.641881796875C99.72089970703125,35.734421796875,100.66599970703125,35.972611796875,101.33439970703125,36.170861796875C102.00289970703125,36.369421796875,102.74499970703125,36.551981796875,102.98369970703125,36.576731796875C103.87289970703125,36.668661796875,108.02989970703125,39.008791796875,107.84249970703125,39.311861796875C107.80799970703124,39.367991796875,108.29959970703125,39.907731796875,108.93509970703126,40.511291796875C112.78549970703125,44.167291796875,114.78569970703126,48.790991796875005,114.69269970703125,53.818391796875005C114.67969970703125,54.477591796875004,114.71469970703124,54.847591796875,114.79869970703125,54.948591796875C115.16069970703126,55.385291796874995,114.09969970703125,59.470291796875,113.39169970703125,60.360391796875C113.23119970703125,60.562291796875,113.09999970703124,60.788891796875,113.09999970703124,60.863791796875C113.09999970703124,60.938791796875,113.10039970703124,61.022691796875,113.10099970703125,61.050491796875C113.10399970703125,61.205791796875005,112.33999970703125,62.574891796875,111.99959970703125,63.023991796875C111.78049970703125,63.313191796875,111.60069970703125,63.600791796875,111.60039970703124,63.662791796875C111.59859970703125,64.104391796875,108.68599970703124,67.098891796875,107.32699970703125,68.056591796875C106.95469970703125,68.318691796875,106.56529970703124,68.620491796875,106.46149970703125,68.726791796875C106.35799970703125,68.833191796875,105.99799970703125,69.053291796875,105.66149970703125,69.215891796875C105.21999970703125,69.433091796875,104.78339970703125,69.66039179687499,104.35209970703124,69.897391796875C103.96819970703125,70.109691796875,103.62519970703126,70.26539179687501,103.58969970703124,70.24349179687499C103.55399970703125,70.221591796875,103.25049970703125,70.31539179687499,102.91439970703125,70.451891796875C102.57869970703125,70.588391796875,102.28779970703125,70.700091796875,102.26769970703126,70.700091796875C102.24779970703125,70.700091796875,102.20099970703124,69.878591796875,102.16359970703125,68.874891796875C101.69779970703125,56.335691796875,96.49799970703125,45.508091796875,87.46669970703125,38.270601796875L86.58359970703125,37.562681796875L86.94839970703126,37.375491796875C90.16719970703124,35.724371796875,95.62019970703125,34.954691796875,99.23449970703125,35.641881796875ZM55.86819970703125,58.920191796875C55.95779970703125,59.019091796875,55.99769970703125,59.099891796875,55.95669970703125,59.099891796875C55.84809970703125,59.099891796875,56.68439970703125,60.618991796875,56.90869970703125,60.828791796874995C57.01409970703125,60.927191796875,57.10009970703125,61.075191796875,57.10009970703125,61.157691796875C57.10009970703125,61.343791796874996,58.11149970703125,62.866391796875,58.98859970703125,63.999891796875C62.22439970703125,68.182991796875,66.65199970703125,71.254891796875,71.10009970703125,72.403191796875C72.30209970703126,72.713391796875,74.49469970703126,73.08939179687499,74.55289970703126,72.99519179687499C74.57999970703125,72.951591796875,74.33219970703125,71.96059179687501,74.00269970703124,70.792991796875C73.10649970703125,67.618091796875,72.29999970703125,63.741691796875,72.29999970703125,62.608891796875L72.29999970703125,62.293691796875L73.22499970703126,63.034291796875C77.21029970703125,66.22599179687501,82.31089970703125,68.98969179687501,87.36719970703125,70.697491796875C88.00139970703125,70.911391796875,88.53159970703125,71.10099179687501,88.54539970703125,71.11849179687499C88.62549970703125,71.218391796875,88.32329970703125,76.85869179687501,88.09639970703125,79.499891796875C87.88809970703124,81.92759179687499,87.28399970703126,87.44089179687501,87.10479970703125,88.54999179687499C87.05169970703125,88.880091796875,86.90519970703124,89.979891796875,86.77929970703126,90.994191796875L86.55059970703125,92.838391796875L85.80019970703125,93.326091796875C76.82899970703124,99.157691796875,58.90929970703125,99.570191796875,48.18509970703125,94.192391796875C47.03259970703125,93.61419179687499,45.578199707031246,92.764991796875,45.426899707031254,92.58169179687499C45.19169970703125,92.296791796875,44.00389970703125,81.33249179687499,43.54939970703125,75.250091796875C43.47259970703125,74.216391796875,43.391799707031254,73.183091796875,43.30699970703125,72.149991796875L43.22149970703125,71.14989179687501L44.18569970703125,70.26149179687499C48.15489970703125,66.604191796875,51.86819970703125,62.174191796875,54.16119970703125,58.361691796875L54.93579970703125,57.073391796875L55.32079970703125,57.906991796875005C55.53239970703125,58.365291796875,55.77889970703125,58.821291796875,55.86819970703125,58.920191796875ZM25.20899970703125,71.304391796875C25.72299970703125,71.566891796875,25.75749970703125,71.676791796875,25.509899707031252,72.265091796875C25.39799970703125,72.53199179687499,24.740299707031248,74.234991796875,24.04859970703125,76.049891796875C22.264429707031248,80.731591796875,21.88440970703125,81.697891796875,21.80786970703125,81.745091796875C21.67146970703125,81.82959179687501,17.44997970703125,80.23369179687501,17.44997970703125,80.098091796875C17.44997970703125,79.909391796875,24.52069970703125,71.11509179687499,24.67909970703125,71.106691796875C24.74979970703125,71.10309179687499,24.98829970703125,71.191891796875,25.20899970703125,71.304391796875ZM109.74029970703126,74.92979179687501C111.83759970703125,77.078091796875,113.39139970703125,78.74569179687501,113.34019970703125,78.793591796875C113.14189970703126,78.977591796875,109.16659970703125,80.791191796875,109.07899970703124,80.73719179687501C108.96909970703125,80.66899179687499,104.58289970703125,71.783591796875,104.63419970703124,71.73239179687499C104.73779970703124,71.62879179687499,105.86509970703125,71.112291796875,105.94979970703125,71.12959179687499C106.00499970703125,71.140891796875,107.71069970703125,72.850891796875,109.74029970703126,74.92979179687501ZM28.20009970703125,73.008391796875C28.20009970703125,75.160791796875,29.33049970703125,80.51569179687499,30.44649970703125,83.650091796875L30.90949970703125,84.949891796875L30.84149970703125,86.599891796875C30.75369970703125,88.729191796875,30.75009970703125,88.738691796875,30.07389970703125,88.648391796875C27.250999707031248,88.271191796875,22.25336970703125,87.493391796875,22.179939707031252,87.419791796875C22.122609707031252,87.362691796875,22.32317970703125,86.717591796875,22.70268970703125,85.73829179687499C23.273049707031248,84.260391796875,23.839659707031252,82.780891796875,24.40249970703125,81.300091796875C26.82729970703125,74.923891796875,27.70799970703125,72.660891796875,27.81439970703125,72.53249179687501C27.99459970703125,72.315591796875,28.20009970703125,72.568991796875,28.20009970703125,73.008391796875ZM105.96149970703125,79.499891796875C108.46669970703125,84.530391796875,109.34319970703125,86.37959179687499,109.26129970703126,86.460891796875C109.07489970703125,86.646491796875,101.09339970703125,88.533491796875,100.97909970703125,88.419091796875C100.92379970703125,88.363791796875,100.72829970703125,87.343891796875,100.54469970703126,86.152091796875L100.21079970703126,83.98579179687499L100.50529970703126,82.867991796875C101.10069970703125,80.609191796875,101.66899970703125,77.178291796875,101.89989970703125,74.450091796875C102.13549970703124,71.66699179687501,101.93829970703125,71.421791796875,105.96149970703125,79.499891796875ZM49.61769970703125,74.114291796875C48.31009970703125,74.761391796875,47.44129970703125,77.224091796875,47.70409970703125,79.538291796875C48.36309970703125,85.336091796875,53.34599970703125,84.595791796875,53.34599970703125,78.700091796875C53.34599970703125,75.278991796875,51.60079970703125,73.132391796875,49.61769970703125,74.114291796875ZM80.29259970703124,74.092191796875C77.58649970703125,75.565291796875,77.70519970703126,82.307091796875,80.45609970703126,83.357791796875C83.41789970703125,84.488691796875,85.32009970703125,78.546891796875,83.09699970703124,75.107691796875C82.39589970703125,74.02259179687499,81.20949970703126,73.593091796875,80.29259970703124,74.092191796875Z" fill="#551915" fill-opacity="1"/></g><g><path d="M33.43250595703125,35.5068415625C31.52620595703125,35.6535965625,29.345005957031248,36.1801645625,27.69120595703125,36.8932215625C26.59850595703125,37.3644615625,26.38210595703125,37.5292215625,27.117905957031248,37.3309715625C31.94230595703125,36.0292865625,33.68300595703125,43.2353615625,31.06550595703125,53.6750015625C30.69500595703125,55.1528015625,30.71590595703125,55.327101562500005,31.143605957031248,54.3250015625C33.65240595703125,48.443701562499996,37.98170595703125,42.8805915625,43.499905957031245,38.4466715625C44.524305957031245,37.623771562499996,44.52020595703125,37.6569715625,43.65010595703125,37.2854015625C40.19060595703125,35.8075945625,36.920305957031246,35.2384785625,33.43250595703125,35.5068415625ZM92.43350595703124,35.6474625625C90.61810595703125,35.9919695625,88.09740595703126,36.7860915625,86.94850595703124,37.3755315625L86.58360595703125,37.5626215625L87.46680595703126,38.2705415625C96.49810595703126,45.5081015625,101.69770595703125,56.335801562499995,102.16360595703125,68.8749015625C102.20100595703126,69.8788015625,102.24790595703125,70.70010156250001,102.26770595703125,70.70010156250001C102.28780595703125,70.70010156250001,102.58080595703125,70.5876015625,102.91920595703125,70.45010156250001C103.25770595703125,70.31260156249999,103.60540595703125,70.1990015625,103.69220595703125,70.1977015625C103.77890595703126,70.1964015625,104.07500595703125,70.0625015625,104.35000595703124,69.9003015625C104.62500595703125,69.73810156249999,105.17280595703124,69.4469015625,105.56730595703125,69.25320156250001C105.96200595703125,69.0596015625,106.36340595703125,68.8222015625,106.45950595703125,68.7257015625C106.55550595703124,68.6291015625,106.90780595703124,68.35970156249999,107.24200595703125,68.1272015625C108.47720595703125,67.2679015625,111.49820595703125,64.2214015625,111.50050595703125,63.8329015625C111.50050595703125,63.787301562500005,111.70070595703125,63.4575015625,111.94500595703126,63.1000015625C112.54990595703126,62.2147015625,112.79600595703126,61.756201562499996,113.04470595703125,61.0500015625L113.25620595703126,60.4500015625L111.30310595703125,60.4500015625C98.85940595703126,60.4500015625,92.82410595703125,46.0842015625,101.69160595703126,37.5727815625L102.70720595703125,36.5979015625L102.42860595703125,36.4907815625C99.76940595703125,35.4669136625,95.34860595703125,35.0940415625,92.43350595703124,35.6474625625ZM106.88540595703125,39.8557815625C100.00830595703125,43.9267915625,101.73720595703125,53.8630015625,109.59950595703125,55.4559015625C110.98370595703125,55.736501562499996,113.22170595703125,55.5676015625,114.40800595703125,55.0930015625C114.66080595703124,54.9918015625,114.66680595703124,54.9676015625,114.68920595703125,53.9199015625C114.77820595703125,49.7422015625,113.38160595703125,45.6887015625,110.71200595703125,42.3792815625C110.14790595703126,41.6796015625,107.84530595703124,39.3979115625,107.70730595703125,39.4015315625C107.67590595703125,39.4022315625,107.30590595703126,39.6067315625,106.88540595703125,39.8557815625ZM24.750105957031252,41.5400915625C23.249165957031252,42.014151562500004,21.39898595703125,43.7534815625,19.71175595703125,46.277001562500004C18.88322595703125,47.5166015625,18.88604595703125,47.4098015625,19.66991595703125,47.873501562499996C21.98861595703125,49.245501562499996,24.39946595703125,50.1578015625,26.21470595703125,50.3507015625L26.87940595703125,50.4212015625L26.93880595703125,50.1357015625C28.143505957031252,44.3409015625,27.230505957031248,40.7567215625,24.750105957031252,41.5400915625ZM16.46091995703125,50.819801562500004C15.20017595703125,57.1245015625,18.54666595703125,64.7429015625,24.25230595703125,68.55540156250001C25.14852595703125,69.1543015625,27.70050595703125,70.50010156249999,27.94000595703125,70.50010156249999C27.973005957031248,70.50010156249999,28.00000595703125,69.9626015625,28.00000595703125,69.3060015625C28.00000595703125,67.1330015625,28.349505957031248,63.8774015625,28.85950595703125,61.300101562500004C28.96010595703125,60.7912015625,28.86830595703125,60.9378015625,28.45220595703125,61.9500015625C27.96210595703125,63.1414015625,27.300905957031247,64.4061015625,27.134305957031252,64.4699015625C26.96660595703125,64.5342015625,22.953745957031252,62.9352015625,22.79099595703125,62.7393015625C22.69573595703125,62.6244015625,22.76343595703125,62.400901562499996,23.12916595703125,61.6228015625C24.45649595703125,58.7987015625,25.97604595703125,54.5999015625,25.67096595703125,54.5999015625C24.26055595703125,54.5999015625,18.89016595703125,52.3071015625,17.08696495703125,50.9349015625L16.52368395703125,50.5064015625L16.46091995703125,50.819801562500004ZM54.15430595703125,58.3730015625C51.86980595703125,62.1720015625,48.16760595703125,66.58790156250001,44.187405957031245,70.2616015625L43.22470595703125,71.1500015625L43.31320595703125,72.2500015625C43.78780595703125,78.1596015625,43.950505957031254,80.05400156249999,44.20190595703125,82.6000015625C44.36200595703125,84.22240156250001,44.53850595703125,85.7750015625,44.594105957031246,86.0500015625C44.64940595703125,86.3250015625,44.76480595703125,87.3150015625,44.85030595703125,88.2500015625C45.255305957031254,92.68240156249999,45.20450595703125,92.5178015625,46.37780595703125,93.2108015625C57.08070595703125,99.5324015625,76.16660595703125,99.5879015625,85.80120595703124,93.3256015625L86.55240595703125,92.83740156249999L86.77690595703125,90.99370156250001C87.02770595703124,88.9283015625,87.28540595703124,86.8637015625,87.55020595703125,84.8001015625C88.01680595703125,81.2100015625,88.73370595703125,71.3540015625,88.54540595703125,71.1186015625C88.53150595703126,71.10110156249999,88.00130595703125,70.9115015625,87.36720595703125,70.69750156250001C82.31090595703125,68.98980156249999,77.21020595703125,66.22610156249999,73.22500595703124,63.034301562500005L72.30000595703126,62.2938015625L72.30000595703126,62.6089015625C72.30000595703126,63.7417015625,73.10650595703126,67.6181015625,74.00260595703125,70.7931015625C74.33220595703125,71.9606015625,74.58000595703125,72.9517015625,74.55280595703124,72.9952015625C74.49470595703124,73.0895015625,72.30210595703124,72.7136015625,71.10010595703125,72.40330156249999C66.65200595703125,71.2550015625,62.22440595703125,68.1831015625,58.98860595703125,63.9999015625C58.23260595703125,63.0225015625,57.08720595703125,61.332801562499995,57.06120595703125,61.156701562500004C57.05170595703125,61.0910015625,56.93890595703125,60.9051015625,56.81070595703125,60.7437015625C56.68240595703125,60.5822015625,56.20520595703125,59.6953015625,55.74980595703125,58.7732015625L54.92220595703125,57.0964015625L54.15430595703125,58.3730015625ZM51.36740595703125,74.0085015625C52.09580595703125,74.36100156250001,53.04340595703125,75.6608015625,53.12510595703125,76.4192015625C53.13870595703125,76.5461015625,53.18120595703125,76.6736015625,53.21900595703125,76.7024015625C53.54970595703125,76.9522015625,53.54140595703125,80.6997015625,53.21030595703125,80.70010156250001C53.17710595703125,80.70010156250001,53.14410595703125,80.8042015625,53.13670595703125,80.9314015625C53.09870595703125,81.59390156250001,51.71040595703125,83.5419015625,51.40880595703125,83.3555015625C51.35830595703125,83.3243015625,51.30040595703125,83.3484015625,51.28040595703125,83.40930156249999C51.25990595703125,83.4700015625,51.03050595703125,83.54370156249999,50.77040595703125,83.5730015625C49.56230595703125,83.7092015625,48.41930595703125,82.6236015625,47.85100595703125,80.8001015625C47.65580595703125,80.1743015625,47.54320595703125,77.54680156250001,47.70720595703125,77.4455015625C47.75990595703125,77.4134015625,47.776705957031254,77.3447015625,47.74490595703125,77.2918015625C47.71290595703125,77.23980156249999,47.76110595703125,76.9411015625,47.85200595703125,76.6280015625C48.48070595703125,74.4656015625,49.98920595703125,73.3413015625,51.36740595703125,74.0085015625ZM81.87830595703124,73.9549015625C83.90840595703125,74.8008015625,84.78060595703126,78.8397015625,83.53320595703126,81.6192015625C83.39010595703125,81.9387015625,83.23120595703125,82.2000015625,83.18050595703124,82.2000015625C83.12970595703125,82.2000015625,83.11150595703126,82.2374015625,83.13950595703125,82.2832015625C83.22110595703126,82.41500156250001,82.28800595703125,83.2751015625,81.87820595703126,83.44530156249999C81.45540595703125,83.6212015625,80.84260595703125,83.6501015625,80.74890595703125,83.49840156249999C80.71440595703125,83.4425015625,80.64360595703126,83.4232015625,80.59130595703125,83.4554015625C80.11720595703125,83.7485015625,78.81220595703125,82.02110156250001,78.46540595703125,80.6420015625C78.24260595703126,79.75610156249999,78.16950595703125,77.6580015625,78.34720595703125,77.2448015625C78.39300595703125,77.1377015625,78.42110595703124,76.9712015625,78.40900595703124,76.8749015625C78.39710595703124,76.7787015625,78.42390595703125,76.70010156250001,78.46870595703125,76.6999015625C78.51350595703124,76.6999015625,78.55670595703126,76.58140156249999,78.56530595703126,76.4370015625C78.57350595703124,76.2922015625,78.61860595703125,76.1460015625,78.66520595703125,76.1121015625C78.71180595703126,76.07800156249999,78.76410595703125,75.96720156250001,78.78140595703124,75.8661015625C79.00330595703124,74.5683015625,80.75510595703125,73.4871015625,81.87830595703124,73.9549015625Z" fill="#FFFFFF" fill-opacity="1"/></g><g><path d="M64.0000875,32.561650096875C49.123487499999996,33.589339296874996,35.2247375,45.611679296874996,31.4124375,60.749879296875C27.9711875,74.414179296875,33.3243675,91.202979296875,43.1072875,97.428679296875L43.6647875,97.783279296875L43.5789875,97.166679296875C42.5137875,89.502379296875,41.2990875,77.71937929687499,40.7989875,70.199879296875C40.7387875,69.292479296875,40.6507875,68.058779296875,40.6033875,67.458379296875C40.5075875,66.24137929687501,40.5427875,66.07987929687499,40.996587500000004,65.649879296875C41.8462875,64.844679296875,42.9998875,65.613079296875,42.9998875,66.984279296875C42.9998875,67.25417929687501,43.0279875,67.614179296875,43.0619875,67.784279296875L43.1237875,68.093879296875L43.8016875,67.491279296875C47.6480875,64.072979296875,52.1190875,57.958379296874995,54.150687500000004,53.338079296875C55.2699875,50.792479296875,55.1778875,50.791879296874995,56.0435875,53.349879296875C56.3600875,54.284879296875005,56.8564875,55.612379296875005,57.1467875,56.299879296875005C57.4368875,56.987379296875005,57.701387499999996,57.664779296875,57.7340875,57.805379296875C57.8403875,58.259079296875,60.243187500000005,61.927179296874996,61.2622875,63.191579296875C63.6688875,66.176979296875,67.0642875,68.620179296875,70.43938750000001,69.794879296875C71.5140875,70.168979296875,71.4366875,70.276379296875,71.08408750000001,68.900679296875C70.19658749999999,65.437179296875,69.8784875,63.079179296875,69.8619875,59.840879296875C69.84608750000001,56.635579296875,69.7448875,56.723679296875005,71.4886875,58.423379296875C75.8895875,62.712879296875,80.87378749999999,65.83297929687501,86.9275875,68.087879296875C87.6835875,68.369579296875,88.3418875,68.599879296875,88.3907875,68.599879296875C88.43938750000001,68.599879296875,88.4950875,67.529179296875,88.5145875,66.220479296875C88.5537875,63.590679296874995,88.5742875,63.501079296875005,89.2303875,63.090279296874996C89.67828750000001,62.810179296875,90.1455875,62.898779296875,90.5953875,63.348779296875L90.9500875,63.703979296875005L90.9206875,67.22677929687501C90.8452875,76.231679296875,90.5842875,79.67487929687499,89.0930875,91.343979296875C88.7068875,94.365579296875,88.40428750000001,96.920179296875,88.42058750000001,97.020679296875C88.5083875,97.565479296875,92.6026875,93.756579296875,93.89998750000001,91.923379296875C99.7580875,83.64547929687501,101.4920875,69.371979296875,98.0324875,57.908179296875005C93.4330875,42.666179296875,78.51928749999999,31.558710296875,64.0000875,32.561650096875Z" fill="#FCB444" fill-opacity="1"/></g><g><path d="M23.788324111328123,72.1740596875C22.582544111328126,73.6808796875,21.373494111328124,75.1850496875,20.161194111328125,76.6865396875C18.636814111328125,78.5762496875,17.403132111328127,80.1326196875,17.419628337328124,80.1444896875C17.621806111328127,80.2886196875,21.750254111328125,81.68762968749999,21.802564111328124,81.6294296875C21.841684111328124,81.5857296875,22.303884111328124,80.4251196875,22.829644111328125,79.0501096875C24.420304111328125,74.8888696875,25.269454111328123,72.6776896875,25.490144111328124,72.1215476875L25.700064111328125,71.5928696875L25.224994111328126,71.3758026875C24.963874111328124,71.2563076875,24.726094111328123,71.1450582875,24.697124111328126,71.1283594365C24.667754111328126,71.1116605875,24.259064111328126,71.5823036875,23.788324111328123,72.1740596875ZM105.30766411132812,71.3817336875C105.00956411132813,71.5292906875,104.74866411132813,71.7007916875,104.72866411132813,71.7625526875C104.68936411132813,71.8815446875,109.05746411132813,80.7001096875,109.15526411132812,80.7001096875C109.30916411132813,80.7001096875,113.30256411132812,78.7596096875,113.27836411132813,78.6964396875C113.23816411132813,78.5930396875,105.99996411132813,71.1538067875,105.91796411132813,71.1316746475C105.88076411132812,71.1216185075,105.60596411132812,71.2342746875,105.30766411132812,71.3817336875ZM27.771864111328124,72.6751696875C27.743564111328126,72.7712296875,26.476684111328126,76.0872496875,24.956624111328125,80.0440996875C22.135194111328126,87.3881296875,22.099384111328124,87.4999296875,22.559564111328125,87.4999296875C22.705514111328124,87.4999296875,23.235804111328125,87.5669296875,23.737624111328124,87.6485296875C24.592004111328123,87.7876296875,30.011164111328124,88.5779296875,30.449864111328125,88.6275296875C30.640164111328126,88.6489296875,30.654864111328123,88.5616296875,30.750564111328124,86.8500296875L30.851364111328124,85.0500296875L30.515264111328126,84.1002296875C29.337464111328124,80.7681096875,28.591464111328126,77.5181796875,28.235364111328124,74.1681596875C28.068264111328126,72.5942996875,27.928164111328122,72.1433696875,27.771864111328124,72.6751696875ZM102.24016411132813,72.6766696875C102.17976411132813,72.7169096875,102.07586411132813,73.3799696875,102.00876411132812,74.1501596875C101.75426411132813,77.08635968749999,101.14706411132812,80.7415496875,100.53666411132812,83.0133296875L100.27516411132812,83.9866296875L100.59496411132812,86.0683296875C100.77056411132813,87.21332968749999,100.93466411132812,88.2222296875,100.95926411132812,88.31052968750001C100.99916411132813,88.4531296875,101.13536411132813,88.43932968749999,102.17736411132813,88.1848296875C102.82236411132813,88.0276296875,104.67766411132813,87.5769296875,106.30006411132813,87.1834296875C107.92256411132813,86.7902296875,109.26596411132813,86.4557296875,109.28586411132812,86.4401296875C109.33626411132812,86.4001296875,102.47646411132813,72.5997196875,102.40696411132812,72.6015296875C102.37556411132813,72.6025396875,102.30056411132813,72.6362296875,102.24016411132813,72.6766696875Z" fill="#55C5E9" fill-opacity="1"/></g><g><path d="M101.69054794921875,37.573787703125C93.74674794921874,45.198400703125,97.71194794921875,58.153120703125,108.65004794921875,60.311820703125C109.61464794921875,60.502320703125,113.20254794921875,60.505120703125,113.43074794921876,60.315820703125C114.00854794921875,59.836120703125005,115.23634794921875,54.863620703125,114.74994794921875,54.972220703125004C114.69504794921875,54.984620703125,114.44744794921876,55.067620703125,114.19994794921875,55.156320703125004C110.61604794921875,56.442820703125,106.13994794921875,54.978320703125,104.01244794921875,51.823120703125C101.22844794921875,47.693720703125,102.56194794921875,42.356040703125004,107.02054794921875,39.782950703125C107.50284794921875,39.504530703125,107.87344794921874,39.237980703125,107.84434794921874,39.190910703125C107.70424794921875,38.964290703125,105.71394794921875,37.747500703125,104.60004794921875,37.207051703125C102.89854794921875,36.382046703125,102.93734794921875,36.377217703125,101.69054794921875,37.573787703125ZM27.05004794921875,37.344350703125C21.80091794921875,38.843480703125,16.52548944921875,45.257350703125,16.50165063514875,50.169020703125C16.49662141921875,51.148320703125,23.639727949218752,54.599820703125005,25.67086794921875,54.599820703125005C25.97664794921875,54.599820703125005,24.45628794921875,58.799320703125005,23.12603794921875,61.629420703125C22.72359794921875,62.485620703125,22.68386794921875,62.627020703125,22.81089794921875,62.753920703125004C22.96358794921875,62.906620703125,26.84924794921875,64.500020703125,27.06874794921875,64.500020703125C27.40434794921875,64.500020703125,28.881647949218753,61.199620703125,29.39644794921875,59.300020703125C29.49324794921875,58.942420703124995,29.825347949218752,57.862520703125,30.13464794921875,56.899920703125005C33.95934794921875,44.994420703125,32.50674794921875,35.785673703125,27.05004794921875,37.344350703125ZM26.21653794921875,41.711290703125C27.566447949218748,42.389540703125,27.85314794921875,45.736240703125,26.93874794921875,50.135620703125L26.87944794921875,50.421220703125L26.214727949218748,50.350720703125C24.39935794921875,50.157820703125,21.98861794921875,49.245520703125,19.66990794921875,47.873520703124996C18.88603794921875,47.409820703125,18.88322794921875,47.516620703125,19.71184794921875,46.276980703125C22.17660794921875,42.590110703125,24.59197794921875,40.894730703125,26.21653794921875,41.711290703125Z" fill="#FA636E" fill-opacity="1"/></g><g><path d="M108.29855737304688,73.5250344140625C109.55135737304687,74.8022744140625,109.69985737304688,74.9452044140625,109.69985737304688,74.8735844140625C109.69985737304688,74.8592044140625,109.08125737304688,74.2404044140625,108.32505737304687,73.4985744140625L106.95005737304687,72.1500244140625L108.29855737304688,73.5250344140625ZM28.127157373046877,72.9999764140625C28.127157373046877,73.2474244140625,28.146857373046878,73.3487044140625,28.170457373046872,73.2247844140625C28.194357373046877,73.0758094140625,28.194357373046877,72.92395441406251,28.170457373046872,72.7749664140625C28.146857373046878,72.6511434140625,28.127157373046877,72.7525334140625,28.127157373046877,72.9999764140625ZM103.62185737304688,74.9452044140625C104.23855737304687,76.1799044140625,104.75845737304688,77.17489441406249,104.77745737304687,77.1557844140625C104.82125737304688,77.1120244140625,102.61585737304688,72.7000304140625,102.54985737304688,72.7000304140625C102.52285737304688,72.7000304140625,103.00515737304687,73.7102144140625,103.62185737304688,74.9452044140625ZM110.95005737304687,73.1999444140625C111.16485737304687,73.4200244140625,111.36305737304687,73.5999744140625,111.39065737304688,73.5999744140625C111.41815737304688,73.5999744140625,111.26465737304687,73.4200244140625,111.04995737304688,73.1998444140625C110.83515737304687,72.9799624140625,110.63695737304687,72.7999104140625,110.60935737304688,72.7999104140625C110.58185737304687,72.7999104140625,110.73535737304688,72.9799564140625,110.95005737304687,73.1999444140625ZM102.02705737304687,73.3000244140625C102.02705737304687,73.5474644140625,102.04665737304687,73.6486544140625,102.07065737304687,73.5250344140625C102.09435737304688,73.3759544140625,102.09435737304688,73.2240844140625,102.07065737304687,73.0750114140625C102.04665737304687,72.9510894140625,102.02715737304688,73.0525784140625,102.02705737304687,73.3000244140625ZM28.225257373046873,74.04989441406249C28.226257373046877,74.2700744140625,28.246657373046872,74.3483244140625,28.270657373046873,74.2237044140625C28.294557373046874,74.0992844140625,28.293757373046873,73.9193344140625,28.268657373046874,73.8237744140625C28.243557373046876,73.7282144140625,28.224057373046875,73.8299044140625,28.225257373046873,74.04989441406249ZM50.326357373046875,73.8716544140625C50.478557373046876,73.8945944140625,50.70335737304688,73.8940844140625,50.826357373046875,73.8703444140625C50.94935737304687,73.8466044140625,50.82515737304688,73.8279044140625,50.55015737304687,73.8287044140625C50.27505737304688,73.8292044140625,50.174357373046874,73.8488244140625,50.326357373046875,73.8716544140625ZM80.97495737304688,73.8706444140625C81.12405737304687,73.8943444140625,81.27595737304688,73.8943444140625,81.42505737304688,73.8706444140625C81.54865737304686,73.8467144140625,81.44745737304687,73.8270944140625,81.20005737304687,73.8270944140625C80.95265737304688,73.8270944140625,80.85145737304688,73.8467144140625,80.97495737304688,73.8706444140625ZM101.92515737304687,74.4500244140625C101.92615737304688,74.6699044140625,101.94685737304688,74.7481644140625,101.97075737304688,74.6238444140625C101.99465737304688,74.4994144140625,101.99365737304687,74.3194644140625,101.96875737304687,74.2237044140625C101.94365737304688,74.1281444140625,101.92415737304688,74.2298444140625,101.92515737304687,74.4500244140625ZM52.00005737304687,74.5499044140625C52.18645737304688,74.7425244140625,52.361857373046874,74.8999444140625,52.38915737304688,74.8999444140625C52.416657373046874,74.8999444140625,52.28665737304687,74.7425244140625,52.09995737304688,74.5499044140625C51.91355737304688,74.3575844140625,51.738157373046874,74.1999644140625,51.71085737304688,74.1999644140625C51.683357373046874,74.1999644140625,51.81335737304688,74.3575844140625,52.00005737304687,74.5499044140625ZM79.59455737304688,74.5749444140625L79.25005737304687,74.9501344140625L79.62485737304686,74.6053244140625C79.97415737304686,74.2846544140625,80.04595737304687,74.1999644140625,79.96965737304689,74.1999644140625C79.95295737304687,74.1999644140625,79.78405737304688,74.3686444140625,79.59455737304688,74.5749444140625ZM28.323157373046875,74.8998344140625C28.323157373046875,75.0924544140625,28.343757373046877,75.1713144140625,28.369057373046875,75.0749644140625C28.393957373046874,74.9596544140625,28.393957373046874,74.8403344140625,28.369057373046875,74.7250244140625C28.343857373046873,74.6287644140625,28.323157373046875,74.7075144140625,28.323157373046875,74.8998344140625ZM101.82735737304688,75.3999544140625C101.82735737304688,75.6473944140625,101.84665737304688,75.7485844140625,101.87055737304688,75.6249644140625C101.89455737304688,75.4758744140625,101.89455737304688,75.3239244140625,101.87055737304688,75.1748444140625C101.84665737304688,75.0513144140625,101.82735737304688,75.1525144140625,101.82735737304688,75.3999544140625ZM28.423157373046877,75.6998944140625C28.423157373046877,75.8925144140625,28.443757373046875,75.9712744140625,28.468857373046873,75.8750144140625C28.494157373046875,75.7597344140625,28.494157373046875,75.6403544140625,28.468857373046873,75.5250844140625C28.443757373046875,75.4288244140625,28.423157373046877,75.5075744140625,28.423157373046877,75.6998944140625ZM111.92495737304688,77.2513344140625C113.49935737304688,78.8558844140625,113.41925737304688,78.7157644140625,112.89905737304687,78.9503344140625C112.67845737304687,79.0499144140625,112.51665737304687,79.1498944140625,112.53935737304687,79.1726244140625C112.59805737304687,79.2312744140625,113.39995737304687,78.8113244140625,113.39995737304687,78.7217044140625C113.39995737304687,78.6807644140625,112.75875737304688,78.0179044140625,111.97495737304688,77.2485244140625L110.54995737304688,75.8500744140625L111.92495737304688,77.2513344140625ZM107.30545737304688,77.2261944140625C107.29635737304687,77.3536444140625,108.98615737304688,80.6794144140625,109.09345737304687,80.7458944140625C109.14855737304687,80.7798944140625,109.36385737304687,80.7180344140625,109.57195737304687,80.6083944140625C109.77995737304687,80.4987544140625,109.90505737304687,80.4082344140625,109.84995737304688,80.4078244140625C109.79495737304687,80.4075244140625,109.63755737304687,80.4713944140625,109.50005737304687,80.5499544140625C109.36255737304687,80.6284144140625,109.21655737304687,80.6943944140625,109.17565737304687,80.6964044140625C109.13465737304688,80.6982244140625,108.69825737304687,79.9012744140625,108.20585737304687,78.92489441406249C107.71355737304688,77.9487044140625,107.30825737304687,77.1841544140625,107.30545737304688,77.2261944140625ZM104.96965737304687,77.6486544140625C105.06105737304688,77.8404744140625,105.15375737304687,77.9795844140625,105.17535737304688,77.9579644140625C105.22085737304687,77.9123944140625,104.91765737304688,77.3000244140625,104.84915737304688,77.3000244140625C104.82385737304688,77.3000244140625,104.87815737304688,77.4569444140625,104.96965737304687,77.6486544140625ZM47.62335737304687,77.7998344140625C47.62335737304687,77.99245441406251,47.64365737304688,78.0712144140625,47.66895737304688,77.9748544140625C47.69415737304688,77.8596044140625,47.69415737304688,77.7402644140625,47.66895737304688,77.6250144140625C47.64365737304688,77.5286544140625,47.62335737304687,77.6075144140625,47.62335737304687,77.7998344140625ZM84.02335737304688,77.9000144140625C84.02335737304688,78.0923344140625,84.04385737304688,78.1711844140625,84.06885737304688,78.0748244140625C84.09415737304687,77.9595544140625,84.09415737304687,77.8401744140625,84.06885737304688,77.7248844140625C84.04385737304688,77.6286344140625,84.02335737304688,77.7073844140625,84.02335737304688,77.9000144140625ZM53.436157373046875,78.7000744140625C53.436157373046875,79.2225144140625,53.452857373046875,79.4362544140625,53.47345737304688,79.1748344140625C53.49405737304688,78.9138144140625,53.49405737304688,78.4863244140625,53.47345737304688,78.2250044140625C53.452857373046875,77.9635744140625,53.436157373046875,78.1776244140625,53.436157373046875,78.7000744140625ZM78.23435737304688,78.6497744140625C78.23465737304687,79.0899344140625,78.25215737304688,79.2575144140625,78.27335737304688,79.0224544140625C78.29445737304687,78.7870744140625,78.29415737304687,78.4270844140625,78.27285737304688,78.2223944140625C78.25115737304688,78.0173944140625,78.23385737304687,78.2100244140625,78.23435737304688,78.6497744140625ZM84.02535737304687,79.5501244140625C84.02635737304688,79.7700044140625,84.04675737304687,79.8482644140625,84.07055737304688,79.7238344140625C84.09465737304687,79.5995144140625,84.09385737304687,79.4194644140625,84.06855737304687,79.3237044140625C84.04365737304687,79.2281444140625,84.02405737304687,79.3299444140625,84.02535737304687,79.5501244140625ZM47.623257373046876,79.6000144140625C47.623257373046876,79.7923344140625,47.64365737304688,79.8711944140625,47.66895737304688,79.7748344140625C47.69415737304688,79.6595544140625,47.69415737304688,79.5401744140625,47.66895737304688,79.42489441406249C47.64365737304688,79.3286344140625,47.62335737304687,79.4073844140625,47.623257373046876,79.6000144140625ZM111.09995737304688,79.7998744140625C110.90755737304687,79.9054944140625,110.79505737304687,79.9916944140625,110.85015737304687,79.9916944140625C110.90495737304687,79.9916944140625,111.10765737304688,79.9053944140625,111.30005737304687,79.7998744140625C111.49265737304688,79.6944644140625,111.60505737304688,79.6082544140625,111.55005737304687,79.6082544140625C111.49495737304687,79.6082544140625,111.29255737304688,79.6944644140625,111.09995737304688,79.7998744140625ZM29.214157373046874,79.7998744140625C29.214157373046874,79.8824544140625,29.252757373046876,80.0400744140625,29.299957373046873,80.1500244140625C29.354257373046877,80.2759544140625,29.385957373046875,80.2944544140625,29.385957373046875,80.2000144140625C29.385957373046875,80.1173244140625,29.347357373046876,79.9600144140625,29.299957373046873,79.8499744140625C29.245857373046874,79.7238344140625,29.214157373046874,79.7053344140625,29.214157373046874,79.7998744140625ZM17.900145173046877,80.3830844140625C17.982525373046876,80.43407441406251,18.162473373046875,80.5058944140625,18.299974373046876,80.5427044140625C18.473786373046874,80.5889744140625,18.504163373046875,80.5813244140625,18.399956373046876,80.5167544140625C18.317476373046876,80.4657544140625,18.137527373046876,80.3941444140625,18.000026373046875,80.3573244140625C17.826214073046874,80.3107544140625,17.795837273046875,80.3187044140625,17.900145173046877,80.3830844140625ZM30.012057373046876,82.5999244140625C30.010357373046872,82.6825244140625,30.070857373046877,82.8849244140625,30.146257373046875,83.0500244140625C30.323257373046875,83.4362244140625,30.325857373046873,83.2565244140625,30.149857373046874,82.7999244140625C30.075957373046876,82.6073244140625,30.013957373046875,82.5175244140625,30.012057373046876,82.5999244140625ZM51.99465737304688,82.8749244140625L51.65015737304687,83.2500244140625L52.02505737304688,82.9052244140625C52.37395737304688,82.58472441406249,52.44605737304688,82.4999244140625,52.369557373046874,82.4999244140625C52.352857373046874,82.4999244140625,52.18415737304687,82.66862441406249,51.99465737304688,82.8749244140625ZM79.59995737304688,82.8499244140625C79.78665737304686,83.0425244140625,79.96175737304688,83.1999244140625,79.98925737304688,83.1999244140625C80.01685737304688,83.1999244140625,79.88665737304687,83.0425244140625,79.70015737304688,82.8498244140625C79.51345737304688,82.6575244140625,79.33835737304688,82.5000244140625,79.31075737304687,82.5000244140625C79.28325737304687,82.5000244140625,79.41345737304687,82.6575244140625,79.59995737304688,82.8499244140625ZM107.80005737304687,83.3345244140625C107.80005737304687,83.4435244140625,109.19615737304687,86.1999244140625,109.25125737304687,86.1999244140625C109.29615737304688,86.1999244140625,107.93315737304688,83.4100244140625,107.83865737304687,83.3083244140625C107.81735737304687,83.2853244140625,107.80005737304687,83.2972244140625,107.80005737304687,83.3345244140625ZM50.32625737304687,83.5716244140625C50.478557373046876,83.5946244140625,50.70335737304688,83.5941244140625,50.826357373046875,83.5704244140625C50.94935737304687,83.5468244140625,50.82515737304688,83.5279244140625,50.55015737304687,83.5284244140625C50.27505737304688,83.5292244140625,50.174357373046874,83.5488244140625,50.32625737304687,83.5716244140625ZM80.97495737304688,83.5704244140625C81.12405737304687,83.5944244140625,81.27595737304688,83.5944244140625,81.42505737304688,83.5704244140625C81.54865737304686,83.5467244140625,81.44755737304688,83.5272244140625,81.20005737304687,83.5272244140625C80.95265737304688,83.5272244140625,80.85145737304688,83.5467244140625,80.97495737304688,83.5704244140625ZM30.832057373046876,85.7998244140625C30.832057373046876,86.1575244140625,30.850257373046873,86.3038244140625,30.872357373046874,86.1250244140625C30.894557373046876,85.9461244140625,30.894557373046876,85.6536244140625,30.872357373046874,85.4748244140625C30.850257373046873,85.2961244140625,30.832057373046876,85.4424244140625,30.832057373046876,85.7998244140625ZM44.62525737304688,86.6498244140625C44.626257373046876,86.8700244140625,44.646957373046874,86.9483244140625,44.67085737304687,86.8239244140625C44.69485737304687,86.6993244140625,44.69375737304688,86.5193244140625,44.668857373046876,86.4237244140625C44.64405737304688,86.3282244140625,44.62425737304687,86.4299244140625,44.62525737304688,86.6498244140625ZM30.733657373046874,87.6000244140625C30.733657373046874,88.0125244140625,30.751157373046873,88.1812244140625,30.772857373046875,87.9749244140625C30.794457373046875,87.7687244140625,30.794457373046875,87.4311244140625,30.772857373046875,87.2248244140625C30.751157373046873,87.0186244140625,30.733557373046875,87.1875244140625,30.733657373046874,87.6000244140625ZM44.72305737304687,87.4998244140625C44.72305737304687,87.6924244140625,44.74365737304687,87.7712244140625,44.768957373046874,87.6749244140625C44.79415737304687,87.5597244140625,44.79415737304687,87.4403244140625,44.768957373046874,87.3250244140625C44.743757373046876,87.2287244140625,44.72305737304687,87.3075244140625,44.72305737304687,87.4998244140625ZM22.624957373046875,87.5688244140625C22.721317373046876,87.5941244140625,22.878837373046874,87.5941244140625,22.974997373046875,87.5688244140625C23.071257373046876,87.5437244140625,22.992397373046874,87.5230244140625,22.800077373046875,87.5230244140625C22.607457373046877,87.5230244140625,22.528697373046874,87.54362441406249,22.624957373046875,87.5688244140625ZM25.325087373046877,87.9687244140625C25.421147373046875,87.9939244140625,25.578767373046876,87.9939244140625,25.675127373046877,87.9687244140625C25.771387373046874,87.9438244140625,25.692527373046875,87.9232244140625,25.500007373046877,87.9232244140625C25.307587373046875,87.9232244140625,25.228827373046876,87.9438244140625,25.325087373046877,87.9687244140625Z" fill="#A2928D" fill-opacity="1"/></g></g></g></g></g></svg>