<svg xmlns="http://www.w3.org/2000/svg" xmlns:xlink="http://www.w3.org/1999/xlink" fill="none" version="1.1" width="120" height="120" viewBox="0 0 120 120"><g><g><rect x="0" y="0" width="120" height="120" rx="0" fill="#FFFFFF" fill-opacity="1"/></g><g><path d="M34.8639,74.15639999999999L34.8639,55.4413C34.8639,51.787,33.0372,48.3638,29.8247,46.53352L17,39L17,84.4323C17,85.5754,17.686588,86.7123,18.59994,87.1746L58,110L58,95.16409999999999C58,91.5098,56.167,88.0866,52.9608,86.25630000000001L36.4701,76.905C35.5505,76.2178,34.8639,75.3058,34.8639,74.15639999999999Z" fill="#008DD5" fill-opacity="1"/></g><g><path d="M84.53620000000001,76.7758L68.03918,86.33330000000001C64.833,88.1515,63,91.5635,63,95.206L63,110L102.40010000000001,87.2424C103.38730000000001,86.6805,103.9969,85.6413,104,84.5152L104,39L91.1753,46.28493C87.9691,48.10304,86.1361,51.515100000000004,86.1361,55.1576L86.1361,73.81819999999999C86.1361,75.188,85.4495,76.0909,84.53620000000001,76.7758Z" fill="#EE3306" fill-opacity="1"/></g><g><path d="M79.37,20.977719999999998L63.0804,11.344147C62.0737,10.885284,60.92,10.885284,59.9134,11.344147L21,34.2827L33.6683,41.6256C36.8416,43.4581,40.6807,43.4581,43.6238,41.6256L59.9133,31.9857C60.1436,31.7598,60.3676,31.7598,60.5978,31.7598C61.4234,31.4908,62.3219,31.5724,63.0866,31.9857L79.37,41.619299999999996C82.5433,43.4581,86.3886,43.4581,89.3255,41.619299999999996L102,34.276399999999995L79.37,20.977719999999998Z" fill="#5AB200" fill-opacity="1"/></g></g></svg>