<svg xmlns="http://www.w3.org/2000/svg" xmlns:xlink="http://www.w3.org/1999/xlink" fill="none" version="1.1" width="128" height="128" viewBox="0 0 128 128"><defs><clipPath id="master_svg0_43_547"><rect x="0" y="0" width="128" height="128" rx="0"/></clipPath><clipPath id="master_svg1_43_548"><rect x="0" y="0" width="132" height="128" rx="0"/></clipPath></defs><g><g clip-path="url(#master_svg0_43_547)"><rect x="0" y="0" width="128" height="128" rx="0" fill="#FFFFFF" fill-opacity="1"/><g clip-path="url(#master_svg1_43_548)"><rect x="0" y="0" width="132" height="128" rx="0" fill="#111111" fill-opacity="1"/><g><path d="M28.79156494140625,84.95021015625C28.81120894140625,67.97701015625,42.99576494140625,54.22231015625,60.49926494140625,54.20331015625L60.49926494140625,72.65061015625C53.49816494140625,72.65841015625,47.82476494140625,78.16001015625,47.81676494140625,84.94891015625C47.81676494140625,90.99181015625,51.18666494140625,97.49291015625,58.58656494140625,97.49291015625C59.078964941406255,97.49291015625,70.64616494140625,97.38281015625,70.64616494140625,87.84301015625L70.64616494140625,17.92041015625L90.91866494140625,17.92041015625C90.94116494140624,27.09887015625,98.61336494140625,34.53171015625,108.07866494140625,34.54501015625L108.06156494140625,52.95911015625C101.58866494140625,53.00731015625,95.22736494140625,51.32431015625,89.67656494140624,48.09511015625L89.66866494140625,87.84301015625C89.66866494140625,106.09321015625,73.65306494140626,115.94021015625,58.58396494140625,115.94021015625C41.60086494140625,115.94411015625,28.79155707359625,102.61931015625,28.79156494140625,84.95021015625Z" fill="#FF4040" fill-opacity="1"/></g><g><path d="M23.71875,80.0298C23.738394,63.0566,37.92295,49.3019,55.42645,49.2829L55.42645,67.7302C48.42545,67.738,42.75195,73.2396,42.74395,80.0285C42.74395,86.0714,46.11385,92.5725,53.51375,92.5725C54.006150000000005,92.5725,65.57335,92.4624,65.57335,82.9226L65.57335,13L85.84585,13C85.86834999999999,22.17847,93.54055,29.6113,103.00585,29.6246L102.98875,48.0387C96.51585,48.0869,90.15455,46.4039,84.60374999999999,43.1747L84.59585,82.9226C84.59585,101.1728,68.58025,111.0198,53.51115,111.0198C36.52805,111.0237,23.71874409914,97.6989,23.71875,80.0298Z" fill="#00F5FF" fill-opacity="1"/></g><g><path d="M55.4277697265625,54.573219921875C34.9545697265625,57.092219921875,18.7608097265625,82.413219921875,35.5617697265625,105.198519921875C51.082369726562504,117.508219921875,83.7325697265625,110.349219921875,84.6367697265625,83.716219921875L84.6142697265625,43.197819921874995C90.1980697265625,46.376119921875,96.5589697265625,48.043419921875,103.0335697265625,48.026019921875005L103.0335697265625,33.778319921874996C99.2268697265625,32.531619921875,95.9357697265625,30.128419921875,93.6483697265625,26.925199921875C90.29186972656251,24.784199921875,87.8009697265625,21.584719921875,86.59696972656249,17.867919921875L70.6552697265625,17.867919921875L70.6447697265625,88.045219921875C70.6302697265625,97.853819921875,53.7619697265625,101.346919921875,49.4798697265625,91.827619921875C38.756169726562504,86.856119921875,41.1809697265625,67.962019921875,55.4501697265625,67.755919921875L55.4277697265625,54.573219921875Z" fill="#FFFFFF" fill-opacity="1"/></g></g></g></g></svg>