<svg xmlns="http://www.w3.org/2000/svg" xmlns:xlink="http://www.w3.org/1999/xlink" fill="none" version="1.1" width="128" height="128" viewBox="0 0 128 128"><defs><clipPath id="master_svg0_52_161"><rect x="0" y="0" width="128" height="128" rx="0"/></clipPath></defs><g><g clip-path="url(#master_svg0_52_161)"><rect x="0" y="0" width="128" height="128" rx="0" fill="#C71D23" fill-opacity="1"/><g><rect x="29" y="29" width="72" height="69" rx="0" fill="#FFFFFF" fill-opacity="1"/></g><g><path d="M64,120C33.0721,120,8,94.9279,8,64C8,33.0721,33.0721,8,64,8C94.9279,8,120,33.0721,120,64C120,94.9279,94.9279,120,64,120ZM92.344,57.776L60.544,57.776C59.0153,57.776,57.776,59.0153,57.776,60.544L57.776,67.456C57.776,68.98400000000001,59.016,70.22399999999999,60.536,70.22399999999999L79.896,70.22399999999999C81.432,70.22399999999999,82.664,71.464,82.664,72.984L82.664,74.368C82.664,78.952,78.952,82.664,74.368,82.664L48.096,82.664C46.5735,82.6596,45.3404,81.4265,45.336,79.904L45.336,53.632C45.336,49.048,49.048,45.336,53.624,45.336L92.344,45.336C93.864,45.336,95.104,44.096,95.104,42.568L95.104,35.656C95.104,34.1304,93.8696,32.892399999999995,92.344,32.888000000000005L53.624,32.888000000000005C42.1687,32.888000000000005,32.8836,42.1767,32.888000000000005,53.632L32.888000000000005,92.344C32.888000000000005,93.872,34.128,95.112,35.656,95.112L76.44,95.112C86.751,95.1164,95.112,86.759,95.112,76.448L95.112,60.544C95.112,59.0153,93.8727,57.776,92.344,57.776Z" fill="#C71D23" fill-opacity="1"/></g></g></g></svg>