<svg xmlns="http://www.w3.org/2000/svg" xmlns:xlink="http://www.w3.org/1999/xlink" fill="none" version="1.1" width="120" height="120" viewBox="0 0 120 120"><g><g><g><g><rect x="0" y="0" width="120" height="120" rx="0" fill="#42BD56" fill-opacity="1"/></g></g></g><g><path d="M61.2514,102.8758C46.7304,103.1964,32.212900000000005,102.0987,17.907400000000003,99.5983C10.91844,98.3013,6.839433,93.5928,7.0440844,87.0574C7.0440844,85.2081,7.756157,84.2486,9.6653,84.2597L14.08071,84.2597C15.83286,84.2597,17.1112,84.7534,17.7028,86.6613C18.4401,89.3391,20.5875,90.5525,23.2087,90.9151C29.7744,91.9332,36.376400000000004,92.7282,43.0514,93.1354C53.5419,93.8467,64.06880000000001,93.8467,74.5565,93.1354C82.151,92.5608,89.7315,91.936,97.2363,90.7366C99.2183,90.3991,100.8583,89.5344,101.2816,87.5651C101.9937,84.561,103.9617,84.2011,106.5801,84.2374C113.303,84.3099,113.521,84.4884,111.772,90.8426C110.684,94.7951,108.475,97.629,104.2981,98.8647C97.7689,100.7977,91.021,101.3863,84.3208,102.0139C76.6758,102.8639,68.9791,103.165,61.2906,102.9148L61.2542,102.8758L61.2514,102.8758ZM61.3859,16.199813C73.3594,15.455059,86.5047,16.883201,99.5407,18.97521C107.253,20.17462,110.959,22.13274,112.591,31.212C113.025,33.6137,112.022,34.6485,109.692,34.562C108.234,34.5286,106.6867,34.2859,105.1896,34.2859C103.5355,34.4602,102.0001,33.4105,101.5704,31.811799999999998C100.7057,29.5557,98.5834,28.0206,96.1597,27.8983C80.7128,25.85651,65.1874,24.570619999999998,49.5918,25.41021C40.6349,25.878819999999997,31.6302,27.081,22.6732,28.0182C20.5479,28.0942,18.6829,29.4494,17.9635,31.4408C17.1449,34.0349,15.42917,34.623400000000004,13.02942,34.4058C11.95831,34.2994,10.88158,34.259299999999996,9.80547,34.2859C7.742141,34.3584,6.99362279,33.387699999999995,7.0048369,31.357100000000003C6.846492,25.90906,10.59159,21.11381,15.93659,19.92079C30.4836,16.71584,45.2325,15.814884,61.3831,16.174707L61.3831,16.199811L61.3859,16.199813ZM49.6171,59.7135L49.6171,72.5166C49.5703,74.0018,49.3721,75.4784,49.0256,76.9238C48.605,78.74799999999999,45.7427,80.7173,49.8105,82.0757C50.7637,82.3992,50.5226,84.4187,50.1217,85.6795C49.7227,86.7404,48.6078,87.3554,47.4921,87.13C44.4644,86.904,41.1058,87.3615,39.25,84.0226C38.692099999999996,83.0352,37.7137,82.9627,36.7269,82.9292C35.6567,82.922,34.5878,82.854,33.5253,82.7256C23.6012,81.2835,22.4574,79.9502,22.4574,70.0536L22.4574,45.1057C22.4574,40.6512,24.1478,38.5368,28.4315,37.1673C33.5954,35.5263,39.1599,35.6322,44.2569,37.4685C47.8761,38.6679,49.4825,40.9747,49.5918,45.3233C49.7124,50.1266,49.5918,54.9326,49.5918,59.7358L49.6171,59.7107L49.6171,59.7135ZM38.7538,59.6522L38.7538,45.9119C38.7538,44.015100000000004,38.437,42.5145,36.012,42.5145C33.777699999999996,42.5145,32.9703,43.6302,32.9703,45.683099999999996L32.9703,73.1637C32.9703,75.18039999999999,33.561800000000005,76.90979999999999,35.941900000000004,76.90979999999999C38.3164,76.90979999999999,38.7033,74.9879,38.7033,73.07730000000001C38.7173,68.5976,38.7033,64.12899999999999,38.7033,59.6522L38.7538,59.6522ZM83.7041,51.8922C85.0553,47.605000000000004,86.2636,44.3052,87.1327,40.9022C87.7971,38.297,89.1007,37.3012,91.8649,37.3012C100.1462,37.3012,99.0333,37.766999999999996,96.8157,43.939800000000005C94.8589,49.3595,93.1937,54.9075,90.8753,60.157C88.5568,65.40379999999999,89.2829,71.0243,89.053,76.5137C88.9801,78.32679999999999,89.8268,80.7061,87.4467,81.5708C85.0693,82.4355,82.1594,81.9167,79.5634,81.2807C78.9242,81.1245,78.7448,80.3463,78.6607,79.6964C78.6378,79.485,78.6378,79.2718,78.6607,79.0604C80.6623,65.52369999999999,73.8332,54.0177,69.956,41.8283C68.66640000000001,37.8395,68.8823,37.3709,73.0454,37.3374C74.0126,37.3374,74.9882,37.421099999999996,75.9441,37.3374C78.2486,37.0948,79.4933,38.068200000000004,80.1213,40.302499999999995C81.024,43.892399999999995,82.2323,47.4125,83.6564,51.8922L83.7041,51.8922ZM112.978,59.8335L112.978,78.0758C112.978,80.5499,112.266,81.7493,109.513,81.7856C102.4983,81.9055,102.4983,82.0143,102.4983,74.9405C102.4983,63.7469,102.5712,52.5533,102.4983,41.312200000000004C102.4983,38.235600000000005,103.5636,37.2147,106.6166,37.2649C113,37.3709,113,37.2649,113,43.4851L113,59.8307L112.978,59.8307L112.978,59.8335ZM65.3808,59.9283C65.3808,66.2099,65.2967,72.5027,65.3808,78.7842C65.3808,80.8763,64.70519999999999,81.6182,62.6755,81.7633C54.781,82.3156,54.781,82.363,54.781,74.5584L54.781,41.9705C54.781,37.6833,55.0838,37.396,59.2945,37.357C59.9393,37.3932,60.5841,37.3932,61.2289,37.357C64.3043,37.0111,65.4032,38.333200000000005,65.31909999999999,41.393100000000004C65.1369,47.5659,65.2575,53.7499,65.2575,59.9367L65.3808,59.9255L65.3808,59.9283ZM16.976660000000003,66.0649L16.976660000000003,78.5193C16.976660000000003,80.8372,16.0347,81.6907,13.73028,81.7744C7.00763445,82.0255,7.00763445,82.0868,7.00763445,75.3366C7.00763445,68.3103,7.0917375,61.2839,7.00763445,54.2715C7.00763445,51.6523,7.910342,50.6677,10.55398,50.6677C18.1849,50.6677,16.96545,50.1656,16.98787,56.7931L16.98787,66.04249999999999L16.976660000000003,66.0649ZM16.976660000000003,42.522800000000004C16.976660000000003,47.7389,16.976660000000003,47.7389,12.24446,47.7389C7.00763445,47.7389,7.00763445,47.7389,7.0188476,42.416799999999995C7.0188476,37.348600000000005,7.0188476,37.348600000000005,12.182780000000001,37.3598C16.94021,37.3598,16.94021,37.3598,16.94021,42.5256L16.976660000000003,42.5256L16.976660000000003,42.522800000000004Z" fill="#FFFFFF" fill-opacity="1"/></g></g></svg>