<svg xmlns="http://www.w3.org/2000/svg" xmlns:xlink="http://www.w3.org/1999/xlink" fill="none" version="1.1" width="120" height="120" viewBox="0 0 120 120"><g><g><g><rect x="0" y="0" width="120" height="120" rx="0" fill="#FFFFFF" fill-opacity="1"/></g></g><g><path d="M101.7077,51.2523587890625C102.6858,52.620258789062504,103.4177,54.4772587890625,103.3356,58.369158789062496C102.2344,70.5883587890625,91.8619,78.3036587890625,81.5338,78.3036587890625C70.35759999999999,78.3036587890625,62.4884,70.2600587890625,57.7553,61.272658789062504C56.637,59.1488587890625,55.8265,56.7788587890625,55.0639,54.7269587890625C53.5694,56.7583587890625,50.4197,60.0722587890625,48.8157,61.6145587890625C49.7866,64.3511587890625,51.055,66.9727587890625,52.5981,69.43245878906251C53.8601,71.3988587890625,57.044,75.8481587890625,61.5958,79.3706587890625C65.7339,82.5614587890625,69.70439999999999,84.5210587890625,74.1947,85.6393587890625C81.7791,87.46185878906249,89.7726,86.3347587890625,96.5574,82.4861587890625C104.6796,77.8316587890625,110.404,69.2580587890625,111.441,60.3560587890625C109.4401,57.0387587890625,105.1037,53.1195587890625,101.7077,51.2523587890625ZM33.3749,48.0137087890625C36.206199999999995,48.0112787890625,38.9808,48.8065787890625,41.3809,50.3084587890625C43.3063,48.2565187890625,45.0094,46.1361887890625,46.7775,43.9987587890625C39.6399,38.9946597890625,30.3102,38.3799687890625,22.5778,42.4043587890625C14.84545,46.4287387890625,9.996315,54.4228587890625,10,63.1398587890625C10.000270844,64.3432587890625,10.0928793,65.54495878906249,10.277011,66.7341587890625C10.930209,67.5412587890625,17.51007,66.9940587890625,18.53604,66.0707587890625C18.34621,65.1052587890625,18.25,64.12375878906249,18.24877,63.1398587890625C18.24877,54.7859587890625,25.021,48.0137087890625,33.3749,48.0137087890625ZM33.3749,86.5318587890625C25.024900000000002,86.5306587890625,17.309829999999998,82.0747587890625,13.13604,74.8427587890625C13.45067,74.4254587890625,20.8034,73.6081587890625,22.5578,73.70735878906251C25.3995,76.62595878906251,29.3014,78.2703587890625,33.3749,78.2660587890625Q42.677,78.98075878906249,51.3704,72.1102587890625Q54.6398,76.7681587890625,57.15,78.5190587890625Q48.9525,86.5318587890625,33.3749,86.5318587890625Z" fill="#E1251B" fill-opacity="1"/></g><g><path d="M93.88640805664062,28.66738C82.84360805664062,24.0266,72.07100805664062,25.380871,61.42480805664062,33.20557C52.037308056640626,40.1035,48.302708056640626,47.0527,42.29740805664063,53.016999999999996C35.115608056640625,60.1509,29.729308056640626,62.5516,25.457908056640626,64.16579999999999C21.046208056640623,65.8347,14.890438056640626,66.9735,10.277008056640625,66.7205C10.721459056640626,69.5766,11.690798056640626,72.3258,13.136038056640626,74.82900000000001C24.914108056640625,74.62729999999999,33.21760805664063,70.1198,38.573208056640624,66.85390000000001C43.25500805664063,63.9982,50.299908056640625,56.806200000000004,53.996808056640624,52.1483C59.93720805664063,44.6725,67.67640805664062,37.5215,74.75210805664062,35.27803C84.63560805664062,32.148830000000004,94.24550805664063,36.5263,98.90340805664063,42.7094C99.32060805664062,43.2532,108.05500805664063,46.3892,110.80100805664063,48.748999999999995C109.79230805664062,44.4673,105.03180805664063,33.35263,93.88640805664062,28.66738Z" fill="#E1251B" fill-opacity="1"/></g><g><path d="M110.54469155273438,47.8050942578125C105.32259155273437,44.1220742578125,99.09999155273437,42.1222553578125,92.70999155273438,42.0733642578125C84.97759155273437,42.0733642578125,77.23499155273437,45.0862842578125,71.78709155273438,50.4520942578125C67.82346155273437,54.3507642578125,65.89465155273437,57.514164257812496,61.500091552734375,62.7841642578125C63.15324155273437,65.2995642578125,65.11564155273437,67.5974642578125,67.34126155273438,69.6239642578125C67.90896155273438,68.7963642578125,71.10314155273437,64.2752642578125,73.49709155273437,61.0981642578125C76.57499155273437,57.0558642578125,79.70069155273438,53.8240642578125,84.44069155273438,51.9534142578125C94.36769155273439,47.961404257812504,105.72819155273437,51.6641842578125,111.39629155273437,60.7390642578125C112.03789155273438,56.4163642578125,111.74749155273437,52.0064042578125,110.54469155273438,47.8050942578125Z" fill="#E1251B" fill-opacity="1"/></g></g></svg>