<svg xmlns="http://www.w3.org/2000/svg" xmlns:xlink="http://www.w3.org/1999/xlink" fill="none" version="1.1" width="128" height="128" viewBox="0 0 128 128"><defs><clipPath id="master_svg0_43_453"><rect x="0" y="0" width="128" height="128" rx="0"/></clipPath></defs><g clip-path="url(#master_svg0_43_453)"><rect x="0" y="0" width="128" height="128" rx="0" fill="#FF4A08" fill-opacity="1"/><g><rect x="21" y="22" width="93" height="88" rx="0" fill="#FFFFFF" fill-opacity="1"/></g><g><path d="M37.40991973876953,78.05377928466797L37.40991973876953,88.98947928466796C37.40991973876953,90.82047928466797,38.74815973876953,91.64477928466798,40.38335973876953,90.82177928466797L50.82051973876953,85.56927928466797L50.82051973876953,81.47387928466796L40.38399973876953,76.22077928466797C38.74815973876953,75.39777928466796,37.40991973876953,76.22267928466798,37.40991973876953,78.05377928466797ZM81.80291973876953,54.50427928466797C86.39291973876954,54.50427928466797,90.12731973876953,50.77057928466797,90.12731973876953,46.18047928466797C90.12731973876953,41.59039928466797,86.39291973876954,37.855999284667966,81.80291973876953,37.855999284667966C77.21341973876953,37.855999284667966,73.47971973876953,41.59039928466797,73.47971973876953,46.18047928466797C73.47971973876953,50.77057928466797,77.21341973876953,54.50427928466797,81.80291973876953,54.50427928466797ZM55.445119738769534,54.45627928466797C61.41181973876953,54.45627928466797,66.26561973876953,49.60187928466797,66.26561973876953,43.63517928466797C66.26561973876953,37.66847928466797,61.41181973876953,32.81407928466797,55.445119738769534,32.81407928466797C49.47841973876953,32.81407928466797,44.623999738769534,37.66847928466797,44.623999738769534,43.63517928466797C44.623999738769534,49.60187928466797,49.47841973876953,54.45627928466797,55.445119738769534,54.45627928466797Z" fill="#FF4A08" fill-opacity="1"/></g><g><path d="M106.2400005722046,6.400000095367432L21.76000057220459,6.400000095367432C13.27680057220459,6.400000095367432,6.40000057220459,13.276800095367431,6.40000057220459,21.76000009536743L6.40000057220459,106.24000009536744C6.40000057220459,114.72300009536742,13.27680057220459,121.60000009536743,21.76000057220459,121.60000009536743L106.2400005722046,121.60000009536743C114.72300057220458,121.60000009536743,121.60000057220459,114.72300009536742,121.60000057220459,106.24000009536744L121.60000057220459,21.76000009536743C121.60000057220459,13.276800095367431,114.72300057220458,6.400000572204432,106.2400005722046,6.400000095367432ZM55.44510057220459,25.60000009536743C62.20160057220459,25.60000009536743,68.09860057220459,29.33630009536743,71.18720057220459,34.84990009536743C73.9674005722046,32.24320009536743,77.7011005722046,30.641900095367433,81.80350057220458,30.641900095367433C90.37180057220459,30.641900095367433,97.34210057220459,37.61280009536743,97.34210057220459,46.180500095367435C97.34210057220459,54.74820009536743,90.37120057220459,61.71840009536743,81.80350057220458,61.71840009536743C76.62780057220459,61.71840009536743,72.03780057220459,59.17180009536743,69.21220057220458,55.267800095367434C65.90140057220458,59.18020009536743,60.96000057220459,61.670400095367434,55.44510057220459,61.670400095367434C45.50020057220459,61.670400095367434,37.40990057220459,53.57950009536743,37.40990057220459,43.63520009536743C37.40990057220459,33.69090009536743,45.50020057220459,25.60000009536743,55.44510057220459,25.60000009536743ZM97.52700057220459,88.80450009536743C97.52700057220459,96.30140009536743,91.42850057220458,102.40000009536743,83.93150057220458,102.40000009536743L64.41600057220458,102.40000009536743C58.53380057220459,102.40000009536743,53.51300057220459,98.64450009536743,51.62300057220459,93.40420009536743L40.64580057220459,98.70460009536743C39.46620057220459,99.27420009536743,38.27330057220459,99.56220009536743,37.098900572204585,99.56220009536743L37.098900572204585,99.56220009536743C33.25950057220459,99.56220009536743,30.47300057220459,96.51580009536742,30.47300057220459,92.32060009536742L30.47300057220459,74.74940009536743C30.47300057220459,70.55230009536743,33.25950057220459,67.50660009536743,37.098900572204585,67.50660009536743C38.27330057220459,67.50660009536743,39.46620057220459,67.79520009536743,40.64510057220459,68.36480009536743L51.59490057220459,73.65180009536743C53.46180057220459,68.36930009536744,58.50300057220459,64.57280009536743,64.41600057220458,64.57280009536743L83.93090057220459,64.57280009536743C91.42780057220459,64.57280009536743,97.5264005722046,70.67200009536744,97.5264005722046,78.16900009536744L97.52700057220459,88.80450009536743L97.52700057220459,88.80450009536743Z" fill="#FF4A08" fill-opacity="1"/></g><g><path d="M83.93152028808593,71.78623962402344L64.41600028808594,71.78623962402344C60.89728028808594,71.78623962402344,58.03392028808594,74.64959962402344,58.03392028808594,78.16831962402344L58.03392028808594,88.80443962402344C58.03392028808594,92.32323962402344,60.89728028808594,95.18653962402344,64.41600028808594,95.18653962402344L83.93092028808593,95.18653962402344C87.44962028808594,95.18653962402344,90.31292028808593,92.32323962402344,90.31292028808593,88.80443962402344L90.31292028808593,78.16831962402344C90.31292028808593,74.64959962402344,87.45022028808594,71.78623962402344,83.93152028808593,71.78623962402344Z" fill="#FF4A08" fill-opacity="1"/></g></g></svg>