<svg xmlns="http://www.w3.org/2000/svg" xmlns:xlink="http://www.w3.org/1999/xlink" fill="none" version="1.1" width="128" height="128" viewBox="0 0 128 128"><defs><clipPath id="master_svg0_43_422"><rect x="0" y="0" width="128" height="128" rx="0"/></clipPath><clipPath id="master_svg1_43_243"><rect x="4" y="0" width="128" height="128" rx="0"/></clipPath></defs><g><g clip-path="url(#master_svg0_43_422)"><rect x="0" y="0" width="128" height="128" rx="0" fill="#FFFFFF" fill-opacity="1"/><g clip-path="url(#master_svg1_43_243)"><g><path d="M62.600006103515625,58.400001525878906L93.80000610351563,58.400001525878906C97.80000610351563,58.400001525878906,101.80000610351563,55.2000015258789,101.80000610351563,50.400001525878906C101.80000610351563,46.400001525878906,98.60000610351562,42.400001525878906,93.80000610351563,42.400001525878906L62.600006103515625,42.400001525878906C58.600006103515625,42.400001525878906,54.600006103515625,45.60000152587891,54.600006103515625,50.400001525878906C54.600006103515625,55.2000015258789,57.80000610351563,58.400001525878906,62.600006103515625,58.400001525878906Z" fill="#D81E06" fill-opacity="1"/></g><g><path d="M93.80001220703124,95.19999923706055L62.60001220703125,95.19999923706055C58.60001220703125,95.19999923706055,54.60001220703125,98.39999923706054,54.60001220703125,103.19999923706055C54.60001220703125,107.19999923706055,57.80001220703125,111.19999923706055,62.60001220703125,111.19999923706055L93.80001220703124,111.19999923706055C97.80001220703124,111.19999923706055,101.80001220703124,107.99999923706055,101.80001220703124,103.19999923706055C101.80001220703124,99.19999923706055,97.80001220703124,95.19999923706055,93.80001220703124,95.19999923706055ZM85.80001220703124,76.79999923706055C85.80001220703124,72.79999923706055,82.60001220703126,68.79999923706055,77.80001220703124,68.79999923706055L44.20001220703125,68.79999923706055L44.20001220703125,24.799999237060547C44.20001220703125,20.799999237060547,41.00001220703125,16.799999237060547,36.20001220703125,16.799999237060547C32.20001220703125,16.799999237060547,28.20001220703125,19.999999237060546,28.20001220703125,24.799999237060547L28.20001220703125,76.79999923706055C28.20001220703125,80.79999923706055,31.40001220703125,84.79999923706055,36.20001220703125,84.79999923706055L77.80001220703124,84.79999923706055C82.60001220703126,84.79999923706055,85.80001220703124,81.59999923706054,85.80001220703124,76.79999923706055Z" fill="#D81E06" fill-opacity="1"/></g></g></g></g></svg>