<svg xmlns="http://www.w3.org/2000/svg" xmlns:xlink="http://www.w3.org/1999/xlink" fill="none" version="1.1" width="128" height="128" viewBox="0 0 128 128"><defs><clipPath id="master_svg0_43_391"><rect x="0" y="0" width="128" height="128" rx="0"/></clipPath><clipPath id="master_svg1_43_223"><rect x="9" y="8" width="111" height="111" rx="0"/></clipPath></defs><g><g><g><rect x="4" y="4" width="120" height="120" rx="0" fill="#FFFFFF" fill-opacity="1"/></g></g><g clip-path="url(#master_svg0_43_391)"><rect x="0" y="0" width="128" height="128" rx="0" fill="#FFFFFF" fill-opacity="1"/></g><g clip-path="url(#master_svg1_43_223)"><g><path d="M118.61250076293945,84.8674412109375L118.61250076293945,51.2899412109375C118.61250076293945,48.2374412109375,116.67050076293945,45.4624412109375,113.61750076293946,44.3524412109375L102.51750076293945,41.2999412109375L86.42250076293945,74.3224412109375Q69.77250076293944,32.419941210937495,69.77250076293944,32.1424412109375L52.29000076293946,27.4249412109375C51.45750076293945,27.1474412109375,50.62500076293945,27.1474412109375,49.792500762939454,27.1474412109375C44.79750076293945,27.1474412109375,41.19000076293945,31.0324412109375,41.19000076293945,35.7499412109375L41.19000076293945,85.6999412109375C41.19000076293945,90.1399412109375,44.79750076293945,93.7474412109375,49.237500762939455,93.7474412109375L50.07000076293945,93.7474412109375L57.00750076293945,93.1924412109375L56.45250076293945,93.1924412109375L56.45250076293945,40.7449412109375L76.98750076293945,90.9724412109375L92.25000076293945,89.5849412109375L111.95250076293945,51.0124412109375L111.95250076293945,79.0399412109375C111.95250076293945,89.0299412109375,104.46000076293946,97.3549412109375,94.19250076293946,98.7424412109375L44.79750076293945,103.1824412109375L43.68750076293945,103.1824412109375C35.362500762939455,103.1824412109375,28.702500762939454,96.5224412109375,28.702500762939454,88.4749412109375L28.702500762939454,37.6924412109375C28.702500762939454,32.1424412109375,28.425000762939455,27.1474412109375,32.31000076293945,22.4299412109375C35.362500762939455,18.5449112109375,40.35750076293945,16.6024112109375,45.07500076293945,16.6024112109375C46.74000076293945,16.6024112109375,48.40500076293945,16.8799112109375,50.07000076293945,17.4349112109375L106.95750076293945,33.252441210937505L107.79000076293946,33.252441210937505C109.45500076293945,33.252441210937505,110.84250076293945,31.8649412109375,110.84250076293945,30.1999412109375C110.84250076293945,28.8124412109375,110.01000076293946,27.7024412109375,108.62250076293945,27.4249412109375L47.572500762939455,10.7749112109375C44.455800762939454,9.6618052109375,41.16950076293945,9.0984343109375,37.86000076293945,9.1099128159375C22.597500762939454,9.1099120929375,10.387500762939453,21.0424412109375,10.387500762939453,35.7499412109375L10.387500762939453,92.9149412109375C10.387500762939453,106.5124412109375,21.76500076293945,117.6127412109375,35.64000076293945,117.6127412109375L37.86000076293945,117.6127412109375L93.08250076293945,112.3397412109375C107.79000076293946,110.9527412109375,118.61250076293945,99.0199412109375,118.61250076293945,84.8674412109375Z" fill="#F06000" fill-opacity="1"/></g></g></g></svg>