<svg xmlns="http://www.w3.org/2000/svg" xmlns:xlink="http://www.w3.org/1999/xlink" fill="none" version="1.1" width="128" height="128" viewBox="0 0 128 128"><defs><clipPath id="master_svg0_43_413"><rect x="0" y="0" width="128" height="128" rx="0"/></clipPath></defs><g><g clip-path="url(#master_svg0_43_413)"><rect x="0" y="0" width="128" height="128" rx="0" fill="#FFFFFF" fill-opacity="1"/><g><path d="M97.9629,45.9961L94.7449,48.6939L61.7783,76.72200000000001L28.7879,104.7741L27.3816,105.9439C25.6693,107.4223,23.4375,108.1531,21.18394,107.9732C17.58363,107.6763,14.51809,105.2327,13.421257,101.7854C12.324426,98.3381,13.413153,94.5686,16.17817,92.2402L40.7303,71.3743L66.951,49.0043L96.6042,23.817140000000002L99.56,21.286491C99.6772,21.178473,99.805,21.0825001,99.9413,21C100.0844,21.286491,99.9413,21.477481,99.7745,21.644598C98.5915,23.36662,98.0053,25.42981,98.1059,27.51762L98.1059,45.7097C98.1059,46.1155,98.0582,45.972300000000004,97.9629,45.9961Z" fill="#1A9DE0" fill-opacity="1"/></g><g><path d="M98.3841,46.2608L98.3841,46.1165C98.618,45.7495,98.9288,45.437799999999996,99.2947,45.203199999999995L107.2269,38.449200000000005L112.6907,33.8103C114.227,32.544,115.284,30.788,115.686,28.835C115.686,28.5706,115.686,28.2581,115.974,28.041800000000002L115.974,99.4755C116.346,104.3443,112.7151,108.595,107.8613,108.973C103.0073,109.3511,98.7658,105.7136,98.3841,100.8456C98.3477,100.3335,98.3477,99.8194,98.3841,99.3073L98.3841,46.9818C98.4081,46.7415,98.3841,46.5011,98.3841,46.2608ZM30.6615,42.1987L30.6615,69.9358C30.687,70.2895,30.534,70.6325,30.2542,70.8492L13.479282,85.0782C13.353488,85.2326,13.187622,85.349,13,85.4147L13,28.5465L13,26.743859999999998C13.0717271,22.538330000000002,16.07121,18.9583,20.189230000000002,18.163154C22.25771,17.756808,24.402900000000002,18.115413,26.2282,19.17265L27.2347,19.79758C29.571,21.437269999999998,30.9232,24.14982,30.8293,27.00825L30.8293,41.237300000000005C30.8053,41.6219,30.8772,41.9344,30.6615,42.1987Z" fill="#D60419" fill-opacity="1"/></g><g><path d="M30.40177,41.8667L30.40177,26.8744C30.40413,24.90318,29.70543,22.99358,28.42732,21.47811C28.05425,21.00471,27.622719,20.579104,27.142733,20.21116Q27.142733,20.0703868,27,20C27.701912,20.33032,28.38489,20.698448,29.04582,21.10272C37.1815,25.58398,45.2934,30.041800000000002,53.3816,34.57C56.5182,36.1693,58.3335,39.5075,57.949,42.9694C57.4887,49.3405,50.4167,53.0301,44.8177,49.8203L30.78239,42.0544L30.40177,41.8667Z" fill="#DA1E30" fill-opacity="1"/></g><g><path d="M115.8774,28.037C115.6106,30.228,114.5274,32.2446,112.8365,33.6982L98.24026,45.8806L98.0456462,46C97.9847807,45.468199999999996,97.9847807,44.9314,98.0456462,44.3996L98.0456462,27.43978C97.9892003,25.77885,98.374914,24.13219,99.16469,22.66238C99.43229,22.13686,99.84585,21.68301,100.08912,21.13361C101.34724,19.81889,102.93159,18.847625999999998,104.68695,18.31494C109.8614,16.926569999999998,115.1127,20.27485,115.9261,25.48105C116.0389,26.33068,116.02250000000001,27.192059999999998,115.8774,28.037Z" fill="#1684C8" fill-opacity="1"/></g></g></g></svg>