<svg xmlns="http://www.w3.org/2000/svg" xmlns:xlink="http://www.w3.org/1999/xlink" fill="none" version="1.1" width="120" height="120" viewBox="0 0 120 120"><g><g><g><g><rect x="0" y="0" width="120" height="120" rx="0" fill="#FFFFFF" fill-opacity="1"/></g></g></g><g><path d="M14.00236401,59.85750859375C13.74611,85.48240859375,34.356700000000004,106.43980859375,59.9823,106.61100859375C85.6079,106.78230859375,106.4968,86.10230859375,106.5831,60.47630859375C106.6681,34.84900859375,85.9189,14.02880972251,60.294,14.02880859375C34.9075,14.02754287375,14.256216,34.47230859375,14.00236401,59.85750859375Z" fill="#F8C913" fill-opacity="1"/></g><g><path d="M74.39185659179688,10.11501C71.43595659179687,12.65801,67.84195659179687,14.34592,63.99735659179687,14.996739999999999C59.602756591796876,15.59939,55.337356591796876,16.92166,51.37235659179687,18.91049C49.83753659179688,19.6888,48.42067659179688,20.680500000000002,47.164026591796876,21.856299999999997C45.186136591796874,23.581699999999998,43.713156591796874,26.738,44.176136591796876,27.748C44.63911659179688,28.758,49.141906591796875,34.86,54.823156591796874,42.94C60.504456591796874,51.02,65.97525659179688,58.6371,67.19565659179688,60.3205C67.92975659179687,61.3385,68.59075659179688,62.4073,69.17365659179687,63.5188C69.17365659179687,63.7713,68.16365659179688,63.5188,67.19565659179688,63.2663C61.79615659179687,62.3419,56.24235659179688,63.1986,51.37235659179687,65.7071C47.361326591796875,67.96940000000001,44.032666591796875,71.269,41.73526659179687,75.26C39.747980591796875,79.3173,39.475021591796875,84.0032,40.97777159179687,88.2638C42.71283659179687,92.3515,45.88726659179687,95.6608,49.899406591796875,97.5642C52.36455659179688,99.0183,55.206356591796876,99.7068,58.06365659179687,99.5421C60.543256591796876,99.7968,63.048156591796875,99.6261,65.47025659179687,99.0371C74.17485659179687,97.008,80.69215659179687,89.7685,81.79865659179688,80.8992C82.05115659179688,76.228,81.54615659179687,74.755,75.35985659179687,64.0659C65.72275659179687,47.2325,57.05365659179688,32.2088,57.05365659179688,31.9563L61.00945659179688,31.4513C66.96825659179687,31.4666,72.46475659179688,28.2429,75.35985659179687,23.034599999999998C76.58025659179688,20.8463,76.58025659179688,20.0888,76.58025659179688,15.41751C76.67975659179687,13.439820000000001,76.50995659179688,11.45778,76.07525659179687,9.525877C75.86485659179687,8.642127,75.65435659179687,8.894627,74.39185659179688,10.11501Z" fill="#02B053" fill-opacity="1"/></g></g></svg>