<svg xmlns="http://www.w3.org/2000/svg" xmlns:xlink="http://www.w3.org/1999/xlink" fill="none" version="1.1" width="128" height="128" viewBox="0 0 128 128"><defs><clipPath id="master_svg0_43_466"><rect x="0" y="0" width="128" height="128" rx="0"/></clipPath></defs><g clip-path="url(#master_svg0_43_466)"><rect x="0" y="0" width="128" height="128" rx="0" fill="#EA3E3C" fill-opacity="1"/><g><path d="M23.04,0L104.96,0Q128,0,128,23.04L128,104.96Q128,128,104.96,128L23.04,128Q0,128,0,104.96L0,23.04Q0,0,23.04,0Z" fill="#EA3E3C" fill-opacity="1"/></g><g><path d="M65.95195588378905,106.179809375C58.89775588378906,106.110209375,51.95105588378907,104.443309375,45.63325588378906,101.304309375C31.58784588378906,94.408909375,23.132165883789064,79.267809375,24.064004883789064,62.720009375C24.990724883789063,46.426909375,34.702055883789065,33.036809375000004,49.40795588378906,27.775999374999998C51.73785588378907,26.944199375,54.30095588378906,28.157569375,55.13435588378906,30.486809375C55.96775588378907,32.816009375,54.75615588378906,35.380009375,52.42755588378906,36.215009375C38.96955588378906,41.026609375,33.57568588378906,53.323509375,33.015045883789064,63.232009375C32.28160588378906,76.171509375,38.775055883789065,87.956509375,49.55775588378906,93.249309375C65.14435588378906,100.787209375,76.67195588378905,96.043509375,82.16065588378906,92.544009375C89.63585588378906,87.773409375,94.39355588378906,80.042209375,94.27965588378906,72.84990937500001C94.15165588378906,64.884509375,91.27165588378907,57.725409375,86.37055588378905,53.207009375C84.06705588378907,51.049909375,81.24155588378906,49.529809375,78.17215588378906,48.796209375000004Q78.52545588378906,50.017309374999996,78.87745588378905,51.211509375C80.55035588378905,56.916509375,81.99555588378905,61.843209375,82.07745588378907,65.51170937500001C82.22665588378906,70.055109375,80.52645588378905,74.46460937500001,77.36575588378906,77.731809375C74.02885588378906,81.050909375,69.48905588378906,82.87560937500001,64.78335588378906,82.78910937500001C60.055855883789064,82.796409375,55.52615588378906,80.89210937499999,52.22395588378906,77.50910937500001C48.309055883789064,73.380809375,46.22335588378906,67.848609375,46.43835588378906,62.163209375C46.588155883789064,51.522609375,56.453155883789066,43.002909375,66.79035588378906,40.275209375C66.22065588378906,37.518109375,65.93925588378906,34.709109375,65.95075588378907,31.893809375C65.79695588378905,26.517389375,69.38795588378906,21.751659375,74.59835588378905,20.417293375C80.37505588378906,18.850579375,87.65435588378907,21.066249374999998,90.18115588378906,25.153289375C91.47935588378907,27.259579375,90.82435588378907,30.019509375,88.71805588378906,31.317809375C86.61485588378906,32.612809375,83.86015588378906,31.961309375,82.55995588378906,29.861129375C80.71305588378905,28.831089374999998,78.52675588378906,28.595929375,76.50305588378906,29.209609375C75.96285588378906,29.423369375,74.95805588378906,29.822729375,74.90685588378906,32.097309375C74.92095588378906,34.558609375,75.20335588378907,37.011109375000004,75.74915588378906,39.411209375C81.97635588378907,39.825909374999995,87.87125588378906,42.370509375,92.44415588378907,46.617609375C99.14115588378907,52.791009375,103.07455588378906,62.300209375,103.23835588378907,72.706609375C103.39965588378907,82.93890937500001,97.01755588378906,93.689609375,86.98235588378907,100.098609375C80.70205588378906,104.103909375,73.40075588378906,106.215209375,65.95195588378905,106.179809375ZM68.90875588378907,48.985609374999996C61.81245588378906,50.944009375,55.475155883789064,56.865309375,55.399655883789066,62.288609375C55.23005588378906,65.574309375,56.385055883789065,68.79080937500001,58.60605588378906,71.217909375C60.21935588378906,72.895509375,62.44955588378906,73.838809375,64.77695588378907,73.827809375C67.07445588378906,73.917109375,69.30825588378906,73.06130937500001,70.95805588378906,71.45980937499999C72.42475588378906,69.909709375,73.20185588378907,67.832009375,73.11235588378906,65.699809375C73.06115588378907,63.225609375,71.64675588378907,58.403809375,70.27845588378906,53.738209375C69.82655588378907,52.185609375,69.35935588378906,50.594509375,68.90875588378907,48.985609374999996Z" fill="#FFFFFF" fill-opacity="1"/></g></g></svg>