<svg xmlns="http://www.w3.org/2000/svg" xmlns:xlink="http://www.w3.org/1999/xlink" fill="none" version="1.1" width="128" height="128" viewBox="0 0 128 128"><defs><clipPath id="master_svg0_43_193"><rect x="0" y="0" width="128" height="128" rx="0"/></clipPath></defs><g><g><g><rect x="4" y="4" width="120" height="120" rx="0" fill="#FFFFFF" fill-opacity="1"/></g></g><g clip-path="url(#master_svg0_43_193)"><rect x="0" y="0" width="128" height="128" rx="0" fill="#FFFFFF" fill-opacity="1"/><g><path d="M23.04,0L104.96,0Q128,0,128,23.04L128,104.96Q128,128,104.96,128L23.04,128Q0,128,0,104.96L0,23.04Q0,0,23.04,0Z" fill="#FFFFFF" fill-opacity="1"/></g><g><path d="M91.63435995788575,64.50242850341797L51.72785995788574,87.54242850341797Q38.425759957885745,95.22242850341797,30.745739957885743,81.92022850341797Q23.065729957885743,68.61812850341798,36.367889957885744,60.93812850341797L76.27435995788574,37.898108503417966Q89.57645995788575,30.21810850341797,97.25645995788574,43.52025850341797Q104.93645995788575,56.82242850341797,91.63435995788575,64.50242850341797Z" fill="#5BC7F8" fill-opacity="1"/></g><g><path d="M51.72608528442383,14.858238499145507L91.63268528442383,37.89820849914551C98.97928528442382,42.13950849914551,101.49678528442382,51.533308499145505,97.25568528442383,58.88000849914551C94.08508528442383,64.47740849914551,87.76578528442383,66.71360849914551,84.02428528442383,68.89860849914551L36.36607528442383,41.46300849914551C29.022613284423826,37.22000849914551,26.507745284423827,27.828208499145507,30.748265284423827,20.48328849914551C34.98877528442383,13.138365499145507,44.37968528442383,10.620258499145507,51.72608528442383,14.858238499145507Z" fill="#E83A70" fill-opacity="1"/></g><g><path d="M53.134079842529296,51.22687911987305L48.2611198425293,54.36287911987305L84.48001984252929,69.11997911987305L53.134079842529296,51.22687911987305Z" fill="#4193F3" fill-opacity="1"/></g><g><path d="M51.72583053894043,14.858198186950684L91.63233053894044,37.898218186950686Q104.93443053894043,45.578218186950686,97.25443053894043,58.88031818695068Q89.57443053894043,72.18251818695069,76.27233053894042,64.50251818695068L36.36586053894043,41.46251818695069Q23.06370053894043,33.78251818695068,30.74371053894043,20.480338186950682Q38.42373053894043,7.178188186950684,51.72583053894043,14.858198186950684Z" fill="#E83A70" fill-opacity="1"/></g><g><path d="M44.47871671508789,97.91999816894531C49.24497671508789,98.10875716894532,52.963076715087894,102.11287816894531,52.79867671508789,106.87999816894532C52.963076715087894,111.64709816894532,49.24497671508789,115.65119816894531,44.47871671508789,115.83999816894531C39.71250671508789,115.65119816894531,35.99439571508789,111.64709816894532,36.15872192508789,106.87999816894532C35.99439571508789,102.11286816894531,39.71250671508789,98.10875716894532,44.47871671508789,97.91999816894531ZM44.47871671508789,111.99999816894531C47.12267671508789,111.80919816894531,49.12057671508789,109.52589816894532,48.95867671508789,106.87999816894532C49.12057671508789,104.23405816894531,47.12267671508789,101.95074816894531,44.47871671508789,101.75999816894532C41.83471671508789,101.95075816894531,39.83682671508789,104.23406816894531,39.99872671508789,106.87999816894532C39.83681671508789,109.52589816894532,41.83471671508789,111.80919816894531,44.47871671508789,111.99999816894531Z" fill="#E83B71" fill-opacity="1"/></g><g><path d="M28.47871816040039,107.52003120117188C27.911388160400392,107.52023120117187,27.37298816040039,107.26955120117188,27.00799816040039,106.83520120117187L26.200318160400393,105.87263120117187L20.742399160400392,100.57855120117188C19.98143416040039,99.84016120117188,19.96309516040039,98.62469120117187,20.70143916040039,97.86367020117187C21.43983816040039,97.10270720117188,22.655298160400392,97.08437320117187,23.41631816040039,97.82270820117188L29.013758160400393,103.25247120117187L29.94815816040039,104.36351120117187C30.42915816040039,104.93486120117187,30.535158160400393,105.73325120117187,30.219958160400388,106.41031120117188C29.90474816040039,107.08737120117188,29.225548160400393,107.52023120117187,28.47871816040039,107.52003120117188Z" fill="#E83B71" fill-opacity="1"/></g><g><path d="M28.478720117797852,107.51740124511718C28.02711011779785,107.5177012451172,27.590000117797853,107.35810124511718,27.24480011779785,107.06688124511719C26.43344711779785,106.38460124511718,26.328588117797853,105.1738612451172,27.010561117797852,104.36223124511719L27.94496011779785,103.24991124511719L33.54496011779785,97.81887824511719C34.30598011779785,97.08053624511719,35.52144011779785,97.0988772451172,36.25984011779785,97.85984024511718C36.99818011779785,98.62086124511718,36.97988011779785,99.8363312451172,36.21888011779785,100.57472124511719L30.757120117797854,105.8726412451172L29.94816011779785,106.83520124511719C29.582980117797852,107.26826124511719,29.04520011779785,107.51790124511719,28.478720117797852,107.51740124511718Z" fill="#E83B71" fill-opacity="1"/></g><g><path d="M28.478719635009767,115.19484283447265C27.418334635009767,115.19484283447265,26.558721542359766,114.33524283447265,26.558719635009766,113.27488283447266L26.558719635009766,105.21984283447266C26.558721542359766,104.15945483447265,27.418332635009765,103.29985046386265,28.478719635009767,103.29984283447266C29.539109635009765,103.29985046386265,30.398719635009765,104.15945483447265,30.398719635009765,105.21984283447266L30.398719635009765,113.27488283447266C30.398719635009765,114.33524283447265,29.539099635009766,115.19484283447265,28.478719635009767,115.19484283447265Z" fill="#E83B71" fill-opacity="1"/></g><g><path d="M55.89504043579102,108.79999816894531C54.834655435791014,108.79999816894531,53.975040435791016,107.94039816894531,53.975040435791016,106.88000816894531L53.975040435791016,99.83999816894531C53.975040435791016,98.77961016894531,54.834652435791014,97.92000579833531,55.89504043579102,97.91999816894531C56.955430435791015,97.92000579833531,57.81504043579102,98.77961716894531,57.81504043579102,99.83999816894531L57.81504043579102,106.87999816894532C57.81504043579102,107.94039816894531,56.95542043579101,108.79999816894531,55.89504043579102,108.79999816894531Z" fill="#E83B71" fill-opacity="1"/></g><g><path d="M68.69503967285156,108.79999816894531C67.63465467285157,108.79999816894531,66.77503967285156,107.94039816894531,66.77503967285156,106.88000816894531L66.77503967285156,99.83999816894531C66.77503967285156,98.77961016894531,67.63465167285156,97.92000579833531,68.69503967285156,97.91999816894531C69.75542967285156,97.92000579833531,70.61503967285157,98.77961716894531,70.61503967285157,99.83999816894531L70.61503967285157,106.87999816894532C70.61503967285157,107.94039816894531,69.75541967285156,108.79999816894531,68.69503967285156,108.79999816894531Z" fill="#E83B71" fill-opacity="1"/></g><g><path d="M62.456320435791014,115.83483916015625C59.25491043579102,115.96963916015625,56.29536043579102,114.13727916015625,54.98880043579101,111.21151916015626C54.365257435791015,109.85112916015625,54.02055363579102,108.37961916015625,53.975040435791016,106.88383916015626L57.81504043579102,106.86590916015625L57.81504043579102,106.85567916015626C57.86115043579102,107.83049916015625,58.09680043579102,108.78698916015625,58.50880043579102,109.67167916015624C59.197640435791016,111.20591916015626,60.780600435791015,112.13751916015624,62.456320435791014,111.99486916015626C63.560550435791015,112.07505916015624,64.64714043579102,111.68448916015625,65.44764043579102,110.91966916015625C66.32554043579101,109.78777916015625,66.79344043579101,108.39161916015625,66.77504043579101,106.95934916015625C66.72944043579102,105.89779616015625,67.55394043579102,105.00068666015625,68.61554043579102,104.95681000015625C69.67714043579102,104.91293336015625,70.57294043579101,105.73893016015624,70.61504043579102,106.80062916015625C70.69474043579102,109.28211916015626,69.84014043579101,111.70312916015625,68.22014043579102,113.58462916015625C66.70154043579102,115.11293916015624,64.60874043579102,115.93003916015626,62.456320435791014,115.83483916015625Z" fill="#E83B71" fill-opacity="1"/></g><g><path d="M75.19999877929688,115.19616119384766C74.13961077929687,115.19616119384766,73.27999877929688,114.33656119384766,73.27999877929688,113.27616119384766L73.27999877929688,99.19616119384766C73.28000640868687,98.13577319384765,74.13961077929687,97.27616882323765,75.19999877929688,97.27616119384766C76.26038877929687,97.27616882323765,77.11999877929688,98.13578019384765,77.11999877929688,99.19616119384766L77.11999877929688,113.27616119384766C77.11999877929688,114.33656119384766,76.26037877929687,115.19616119384766,75.19999877929688,115.19616119384766Z" fill="#59C1F7" fill-opacity="1"/></g><g><path d="M86.61503900878907,115.19359337158204C86.07211900878906,115.19369337158203,85.55452900878906,114.96399337158203,85.19040900878906,114.56129337158202C82.83391900878907,111.95779337158203,78.98624900878906,107.72609337158204,78.34497100878906,107.07457337158203C77.99385800878906,106.78176337158203,77.75874300878907,106.37326337158203,77.68193100878906,105.92257337158203L77.43360900878906,104.50048337158204L78.58560900878906,103.93473337158203C79.38304900878906,103.27297337158203,82.90304900878907,100.02177337158203,85.30688900878906,97.78561437158203C86.08273900878906,97.06277437158204,87.29766900878906,97.10575837158203,88.02050900878906,97.88161437158203C88.74730900878906,98.65863337158203,88.70370900878906,99.87851337158203,87.92320900878906,100.60161337158203C87.90660900878906,100.61441337158203,86.16832900878906,102.23233337158203,84.43904900878906,103.82465337158203C83.60192900878906,104.59265337158203,82.90304900878907,105.23265337158203,82.34752900878907,105.73697337158202C83.07925900878907,106.53327337158203,83.80927900878906,107.33109337158203,84.53760900878906,108.13059337158204C86.27199900878907,110.03389337158202,88.02050900878906,111.97059337158203,88.03840900878906,111.98589337158204C88.54740900878906,112.54889337158203,88.67700900878906,113.35869337158204,88.36920900878906,114.05239337158203C88.06140900878907,114.74599337158203,87.37392900878906,115.19329337158203,86.61503900878907,115.19359337158204Z" fill="#59C1F7" fill-opacity="1"/></g><g><path d="M93.11872283935547,108.79999816894531C92.05833783935547,108.79999816894531,91.19872283935547,107.94039816894531,91.19872283935547,106.88000816894531L91.19872283935547,99.83999816894531C91.19872283935547,98.77961016894531,92.05833483935547,97.92000579833531,93.11872283935547,97.91999816894531C94.17911283935547,97.92000579833531,95.03872283935547,98.77961716894531,95.03872283935547,99.83999816894531L95.03872283935547,106.87999816894532C95.03872283935547,107.94039816894531,94.17910283935547,108.79999816894531,93.11872283935547,108.79999816894531Z" fill="#59C1F7" fill-opacity="1"/></g><g><path d="M105.91871826171875,108.79999816894531C104.85833726171875,108.79999816894531,103.99872589110875,107.94039816894531,103.99871826171875,106.88000816894531L103.99871826171875,99.83999816894531C103.99872589110875,98.77961016894531,104.85833026171875,97.92000579833531,105.91871826171875,97.91999816894531C106.97909826171875,97.92000579833531,107.83871826171875,98.77961716894531,107.83871826171875,99.83999816894531L107.83871826171875,106.87999816894532C107.83871826171875,107.94039816894531,106.97909826171875,108.79999816894531,105.91871826171875,108.79999816894531Z" fill="#59C1F7" fill-opacity="1"/></g><g><path d="M99.68000520996094,115.83483916015625C96.47859520996094,115.96963916015625,93.51904520996094,114.13727916015625,92.21247520996094,111.21151916015626C91.58892820996094,109.85113916015625,91.24422450996094,108.37961916015625,91.19871520996094,106.88383916015626L95.03871520996094,106.86590916015625L95.03871520996094,106.85567916015626C95.08482520996094,107.83049916015625,95.32047520996093,108.78698916015625,95.73247520996094,109.67167916015624C96.42131520996094,111.20590916015625,98.00427520996094,112.13751916015624,99.67999520996094,111.99486916015626C100.78421520996093,112.07505916015624,101.87081520996094,111.68448916015625,102.67131520996094,110.91966916015625C103.54921520996093,109.78776916015624,104.01711520996093,108.39161916015625,103.99871520996093,106.95934916015625C103.95311520996094,105.89779616015625,104.77761520996094,105.00068666015625,105.83921520996094,104.95681000015625C106.90081520996094,104.91293336015625,107.79661520996093,105.73893016015624,107.83871520996094,106.80062916015625C107.91841520996094,109.28211916015626,107.06381520996094,111.70312916015625,105.44381520996095,113.58462916015625C103.92521520996094,115.11293916015624,101.83241520996094,115.93003916015626,99.68000520996094,115.83483916015625Z" fill="#59C1F7" fill-opacity="1"/></g></g></g></svg>