<svg xmlns="http://www.w3.org/2000/svg" xmlns:xlink="http://www.w3.org/1999/xlink" fill="none" version="1.1" width="128" height="128" viewBox="0 0 128 128"><defs><clipPath id="master_svg0_43_629"><rect x="0" y="0" width="128" height="128" rx="0"/></clipPath></defs><g><g clip-path="url(#master_svg0_43_629)"><rect x="0" y="0" width="128" height="128" rx="0" fill="#FFFFFF" fill-opacity="1"/><g><path d="M55,78.6471L55,47.352900000000005L82,63.0536L55,78.6471ZM116.92,41.393699999999995Q115.863,33.95012,112.627,30.66871C108.5185,26.36353,103.915,26.34565,101.8045,26.0953Q86.6935,25,64.02250000000001,25L63.9775,25Q41.3065,25,26.1955,26.09529C24.0805,26.34565,19.4815,26.36353,15.368500000000001,30.66871Q12.133,33.95012,11.08,41.3981Q10,50.1336,10,58.8736L10,67.0772Q10,75.82169999999999,11.08,84.5661Q12.133,92.0097,15.368500000000001,95.2911C19.4815,99.5962,24.877000000000002,99.4576,27.28,99.9092Q35.92,100.7452,64,101Q86.6935,100.9642,101.8045,99.8734C103.9195,99.6186,108.5185,99.6007,112.627,95.2955Q115.867,92.0141,116.92,84.5661Q118,75.8261,118,67.08160000000001L118,58.8826Q118,50.1381,116.92,41.393699999999995Z" fill="#FF0000" fill-opacity="1"/></g></g></g></svg>