<svg t="1713883104115" class="icon" viewBox="0 0 1024 1024" version="1.1" xmlns="http://www.w3.org/2000/svg" p-id="33090" width="128" height="128"><path d="M524.6976 795.8528c0-130.048 105.472-235.3152 235.3152-235.3152 32.1536 0 62.8736 6.5536 90.9312 18.2272V301.8752L588.1856 39.1168H115.9168c-22.528 0-40.96 18.432-40.96 40.96V917.504c0 22.528 18.432 40.96 40.96 40.96h474.112c-40.3456-42.3936-65.3312-99.5328-65.3312-162.6112z m-250.6752-405.504h377.6512c22.528 0 40.96 18.432 40.96 40.96s-18.432 40.96-40.96 40.96H274.0224c-22.528 0-40.96-18.432-40.96-40.96s18.432-40.96 40.96-40.96z m173.056 312.5248h-172.8512c-22.528 0-40.96-18.432-40.96-40.96s18.432-40.96 40.96-40.96h172.8512c22.528 0 40.96 18.432 40.96 40.96s-18.432 40.96-40.96 40.96z" fill="#409EFF" p-id="33091"></path><path d="M588.1856 39.1168l262.7584 262.7584h-204.3904c-32.3584 0-58.368-26.2144-58.368-58.368V39.1168z" fill="#7BC0FF" p-id="33092"></path><path d="M760.0128 606.8224c-104.448 0-189.0304 84.5824-189.0304 189.0304s84.5824 189.0304 189.0304 189.0304 189.0304-84.5824 189.0304-189.0304-84.5824-189.0304-189.0304-189.0304z m-40.96 91.3408c0-22.528 18.432-40.96 40.96-40.96s40.96 18.432 40.96 40.96v80.4864c0 22.528-18.432 40.96-40.96 40.96s-40.96-18.432-40.96-40.96v-80.4864z m40.96 236.3392c-22.528 0-40.96-18.432-40.96-40.96s18.432-40.96 40.96-40.96 40.96 18.432 40.96 40.96-18.432 40.96-40.96 40.96z" fill="#409EFF" p-id="33093"></path></svg>