<svg t="1753974791332" class="icon" viewBox="0 0 1026 1024" version="1.1" xmlns="http://www.w3.org/2000/svg" p-id="2249"
     width="32" height="32">
    <path d="M417.28 174.08c12.8 35.84 53.76 30.72 94.72 30.72h448c35.84 0 64 30.72 64 64v581.12c0 35.84-28.16 64-64 64h-896c-35.84 0-64-30.72-64-64L2.56 174.08c0-35.84 28.16-64 64-64h286.72m0 0c30.72 2.56 56.32 38.4 64 64"
          fill="#1896E5" p-id="2250"></path>
    <path d="M1026.56 268.8C1026.56 235.52 998.4 204.8 962.56 204.8H514.56c-40.96-2.56-81.92 5.12-94.72-30.72-7.68-25.6-33.28-61.44-61.44-64H66.56C30.72 110.08 2.56 138.24 2.56 174.08v94.72h1024z"
          fill="#0F84DB" p-id="2251"></path>
    <path d="M642.56 555.52c30.72 0 53.76-23.04 56.32-53.76 0-30.72-23.04-53.76-53.76-56.32H642.56c-30.72 0-53.76 25.6-53.76 56.32 0 30.72 23.04 53.76 53.76 53.76z m94.72-181.76H291.84c-17.92 0-30.72 15.36-30.72 33.28v371.2c0 17.92 12.8 33.28 30.72 33.28h445.44c17.92 0 30.72-15.36 30.72-33.28V407.04c0-17.92-12.8-33.28-30.72-33.28z m-117.76 225.28c-2.56-5.12-7.68-7.68-15.36-7.68-5.12 0-10.24 2.56-15.36 7.68l-20.48 17.92c-5.12 2.56-7.68 5.12-12.8 5.12s-10.24-2.56-12.8-5.12c0-2.56-2.56-2.56-2.56-5.12l-61.44-66.56c-5.12-5.12-12.8-7.68-17.92-7.68-7.68 0-15.36 2.56-17.92 7.68l-143.36 174.08V424.96c0-7.68 7.68-12.8 15.36-12.8H719.36c7.68 0 15.36 5.12 15.36 12.8v294.4l-115.2-120.32z"
          fill="#FFFFFF" p-id="2252"></path>
</svg>