<svg t="1715243241486" class="icon" viewBox="0 0 1024 1024" version="1.1" xmlns="http://www.w3.org/2000/svg" p-id="3591" width="32" height="32"><path d="M510.8672 700.330667A184.32 184.32 0 0 1 326.845867 516.266667a184.32 184.32 0 0 1 184.064-184.106667 184.32 184.32 0 0 1 184.106666 184.106667 184.32 184.32 0 0 1-184.106666 184.064z" fill="#4285F4" p-id="3592"></path><path d="M588.4352 733.056a234.965333 234.965333 0 0 1-229.546667-39.509333 234.496 234.496 0 0 1-73.301333-106.88l-0.085333-0.256L82.621867 235.093333a507.392 507.392 0 0 0-72.789334 377.173334 507.562667 507.562667 0 0 0 216.746667 325.418666 507.477333 507.477333 0 0 0 194.432 78.506667l167.424-283.093333z" fill="#4AAE48" p-id="3593"></path><path d="M971.112533 286.165333a515.413333 515.413333 0 0 0-861.226666-96l171.349333 296.789334a230.101333 230.101333 0 0 1 225.024-200.789334H971.112533z" fill="#EA3939" p-id="3594"></path><path d="M508.861867 1024c128.426667 0 251.349333-48.170667 346.026666-135.594667a509.098667 509.098667 0 0 0 162.816-336.768 514.133333 514.133333 0 0 0-31.744-219.477333h-335.189333a234.922667 234.922667 0 0 1 89.173333 185.173333 235.904 235.904 0 0 1-50.432 144.256l-213.674666 361.386667c11.008 0.682667 22.101333 1.024 33.024 1.024z" fill="#FED14B" p-id="3595"></path></svg>