<svg t="1743869143997" class="icon" viewBox="0 0 1024 1024" version="1.1" xmlns="http://www.w3.org/2000/svg" p-id="3785" width="200" height="200"><path d="M865.39627266 377.25079727a191.78266525 191.78266525 0 0 1-8.46324921 56.7553711c-1.38427734 4.35058594-0.98876953 7.27672578 2.17529297 10.87646484a194.58984375 194.58984375 0 0 1 45.72054863 98.0859375c1.89797402 10.59914589 2.80795098 21.35742188 2.76855468 32.15432167A200.16634942 200.16634942 0 0 1 870.81519318 688.23812676a197.63494492 197.63494492 0 0 1-75.77991486 64.70492362 185.8098793 185.8098793 0 0 1-43.50585937 15.26721955 8.10791016 8.10791016 0 0 0-6.72286034 5.93261719c-21.67413712 58.17904473-61.69921875 98.48144531-120.234375 120.90642929a191.66293145 191.66293145 0 0 1-59.56409454 12.18194961c-52.20703125 2.53063203-98.63903047-12.37970352-139.21875-44.81134415a243.51385117 243.51385117 0 0 1-18.7866211-17.48113632 8.6223793 8.6223793 0 0 0-8.70117187-2.76855468c-47.85644531 8.42385292-93.49742889 1.89797402-135.8569336-21.91128732C207.19248009 789.2108078 173.93042756 742.06658554 161.66968537 680.80304337a185.37420273 185.37420273 0 0 1 5.18099784-90.80921174l0.8698082-2.76855468a5.53710938 5.53710938 0 0 0-1.34410858-6.24933243A197.2394371 197.2394371 0 0 1 117.05609512 463.03659629a192.49334335 192.49334335 0 0 1 22.1484375-104.21630859 197.20004082 197.20004082 0 0 1 91.16455078-88.51418495 187.5494957 187.5494957 0 0 1 42.08218575-14.5549965c3.28302383-0.4349041 5.93261719-2.76855469 6.76302909-5.93261718a193.40332031 193.40332031 0 0 1 52.9586506-80.01076697 205.58526993 205.58526993 0 0 1 233.54736328-29.82144357c18.82601738 9.80813027 35.75406074 22.66213417 50.15069961 38.08693886 3.36181641 3.59973908 6.52587891 4.35058594 11.31136894 3.55957031a201.6301918 201.6301918 0 0 1 114.85562325 12.57745744 196.155653 196.155653 0 0 1 68.30389023 47.14422225 198.70327949 198.70327949 0 0 1 55.05437851 135.89710236zM565.9968586 202.31738281c-1.30548477-1.26531601-2.17529297-2.21468926-3.1640625-3.00570488a149.9376297 149.9376297 0 0 0-108.52672577-30.84960938 144.75585938 144.75585938 0 0 0-83.2945633 35.99121094c-33.49920273 29.30697442-51.13869667 66.28695488-51.53420448 110.50503731-0.51446915 60.31494141-0.07956504 120.62988281-0.19775391 180.98344803-0.35611152 3.44138145 1.58203125 6.72440529 4.74609375 8.14807892 20.17089844 11.31136895 40.18343926 22.82049179 60.27554513 34.25159454 1.18652344 0.7106781 2.53063203 1.18575096 4.4293785 2.05633164V319.54528046c0-10.79767227 4.54833984-18.70782852 14.00113106-24.12597657L560.69689942 205.48144531l5.2991867-3.20345879zM267.2702713 310.96306992c-1.74038887 0.51446915-2.92768478 0.79101563-4.15283203 1.26608848a139.97036933 139.97036933 0 0 0-46.27441407 28.99103164c-36.38671875 34.60693359-52.7215004 76.76791192-46.74948692 126.32457734 5.93261719 48.56866837 30.81021308 85.82519531 73.44626427 110.70279121 52.64193535 30.65185547 105.83696365 60.43390274 158.71682167 90.6902504a7.47525215 7.47525215 0 0 0 8.58221054-0.07956504c19.89435196-11.46972656 39.82887268-22.78109551 59.80124473-34.13186074 1.46384239-0.79101563 2.7291584-1.70099258 4.43015099-2.84811973-1.46384239-1.02816582-2.53140449-1.81918145-3.63836288-2.45183946L334.11031914 551.11587715l-53.7890625-30.65185547a22.82049179 22.82049179 0 0 1-11.19318009-13.24951172 44.5340252 44.5340252 0 0 1-1.81918143-12.49866485 43550.51622391 43550.51622391 0 0 1 0-176.07976913v-7.67300606z m543.62548828 92.15332031a135.26367188 135.26367188 0 0 0-0.27731895-52.40478516c-10.67871094-50.90154648-39.82732773-88.03911209-88.27703476-108.68508339-47.0260334-20.05270958-93.33984375-16.2552166-137.83447266 9.09667969a88111.9426918 88111.9426918 0 0 1-155.83007812 88.75210762 6.28795625 6.28795625 0 0 0-3.75732422 6.16976738c0.15835762 23.57211113 0.07879257 47.06542969 0.07879257 70.63754082 0 1.10773087 0.19775391 2.17529297 0.39550781 3.95507812l8.58221054-4.86505508L572.16817092 337.06658554l46.90707208-26.73540115a28.00226212 28.00226212 0 0 1 16.61132812-3.95507813 31.16632462 31.16632462 0 0 1 12.97219277 4.62713242c27.09228516 15.50359726 54.18457031 30.96857071 81.31702422 46.39260292l77.4793625 44.13928985a31.91717148 31.91717148 0 0 0 3.44138145 1.58125878zM212.49243927 620.09259415c-0.63343048 8.38445663-1.38427734 15.50359726-1.58203125 22.66213417a136.88509942 136.88509942 0 0 0 19.37988281 75.9375c31.83837891 52.68210411 79.49707031 77.44073868 141.31447792 75.14648438 24.20554161-0.83041192 46.66992188-8.77996445 67.59243965-20.88234902 22.70230293-13.13132286 45.56296348-26.06411933 68.38345528-39.03708458a31247.64318466 31247.64318466 0 0 1 87.40722656-49.71502305 6.92138672 6.92138672 0 0 0 3.95507813-7.00095176c-0.11896133-22.89928437-0.03939629-45.80011368-0.07879257-68.66000175 0-1.58203125-0.15835762-3.08449746-0.27731896-5.14160156-1.85857773 0.94937324-3.1640625 1.54263496-4.4293785 2.25485801a16213.7207222 16213.7207222 0 0 0-61.50146485 35.08123398l-87.80273438 50.03173828-40.8956623 23.29556465a25.35266876 25.35266876 0 0 1-26.42023087 0l-3.91490936-2.17529297L229.89478302 629.98028946c-5.41892051-3.1640625-10.83784103-6.17053985-17.40234374-9.88769531z m336.06267929-228.16861153c1.58203125 1.02816582 2.33287812 1.66082382 3.1640625 2.09572792 40.73730469 23.29556465 81.47460938 46.51233672 122.17251778 69.68894004l69.68816757 39.70913888c5.89399338 3.1640625 10.20441055 8.62160683 11.86523437 15.02929687a34.87112046 34.87112046 0 0 1 1.26608849 9.68994141c0.07879257 59.95882988 0.07879257 119.95782852 0 179.95605469v5.06203652c2.80795098-1.02816582 5.14160156-1.81918145 7.3956871-2.76855469 17.63949395-7.31689453 33.61816406-17.99560547 46.98663711-31.48226739 31.16555214-31.48226738 46.51079178-69.21386719 43.664217-113.2341957-3.44138145-52.3646164-28.4765625-92.31090547-73.76220703-119.71990586-14.9505043-9.0572834-30.33514023-17.48113632-45.56296349-26.06334687L621.48691368 354.82426834a7.11914063 7.11914063 0 0 0-8.14730644 0.11896134c-13.56622696 7.91015625-27.25064277 15.5831623-40.85626603 23.29556465l-23.92822265 13.68441582z m86.69500351 91.56005859V703.50457382c0 10.95602989-4.11266328 19.30109024-13.84277343 24.75940705l-79.65465547 45.3644371-80.01153946 45.64175605c-1.18652344 0.67205429-2.2942543 1.58203125-3.83611679 2.64959336 1.81918145 1.46384239 3.1640625 2.68976212 4.58773614 3.75732422 43.90136719 31.52243614 91.7578125 39.27423477 142.97607421 21.39759063A147.40545273 147.40545273 0 0 0 704.4238205 710.10924531c0.31671524-60.9869957 0-121.97476387 0.11896133-182.92236329a7.04034805 7.04034805 0 0 0-4.0338707-7.07974435c-20.44744492-11.46972656-40.73730469-23.13720703-61.14612579-34.7652912-0.90920449-0.55386543-1.97753906-0.8698082-4.11266327-1.85857773z m-210.25179863 78.11279297l87.01171875 49.55666542 86.53741837-49.31951523a9.88769531 9.88769531 0 0 0 0.31671524-1.46306991c0-31.68079375 0-63.40021133 0.11818885-95.11962891 0-2.61096954-1.30548477-3.67853165-3.32164763-4.82565879a32098.22753906 32098.22753906 0 0 1-76.17542268-43.34750176l-7.51464844-4.15283203-3.04510117 1.66082382-80.52523612 45.72132111a6.13037109 6.13037109 0 0 0-3.48077774 6.24933242c0.11896133 22.38481522 0 44.77117538 0 67.19615937l0.03939628 27.84390449z" fill="#ffffff" p-id="3786"></path></svg>