<svg xmlns="http://www.w3.org/2000/svg" xmlns:xlink="http://www.w3.org/1999/xlink" fill="none" version="1.1" width="120" height="120" viewBox="0 0 120 120"><g><g><rect x="0" y="0" width="120" height="120" rx="0" fill="#FFFFFF" fill-opacity="1"/></g><g><path d="M16.924,71L32.870000000000005,71L32.870000000000005,65.9L23.009999999999998,65.9L23.009999999999998,45.67L16.924,45.67L16.924,71ZM46.232,71.476C53.134,71.476,57.826,66.512,57.826,58.216C57.826,49.954,53.134,45.228,46.232,45.228C39.33,45.228,34.638000000000005,49.92,34.638000000000005,58.216C34.638000000000005,66.512,39.33,71.476,46.232,71.476ZM46.232,66.24000000000001C42.9,66.24000000000001,40.86,63.111999999999995,40.86,58.216C40.86,53.32,42.9,50.43,46.232,50.43C49.564,50.43,51.638,53.32,51.638,58.216C51.638,63.111999999999995,49.564,66.24000000000001,46.232,66.24000000000001ZM73.908,71.476C77.444,71.476,80.572,70.082,82.34,68.382L82.34,56.55L72.922,56.55L72.922,61.513999999999996L76.934,61.513999999999996L76.934,65.594C76.39,66.00200000000001,75.438,66.24000000000001,74.554,66.24000000000001C69.828,66.24000000000001,67.584,63.316,67.584,58.284C67.584,53.354,70.27000000000001,50.43,74.00999999999999,50.43C76.118,50.43,77.444,51.28,78.702,52.402L81.898,48.525999999999996C80.164,46.792,77.512,45.228,73.806,45.228C67.03999999999999,45.228,61.362,50.056,61.362,58.488C61.362,67.056,66.904,71.476,73.908,71.476ZM97.878,71.476C104.78,71.476,109.472,66.512,109.472,58.216C109.472,49.954,104.78,45.228,97.878,45.228C90.976,45.228,86.284,49.92,86.284,58.216C86.284,66.512,90.976,71.476,97.878,71.476ZM97.878,66.24000000000001C94.546,66.24000000000001,92.506,63.111999999999995,92.506,58.216C92.506,53.32,94.546,50.43,97.878,50.43C101.21,50.43,103.284,53.32,103.284,58.216C103.284,63.111999999999995,101.21,66.24000000000001,97.878,66.24000000000001Z" fill="#000000" fill-opacity="1"/></g></g></svg>