<svg xmlns="http://www.w3.org/2000/svg" xmlns:xlink="http://www.w3.org/1999/xlink" fill="none" version="1.1"
     width="312.627197265625" height="240.80917358398438" viewBox="0 0 312.627197265625 240.80917358398438">
    <defs>
        <filter id="master_svg0_0_561" filterUnits="objectBoundingBox" color-interpolation-filters="sRGB"
                x="-0.196850399132096" y="-1.0204082179934895" width="1.393700798264192" height="3.040816435986979">
            <feFlood flood-opacity="0" result="BackgroundImageFix"/>
            <feBlend mode="normal" in="SourceGraphic" in2="BackgroundImageFix" result="shape"/>
            <feGaussianBlur stdDeviation="10.886497497558594" result="effect1_foregroundBlur"/>
        </filter>
        <linearGradient x1="0.496145635843277" y1="-0.162812277674675" x2="0.5063883066177369" y2="1.5931119918823242"
                        id="master_svg1_0_244">
            <stop offset="0%" stop-color="#CAE0FF" stop-opacity="0"/>
            <stop offset="100%" stop-color="#BCD8FF" stop-opacity="1"/>
        </linearGradient>
        <filter id="master_svg2_0_565" filterUnits="objectBoundingBox" color-interpolation-filters="sRGB"
                x="-0.035442502804816006" y="-0.025992561374541073" width="1.070885005609632"
                height="1.1039702454981644">
            <feFlood flood-opacity="0" result="BackgroundImageFix"/>
            <feColorMatrix in="SourceAlpha" type="matrix" values="0 0 0 0 0 0 0 0 0 0 0 0 0 0 0 0 0 0 127 0"/>
            <feOffset dy="3.4836790561676025" dx="0"/>
            <feGaussianBlur stdDeviation="1.7418395280838013"/>
            <feColorMatrix type="matrix" values="0 0 0 0 0 0 0 0 0 0 0 0 0 0 0 0 0 0 0.25 0"/>
            <feBlend mode="normal" in2="BackgroundImageFix" result="effect1_dropShadow"/>
            <feBlend mode="normal" in="SourceGraphic" in2="effect1_dropShadow" result="shape"/>
        </filter>
        <linearGradient x1="0.5" y1="-3.0616171314629196e-17" x2="0.5" y2="1" id="master_svg3__00290">
            <stop offset="0%" stop-color="#EDF4FF" stop-opacity="1"/>
            <stop offset="100%" stop-color="#ABCCFF" stop-opacity="1"/>
        </linearGradient>
        <linearGradient x1="0.5" y1="-1.91428440227847e-16" x2="0.5" y2="1" id="master_svg4__00246">
            <stop offset="0%" stop-color="#ABCCFF" stop-opacity="1"/>
            <stop offset="100%" stop-color="#70A8FF" stop-opacity="1"/>
        </linearGradient>
        <filter id="master_svg5_0_567" filterUnits="objectBoundingBox" color-interpolation-filters="sRGB"
                x="-0.5952381448988556" y="-1.8518519419769324" width="2.1904762897977115" height="4.703703883953865">
            <feFlood flood-opacity="0" result="BackgroundImageFix"/>
            <feBlend mode="normal" in="SourceGraphic" in2="BackgroundImageFix" result="shape"/>
            <feGaussianBlur stdDeviation="10.886497497558594" result="effect1_foregroundBlur"/>
        </filter>
        <linearGradient x1="0.5" y1="-1.91428440227847e-16" x2="0.5" y2="1" id="master_svg6__00246">
            <stop offset="0%" stop-color="#ABCCFF" stop-opacity="1"/>
            <stop offset="100%" stop-color="#70A8FF" stop-opacity="1"/>
        </linearGradient>
        <linearGradient x1="0.5" y1="3.0616171314629196e-17" x2="0.5" y2="1" id="master_svg7__00248">
            <stop offset="0%" stop-color="#70A8FF" stop-opacity="1"/>
            <stop offset="100%" stop-color="#5597FD" stop-opacity="1"/>
        </linearGradient>
        <filter id="master_svg8_0_574" filterUnits="objectBoundingBox" color-interpolation-filters="sRGB"
                x="-0.1860459371737021" y="-0.2656993567125147" width="1.3720918743474042" height="1.637678453200575">
            <feFlood flood-opacity="0" result="BackgroundImageFix"/>
            <feColorMatrix in="SourceAlpha" type="matrix" values="0 0 0 0 0 0 0 0 0 0 0 0 0 0 0 0 0 0 127 0"/>
            <feOffset dy="3.4836790561676025" dx="0"/>
            <feGaussianBlur stdDeviation="5.225518703460693"/>
            <feColorMatrix type="matrix"
                           values="0 0 0 0 0.019607843831181526 0 0 0 0 0.16862745583057404 0 0 0 0 0.3960784375667572 0 0 0 0.15000000596046448 0"/>
            <feBlend mode="normal" in2="BackgroundImageFix" result="effect1_dropShadow"/>
            <feBlend mode="normal" in="SourceGraphic" in2="effect1_dropShadow" result="shape"/>
        </filter>
        <linearGradient x1="0.8914729356765747" y1="0.44504621624946594" x2="0.22017332608092036"
                        y2="0.3685586853352929" id="master_svg9__00285">
            <stop offset="0%" stop-color="#C6DDFF" stop-opacity="1"/>
            <stop offset="100%" stop-color="#FFFFFF" stop-opacity="1"/>
        </linearGradient>
        <linearGradient x1="0.0047812084667384624" y1="0.06728098541498184" x2="1.0006134332300625"
                        y2="1.0033605566765904" id="master_svga__00319">
            <stop offset="0%" stop-color="#FF698D" stop-opacity="1"/>
            <stop offset="100%" stop-color="#FF3868" stop-opacity="1"/>
        </linearGradient>
        <filter id="master_svgb_0_587" filterUnits="objectBoundingBox" color-interpolation-filters="sRGB"
                x="-0.25612374626228057" y="-0.20816653652124356" width="1.434727876778245" height="1.7450170427159162">
            <feFlood flood-opacity="0" result="BackgroundImageFix"/>
            <feColorMatrix in="SourceAlpha" type="matrix" values="0 0 0 0 0 0 0 0 0 0 0 0 0 0 0 0 0 0 127 0"/>
            <feOffset dy="13.063796043395996" dx="-5.280210018157959"/>
            <feGaussianBlur stdDeviation="7.402818202972412"/>
            <feColorMatrix type="matrix"
                           values="0 0 0 0 0.021440982818603516 0 0 0 0 0.1680562049150467 0 0 0 0 0.3958333432674408 0 0 0 0.15000000596046448 0"/>
            <feBlend mode="normal" in2="BackgroundImageFix" result="effect1_dropShadow"/>
            <feBlend mode="normal" in="SourceGraphic" in2="effect1_dropShadow" result="shape"/>
        </filter>
        <linearGradient x1="0.8914729356765747" y1="0.44504621624946594" x2="0.22017322869035796"
                        y2="0.36855767422119556" id="master_svgc__00285">
            <stop offset="0%" stop-color="#C6DDFF" stop-opacity="1"/>
            <stop offset="100%" stop-color="#FFFFFF" stop-opacity="1"/>
        </linearGradient>
        <linearGradient x1="-0.1145833358168602" y1="0.1875" x2="1.4479166269302366" y2="1.5416666269302368"
                        id="master_svgd__00322">
            <stop offset="0%" stop-color="#94BFFF" stop-opacity="1"/>
            <stop offset="100%" stop-color="#4C94FE" stop-opacity="1"/>
        </linearGradient>
        <linearGradient x1="-0.1145833358168602" y1="0.1875" x2="1.4479166269302366" y2="1.5416666269302368"
                        id="master_svge__00322">
            <stop offset="0%" stop-color="#94BFFF" stop-opacity="1"/>
            <stop offset="100%" stop-color="#4C94FE" stop-opacity="1"/>
        </linearGradient>
        <linearGradient x1="-0.1145833358168602" y1="0.1875" x2="1.4479166269302366" y2="1.5416666269302368"
                        id="master_svgf__00322">
            <stop offset="0%" stop-color="#94BFFF" stop-opacity="1"/>
            <stop offset="100%" stop-color="#4C94FE" stop-opacity="1"/>
        </linearGradient>
        <linearGradient x1="0.5" y1="3.0616171314629196e-17" x2="0.5" y2="1" id="master_svgg__00248">
            <stop offset="0%" stop-color="#70A8FF" stop-opacity="1"/>
            <stop offset="100%" stop-color="#5597FD" stop-opacity="1"/>
        </linearGradient>
        <linearGradient x1="0.5" y1="3.0616171314629196e-17" x2="0.5" y2="1" id="master_svgh__00248">
            <stop offset="0%" stop-color="#70A8FF" stop-opacity="1"/>
            <stop offset="100%" stop-color="#5597FD" stop-opacity="1"/>
        </linearGradient>
        <linearGradient x1="0.5" y1="3.0616171314629196e-17" x2="0.5" y2="1" id="master_svgi__00248">
            <stop offset="0%" stop-color="#70A8FF" stop-opacity="1"/>
            <stop offset="100%" stop-color="#5597FD" stop-opacity="1"/>
        </linearGradient>
        <linearGradient x1="0.5" y1="3.0616171314629196e-17" x2="0.5" y2="1" id="master_svgj__00248">
            <stop offset="0%" stop-color="#70A8FF" stop-opacity="1"/>
            <stop offset="100%" stop-color="#5597FD" stop-opacity="1"/>
        </linearGradient>
    </defs>
    <g>
        <g filter="url(#master_svg0_0_561)">
            <ellipse cx="152.4117431640625" cy="186.81214332580566" rx="110.6068115234375" ry="21.337533950805664"
                     fill="#1F88F8" fill-opacity="0.3499999940395355"/>
        </g>
        <g>
            <path d="M153.627025390625,229.402C216.975025390625,229.402,268.328025390625,178.049,268.328025390625,114.701C268.328025390625,51.3534,216.975025390625,0,153.627025390625,0C90.279425390625,0,38.926025390625,51.3534,38.926025390625,114.701C38.926025390625,178.049,90.279425390625,229.402,153.627025390625,229.402C153.627025390625,229.402,153.627025390625,229.402,153.627025390625,229.402Z"
                  fill="url(#master_svg1_0_244)" fill-opacity="1"/>
        </g>
        <g filter="url(#master_svg2_0_565)">
            <path d="M249.708708984375,77.62397109375C249.708708984375,77.62397109375,151.417508984375,146.21887109375,151.417508984375,146.21887109375C151.417508984375,146.21887109375,53.126708984375,77.62397109375,53.126708984375,77.62397109375C53.126708984375,77.62397109375,143.10420898437502,14.805361093750001,143.10420898437502,14.805361093750001C145.544408984375,13.10466109375,148.44720898437498,12.192871093749996,151.421508984375,12.19287109375C154.395708984375,12.192871093749996,157.298708984375,13.10466109375,159.738708984375,14.805361093750001C159.738708984375,14.805361093750001,177.686708984375,27.35277109375,177.686708984375,27.35277109375C177.686708984375,27.35277109375,182.386708984375,30.61607109375,182.386708984375,30.61607109375C182.386708984375,30.61607109375,229.703708984375,63.65707109375,229.703708984375,63.65707109375C229.703708984375,63.65707109375,234.688708984375,67.15697109375,234.688708984375,67.15697109375C234.688708984375,67.15697109375,249.708708984375,77.62397109375,249.708708984375,77.62397109375C249.708708984375,77.62397109375,249.708708984375,77.62397109375,249.708708984375,77.62397109375Z"
                  fill="url(#master_svg3__00290)" fill-opacity="1"/>
        </g>
        <g>
            <path d="M135.435408984375,135.0663234375C135.435408984375,135.0663234375,53.126708984375,193.5940234375,53.126708984375,193.5940234375C53.126708984375,193.5940234375,53.126708984375,77.6240234375,53.126708984375,77.6240234375C53.126708984375,77.6240234375,135.435408984375,135.0663234375,135.435408984375,135.0663234375C135.435408984375,135.0663234375,135.435408984375,135.0663234375,135.435408984375,135.0663234375Z"
                  fill="url(#master_svg4__00246)" fill-opacity="1"/>
        </g>
        <g filter="url(#master_svg5_0_567)">
            <ellipse cx="199.44119262695312" cy="75.33456516265869" rx="36.57862854003906" ry="11.757416725158691"
                     fill="#FF4C77" fill-opacity="0.30000001192092896"/>
        </g>
        <g>
            <path d="M167.40748596191406,135.0663234375C167.40748596191406,135.0663234375,249.71618596191405,193.5940234375,249.71618596191405,193.5940234375C249.71618596191405,193.5940234375,249.71618596191405,77.6240234375,249.71618596191405,77.6240234375C249.71618596191405,77.6240234375,167.40748596191406,135.0663234375,167.40748596191406,135.0663234375C167.40748596191406,135.0663234375,167.40748596191406,135.0663234375,167.40748596191406,135.0663234375Z"
                  fill="url(#master_svg6__00246)" fill-opacity="1"/>
        </g>
        <g>
            <path d="M53.126708984375,193.593815234375C53.126708984375,193.593815234375,142.998108984375,129.698285234375,142.998108984375,129.698285234375C145.45770898437502,127.946825234375,148.402108984375,127.00561523437503,151.421508984375,127.005615234375C154.440708984375,127.00561523437503,157.38570898437501,127.946825234375,159.84470898437502,129.698285234375C159.84470898437502,129.698285234375,249.708708984375,193.593815234375,249.708708984375,193.593815234375C249.708708984375,193.593815234375,53.126708984375,193.593815234375,53.126708984375,193.593815234375C53.126708984375,193.593815234375,53.126708984375,193.593815234375,53.126708984375,193.593815234375Z"
                  fill="url(#master_svg7__00248)" fill-opacity="1"/>
        </g>
        <g>
            <path d="M194.806353828125,73.11328945312499L198.336473828125,73.11328945312499C197.55667382812499,66.322389453125,205.39657382812499,63.770589453125,205.39657382812499,57.419189453125C205.39657382812499,52.655689453125,202.178473828125,49.692689453125,197.244773828125,49.692689453125C193.728893828125,49.692689453125,190.936013828125,51.393989453125,188.937043828125,53.704889453125L191.191203828125,55.774689453125C192.722323828125,54.045089453125,194.636223828125,53.010189453125,196.819493828125,53.010189453125C199.952673828125,53.010189453125,201.512073828125,55.079989453124995,201.512073828125,57.674389453125C201.512073828125,62.820689453125,193.771423828125,65.585189453125,194.806353828125,73.11328945312499ZM196.677723828125,83.26398945312499C198.293873828125,83.26398945312499,199.598173828125,82.04478945312499,199.598173828125,80.272689453125C199.598173828125,78.42968945312501,198.293873828125,77.210389453125,196.677723828125,77.210389453125C195.075713828125,77.210389453125,193.856483828125,78.42968945312501,193.856483828125,80.272689453125C193.856483828125,82.04478945312499,195.075713828125,83.26398945312499,196.677723828125,83.26398945312499Z"
                  fill="#FFFFFF" fill-opacity="1"/>
        </g>
        <g transform="matrix(-1,0,0,1,256.0513000488281,0)" filter="url(#master_svg8_0_574)">
            <path d="M192.53915002441406,56.60980224609375C207.60775002441406,63.65854224609375,223.80025002441408,67.99760224609375,240.37465002441405,69.42800224609375C238.13465002441404,74.63390224609375,222.22245002441406,100.69270224609375,174.98655002441407,122.16450224609375C173.70965002441406,122.36100224609375,144.21295002441406,108.63910224609376,128.02565002441406,99.22920224609375C128.57570502441405,100.01500224609376,178.30655002441407,81.71590224609375,192.53915002441406,56.60980224609375C192.53915002441406,56.60980224609375,192.53915002441406,56.60980224609375,192.53915002441406,56.60980224609375Z"
                  fill="url(#master_svg9__00285)" fill-opacity="1"/>
        </g>
        <g>
            <path d="M200.570858203125,85.129509375C218.683758203125,85.129509375,233.367158203125,70.446209375,233.367158203125,52.333309375C233.367158203125,34.220509375,218.683758203125,19.537109375,200.570858203125,19.537109375C182.458058203125,19.537109375,167.774658203125,34.220509375,167.774658203125,52.333309375C167.774658203125,70.446209375,182.458058203125,85.129509375,200.570858203125,85.129509375C200.570858203125,85.129509375,200.570858203125,85.129509375,200.570858203125,85.129509375Z"
                  fill="url(#master_svga__00319)" fill-opacity="1"/>
        </g>
        <g>
            <path d="M197.801025390625,65.0156L202.301025390625,65.0156C201.301025390625,56.3125,211.285425390625,53.0469,211.285425390625,44.8906C211.285425390625,38.7812,207.176025390625,35,200.910425390625,35C196.410405390625,35,192.863525390625,37.1719,190.301025390625,40.125L193.191645390625,42.7812C195.129145390625,40.5625,197.582275390625,39.2344,200.347925390625,39.2344C204.347925390625,39.2344,206.347925390625,41.8906,206.347925390625,45.2188C206.347925390625,51.8281,196.472905390625,55.375,197.801025390625,65.0156ZM200.191625390625,78C202.238525390625,78,203.910425390625,76.4531,203.910425390625,74.1719C203.910425390625,71.8438,202.238525390625,70.2969,200.191625390625,70.2969C198.129125390625,70.2969,196.582275390625,71.8438,196.582275390625,74.1719C196.582275390625,76.4531,198.129125390625,78,200.191625390625,78Z"
                  fill="#FFFFFF" fill-opacity="1"/>
        </g>
        <g transform="matrix(-0.9445327520370483,0.3284171521663666,0.3284171521663666,0.9445327520370483,102.72966150914067,-17.350275608018592)">
            <path d="M64.48561516259765,69.59852540771485C64.98258516259766,68.91637540771484,65.76946416259766,68.50527140771484,66.61324416259765,68.48693540771484C66.61324416259765,68.48693540771484,94.31610416259765,67.88495210771484,94.31610416259765,67.88495210771484C95.30850416259766,67.86338760771484,96.00840416259766,68.85161840771484,95.65860416259765,69.78057540771485C95.65860416259765,69.78057540771485,95.65860416259765,69.78057540771485,95.65860416259765,69.78057540771485C95.37700416259766,70.52863540771484,94.66290416259766,71.02526540771484,93.86350416259765,71.02896540771485C93.86350416259765,71.02896540771485,65.28522516259765,71.16142540771484,65.28522516259765,71.16142540771484C64.47881516259766,71.16516540771484,64.01075616259766,70.25030540771485,64.48561516259765,69.59852540771485C64.48561516259765,69.59852540771485,64.48561516259765,69.59852540771485,64.48561516259765,69.59852540771485C64.48561516259765,69.59852540771485,64.48561516259765,69.59852540771485,64.48561516259765,69.59852540771485Z"
                  fill="#C9DFFF" fill-opacity="1"/>
        </g>
        <g transform="matrix(-0.9445327520370483,0.3284171521663666,0.3284171521663666,0.9445327520370483,98.28507690302581,-16.599617949525737)">
            <path d="M63.92281448681641,80.12150953369141C64.3482094868164,79.3088645336914,65.18604648681641,78.79601853369141,66.1032564868164,78.7868565336914C66.1032564868164,78.7868565336914,85.35953648681641,78.59452288289141,85.35953648681641,78.59452288289141C86.2087364868164,78.58604190369141,86.8032364868164,79.4306115336914,86.5087364868164,80.22707953369141C86.5087364868164,80.22707953369141,86.5087364868164,80.22707953369141,86.5087364868164,80.22707953369141C86.2682364868164,80.87778953369141,85.64973648681641,81.31147953369141,84.9560364868164,81.31594953369141C84.9560364868164,81.31594953369141,64.73057948681641,81.4464295336914,64.73057948681641,81.4464295336914C64.0477774868164,81.4508295336914,63.60614548681641,80.72644953369141,63.92281448681641,80.12150953369141C63.92281448681641,80.12150953369141,63.92281448681641,80.12150953369141,63.92281448681641,80.12150953369141C63.92281448681641,80.12150953369141,63.92281448681641,80.12150953369141,63.92281448681641,80.12150953369141Z"
                  fill="#C9DFFF" fill-opacity="1"/>
        </g>
        <g transform="matrix(-0.9368219375610352,0.349806547164917,0.349806547164917,0.9368219375610352,113.28189638807089,-20.45967425881554)">
            <path d="M73.76988645288085,85.31770316894531C74.22808745288086,84.55012916894532,75.05325545288086,84.07691116894532,75.94715545288086,84.06908216894531C75.94715545288086,84.06908216894531,98.31514545288086,83.87317243704531,98.31514545288086,83.87317243704531C99.19304545288085,83.86548328894531,99.79184545288086,84.75921816894531,99.45074545288085,85.5682131689453C99.45074545288085,85.5682131689453,99.45074545288085,85.5682131689453,99.45074545288085,85.5682131689453C99.18984545288086,86.18713316894531,98.58514545288085,86.59094316894532,97.91344545288086,86.59474316894531C97.91344545288086,86.59474316894531,74.57504745288085,86.72676316894531,74.57504745288085,86.72676316894531C73.84953345288086,86.73086316894532,73.39800145288086,85.94067316894531,73.76988645288085,85.31770316894531C73.76988645288085,85.31770316894531,73.76988645288085,85.31770316894531,73.76988645288085,85.31770316894531C73.76988645288085,85.31770316894531,73.76988645288085,85.31770316894531,73.76988645288085,85.31770316894531Z"
                  fill="#C9DFFF" fill-opacity="1"/>
        </g>
        <g transform="matrix(-0.9291931390762329,0.3695944547653198,0.3695944547653198,0.9291931390762329,119.1039581134064,-22.817911107509644)">
            <path d="M80.84357165244141,101.14467296630859C81.1800727524414,100.2420389663086,82.0361937524414,99.6385739663086,82.9994237524414,99.6250649663086C82.9994237524414,99.6250649663086,95.8581837524414,99.44472491630859,95.8581837524414,99.44472491630859C96.6477837524414,99.4336510663086,97.23028375244141,100.1785699663086,97.0292837524414,100.94222296630859C97.0292837524414,100.94222296630859,97.0292837524414,100.94222296630859,97.0292837524414,100.94222296630859C96.84088375244141,101.6578529663086,96.19688375244141,102.15890296630859,95.4568837524414,102.1656129663086C95.4568837524414,102.1656129663086,81.6471187524414,102.2907029663086,81.6471187524414,102.2907029663086C81.0515427524414,102.29609296630859,80.6355177524414,101.7027629663086,80.84357165244141,101.14467296630859C80.84357165244141,101.14467296630859,80.84357165244141,101.14467296630859,80.84357165244141,101.14467296630859C80.84357165244141,101.14467296630859,80.84357165244141,101.14467296630859,80.84357165244141,101.14467296630859Z"
                  fill="#C9DFFF" fill-opacity="1"/>
        </g>
        <g>
            <g filter="url(#master_svgb_0_587)">
                <path d="M237.696470703125,92.95068359375C255.967970703125,101.49769359375,275.601970703125,106.75908359375,295.69897070312504,108.49358359375C292.983970703125,114.80598359375,273.688970703125,146.40388359375,216.412870703125,172.43968359375C214.864570703125,172.67788359374998,179.098070703125,156.03928359374999,159.469970703125,144.62928359375002C160.136944703125,145.58208359374999,220.438570703125,123.39328359375,237.696470703125,92.95068359375C237.696470703125,92.95068359375,237.696470703125,92.95068359375,237.696470703125,92.95068359375Z"
                      fill="url(#master_svgc__00285)" fill-opacity="1"/>
            </g>
            <g transform="matrix(0.9445327520370483,0.3284171521663666,-0.3284171521663666,0.9445327520370483,48.14833258656776,-71.83785074094374)">
                <path d="M236.97825448828124,108.70057592437745C237.58086448828124,107.87342592437744,238.53500548828126,107.37493992437744,239.55814548828124,107.35270692437744C239.55814548828124,107.35270692437744,273.14947548828127,106.62276631937745,273.14947548828127,106.62276631937745C274.35287548828126,106.59661802437743,275.20147548828123,107.79490592437745,274.7773754882812,108.92131592437744C274.7773754882812,108.92131592437744,274.7773754882812,108.92131592437744,274.7773754882812,108.92131592437744C274.43577548828125,109.82838592437744,273.56987548828124,110.43057592437744,272.60067548828124,110.43506592437744C272.60067548828124,110.43506592437744,237.94784548828125,110.59568592437743,237.94784548828125,110.59568592437743C236.97002448828124,110.60021592437744,236.40246648828125,109.49089592437744,236.97825448828124,108.70057592437745C236.97825448828124,108.70057592437745,236.97825448828124,108.70057592437745,236.97825448828124,108.70057592437745C236.97825448828124,108.70057592437745,236.97825448828124,108.70057592437745,236.97825448828124,108.70057592437745Z"
                      fill="#C9DFFF" fill-opacity="1"/>
            </g>
            <g transform="matrix(0.9445327520370483,0.3284171521663666,-0.3284171521663666,0.9445327520370483,50.530711361691715,-68.42019932779795)">
                <path d="M227.94742574609376,117.23575331176758C228.46323674609374,116.25037231176758,229.47917974609376,115.62851531176757,230.59134974609375,115.61740631176758C230.59134974609375,115.61740631176758,253.94073974609375,115.38419012666758,253.94073974609375,115.38419012666758C254.97033974609374,115.37390641176758,255.69123974609374,116.39799331176758,255.33423974609374,117.36377331176757C255.33423974609374,117.36377331176757,255.33423974609374,117.36377331176757,255.33423974609374,117.36377331176757C255.04253974609375,118.15279331176758,254.29263974609376,118.67866331176758,253.45143974609374,118.68409331176758C253.45143974609374,118.68409331176758,228.92688974609376,118.84229331176758,228.92688974609376,118.84229331176758C228.09895074609375,118.84763331176758,227.56344574609375,117.96928331176758,227.94742574609376,117.23575331176758C227.94742574609376,117.23575331176758,227.94742574609376,117.23575331176758,227.94742574609376,117.23575331176758C227.94742574609376,117.23575331176758,227.94742574609376,117.23575331176758,227.94742574609376,117.23575331176758Z"
                      fill="#C9DFFF" fill-opacity="1"/>
            </g>
            <g transform="matrix(0.9368219375610352,0.349806547164917,-0.349806547164917,0.9368219375610352,56.67730481981198,-68.72400300325626)">
                <path d="M218.7569114284668,124.29613462890624C219.3125114284668,123.36540562890625,220.3130804284668,122.79160062890625,221.3969804284668,122.78210762890625C221.3969804284668,122.78210762890625,248.5194704284668,122.54455436980625,248.5194704284668,122.54455436980625C249.58397042846678,122.53523076890625,250.3100704284668,123.61894462890625,249.89647042846678,124.59989462890626C249.89647042846678,124.59989462890626,249.89647042846678,124.59989462890626,249.89647042846678,124.59989462890626C249.5801704284668,125.35036462890625,248.8468704284668,125.84000462890626,248.0323704284668,125.84461462890626C248.0323704284668,125.84461462890626,219.7332204284668,126.00470462890625,219.7332204284668,126.00470462890625C218.8534914284668,126.00967462890625,218.3059784284668,125.05152462890625,218.7569114284668,124.29613462890624C218.7569114284668,124.29613462890624,218.7569114284668,124.29613462890624,218.7569114284668,124.29613462890624C218.7569114284668,124.29613462890624,218.7569114284668,124.29613462890624,218.7569114284668,124.29613462890624Z"
                      fill="#C9DFFF" fill-opacity="1"/>
            </g>
            <g transform="matrix(0.9291931390762329,0.3695944547653198,-0.3695944547653198,0.9291931390762329,64.45766670990633,-63.569309873870225)">
                <path d="M198.20283506699218,138.50344134277344C198.61086266699218,137.40894134277343,199.64896866699218,136.67720334277342,200.8169386669922,136.66082334277343C200.8169386669922,136.66082334277343,216.40890866699218,136.44214921377343,216.40890866699218,136.44214921377343C217.36630866699218,136.42872154277345,218.07270866699218,137.33198034277345,217.8289086669922,138.25795134277342C217.8289086669922,138.25795134277342,217.8289086669922,138.25795134277342,217.8289086669922,138.25795134277342C217.6004086669922,139.12570134277343,216.8196086669922,139.73325134277343,215.9223086669922,139.74138134277345C215.9223086669922,139.74138134277345,199.17718866699218,139.89306134277345,199.17718866699218,139.89306134277345C198.45501466699218,139.89960134277345,197.95055866699218,139.18015134277343,198.20283506699218,138.50344134277344C198.20283506699218,138.50344134277344,198.20283506699218,138.50344134277344,198.20283506699218,138.50344134277344C198.20283506699218,138.50344134277344,198.20283506699218,138.50344134277344,198.20283506699218,138.50344134277344Z"
                      fill="#C9DFFF" fill-opacity="1"/>
            </g>
            <g transform="matrix(0.9368219375610352,0.349806547164917,-0.349806547164917,0.9368219375610352,58.325038260797555,-64.32836868004233)">
                <path d="M207.49926946972656,130.84065837524415C208.11793946972656,130.03220837524415,209.07556146972655,129.55510937524414,210.09355146972655,129.54815437524414C210.09355146972655,129.54815437524414,245.83418146972656,129.30396564614415,245.83418146972656,129.30396564614415C246.97658146972657,129.29616099524415,247.70928146972656,130.51562837524415,247.16618146972655,131.52060837524414C247.16618146972655,131.52060837524414,247.16618146972655,131.52060837524414,247.16618146972655,131.52060837524414C246.80698146972657,132.18531837524415,246.11348146972657,132.60087837524415,245.35798146972655,132.60421837524413C245.35798146972655,132.60421837524413,208.45612146972655,132.76704837524414,208.45612146972655,132.76704837524414C207.46093946972655,132.77143837524414,206.89447146972657,131.63098837524413,207.49926946972656,130.84065837524415C207.49926946972656,130.84065837524415,207.49926946972656,130.84065837524415,207.49926946972656,130.84065837524415C207.49926946972656,130.84065837524415,207.49926946972656,130.84065837524415,207.49926946972656,130.84065837524415Z"
                      fill="#C9DFFF" fill-opacity="1"/>
            </g>
        </g>
        <g transform="matrix(-0.9368219375610352,0.349806547164917,0.349806547164917,0.9368219375610352,140.59567903875177,-25.39277610027966)">
            <path d="M88.59242588427735,88.7286308227539C89.10264588427735,88.0618948227539,89.89239888427734,87.66842982275391,90.73193888427734,87.66269382275391C90.73193888427734,87.66269382275391,120.20726888427734,87.4613115609539,120.20726888427734,87.4613115609539C121.14936888427735,87.4548749827539,121.75366888427735,88.4605658227539,121.30576888427734,89.2893908227539C121.30576888427734,89.2893908227539,121.30576888427734,89.2893908227539,121.30576888427734,89.2893908227539C121.00956888427734,89.8375708227539,120.43766888427734,90.1802908227539,119.81456888427735,90.18304082275391C119.81456888427735,90.18304082275391,89.38154588427734,90.3173308227539,89.38154588427734,90.3173308227539C88.56081588427735,90.3209508227539,88.09365088427734,89.3804108227539,88.59242588427735,88.7286308227539C88.59242588427735,88.7286308227539,88.59242588427735,88.7286308227539,88.59242588427735,88.7286308227539C88.59242588427735,88.7286308227539,88.59242588427735,88.7286308227539,88.59242588427735,88.7286308227539Z"
                  fill="#C9DFFF" fill-opacity="1"/>
        </g>
        <g>
            <path d="M249.95438986816407,26.998509091796876C249.95438986816407,30.365479091796875,247.22489986816407,33.09496909179688,243.85792986816406,33.09496909179688C240.49095986816405,33.09496909179688,237.76148986816406,30.365479091796875,237.76148986816406,26.998509091796876C237.76148986816406,23.631539091796874,240.49095986816405,20.902069091796875,243.85792986816406,20.902069091796875C247.22489986816407,20.902069091796875,249.95438986816407,23.631539091796874,249.95438986816407,26.998509091796876ZM247.34162986816406,26.998509091796876Q247.34162986816406,25.555529091796874,246.32127986816405,24.535179091796874Q245.30091986816407,23.514829091796877,243.85792986816406,23.514829091796877Q242.41493986816405,23.514829091796877,241.39459986816405,24.535179091796874Q240.37424986816407,25.555519091796874,240.37424986816407,26.998509091796876Q240.37424986816407,28.441499091796874,241.39459986816405,29.461859091796875Q242.41494986816406,30.482209091796875,243.85792986816406,30.482209091796875Q245.30091986816407,30.482209091796875,246.32126986816405,29.461849091796875Q247.34162986816406,28.441499091796874,247.34162986816406,26.998509091796876Z"
                  fill-rule="evenodd" fill="url(#master_svgd__00322)" fill-opacity="1"/>
        </g>
        <g>
            <path d="M80.125273046875,204.66626421875Q80.125273046875,204.81592421875,80.117873046875,204.96540421875Q80.110573046875,205.11487421875,80.095873046875,205.26381421875Q80.081273046875,205.41275421875,80.059273046875,205.56079421875Q80.037273046875,205.70883421875,80.008073046875,205.85561421875Q79.978873046875,206.00240421875,79.942573046875,206.14757421875Q79.906173046875,206.29275421875,79.862773046875,206.43596421875Q79.819273046875,206.57918421875,79.768873046875,206.72009421875Q79.718473046875,206.86100421875,79.661173046875,206.99926421875Q79.603873046875,207.13753421875,79.539973046875,207.27282421875Q79.475973046875,207.40811421875,79.405373046875,207.54010421875Q79.334873046875,207.67209421875,79.257873046875,207.80045421875Q79.180973046875,207.92882421875,79.097773046875,208.05326421875Q79.014673046875,208.17769421875,78.925473046875,208.29790421875Q78.836373046875,208.41811421875,78.741373046875,208.53380421875Q78.646473046875,208.64952421875,78.545973046875,208.76042421875Q78.445473046875,208.87122421875,78.33967304687499,208.97712421875Q78.233773046875,209.08292421875,78.122973046875,209.18342421875Q78.012073046875,209.28392421875,77.89635304687499,209.37882421875Q77.780663046875,209.47382421875,77.660453046875,209.56292421875Q77.540243046875,209.65212421875,77.415813046875,209.73522421875Q77.291373046875,209.81842421875,77.163003046875,209.89532421875Q77.034643046875,209.97232421875,76.902653046875,210.04282421875Q76.770663046875,210.11342421875,76.635373046875,210.17742421875Q76.500083046875,210.24132421875,76.361813046875,210.29862421875Q76.223553046875,210.35592421875,76.082643046875,210.40632421875Q75.941733046875,210.45672421875,75.798513046875,210.50022421875Q75.655303046875,210.54362421875,75.510123046875,210.58002421875Q75.364953046875,210.61632421875,75.218163046875,210.64552421875Q75.071383046875,210.67472421875,74.923343046875,210.69672421875Q74.775303046875,210.71872421875,74.626363046875,210.73332421875Q74.477423046875,210.74802421875,74.327953046875,210.75532421875Q74.178473046875,210.76272421875,74.028813046875,210.76272421875Q73.879153046875,210.76272421875,73.729673046875,210.75532421875Q73.580193046875,210.74802421875,73.431253046875,210.73332421875Q73.282313046875,210.71872421875,73.134283046875,210.69672421875Q72.986243046875,210.67472421875,72.839453046875,210.64552421875Q72.692673046875,210.61632421875,72.547493046875,210.58002421875Q72.402323046875,210.54362421875,72.259113046875,210.50022421875Q72.115893046875,210.45672421875,71.974983046875,210.40632421875Q71.834073046875,210.35592421875,71.695803046875,210.29862421875Q71.557533046875,210.24132421875,71.422243046875,210.17742421875Q71.286953046875,210.11342421875,71.154973046875,210.04282421875Q71.022983046875,209.97232421875,70.894613046875,209.89532421875Q70.766253046875,209.81842421875,70.641813046875,209.73522421875Q70.517373046875,209.65212421875,70.397163046875,209.56292421875Q70.276963046875,209.47382421875,70.161273046875,209.37882421875Q70.045583046875,209.28392421875,69.934693046875,209.18342421875Q69.823803046875,209.08292421875,69.717983046875,208.97712421875Q69.612153046875,208.87122421875,69.511653046875,208.76042421875Q69.411143046875,208.64952421875,69.316203046875,208.53380421875Q69.221253046875,208.41811421875,69.132103046875,208.29790421875Q69.042953046875,208.17769421875,68.959803046875,208.05326421875Q68.876662046875,207.92882421875,68.799722046875,207.80045421875Q68.722781046875,207.67209421875,68.652233046875,207.54010421875Q68.581684046875,207.40811421875,68.517696046875,207.27282421875Q68.453709046875,207.13753421875,68.396437046875,206.99926421875Q68.339165046875,206.86100421875,68.288746046875,206.72009421875Q68.238327046875,206.57918421875,68.194884046875,206.43596421875Q68.151440046875,206.29275421875,68.115076046875,206.14757421875Q68.078711046875,206.00240421875,68.049514046875,205.85561421875Q68.020317346875,205.70883421875,67.998357746875,205.56079421875Q67.976398246875,205.41275421875,67.961729046875,205.26381421875Q67.947059946875,205.11487421875,67.939716476875,204.96540421875Q67.932373046875,204.81592421875,67.932373046875,204.66626421875Q67.932373046875,204.51660421875,67.939716476875,204.36712421875Q67.947059946875,204.21764421875,67.961729046875,204.06870421874999Q67.976398246875,203.91976421875,67.998357746875,203.77173421875Q68.020317346875,203.62369421875,68.049514046875,203.47690421875Q68.078711046875,203.33012421875,68.115076046875,203.18494421875Q68.151440046875,203.03977421875,68.194884046875,202.89656421875Q68.238327046875,202.75334421875,68.288746046875,202.61243421875Q68.339165046875,202.47152421875,68.396437046875,202.33325421875Q68.453709046875,202.19498421875,68.517696046875,202.05969421875Q68.581684046875,201.92440421875,68.652233046875,201.79242421875Q68.722781046875,201.66043421875,68.799722046875,201.53206421875Q68.876662046875,201.40370421875,68.959803046875,201.27926421875Q69.042953046875,201.15482421875,69.132103046875,201.03461421875Q69.221253046875,200.91441421875,69.316203046875,200.79872421875Q69.411143046875,200.68303421875,69.511653046875,200.57214421875Q69.612153046875,200.46125421875,69.717983046875,200.35543421875Q69.823803046875,200.24960421875,69.934693046875,200.14910421875Q70.045583046875,200.04859421875,70.161273046875,199.95365421875Q70.276963046875,199.85870421875,70.397163046875,199.76955421875Q70.517373046875,199.68040421875,70.641813046875,199.59725421875Q70.766253046875,199.51411321875,70.894613046875,199.43717321875Q71.022983046875,199.36023221875,71.154973046875,199.28968421875Q71.286953046875,199.21913521875,71.422243046875,199.15514721875Q71.557533046875,199.09116021875,71.695803046875,199.03388821875Q71.834073046875,198.97661621875,71.974983046875,198.92619721875Q72.115893046875,198.87577821875,72.259113046875,198.83233521875Q72.402323046875,198.78889121875,72.547493046875,198.75252721875Q72.692673046875,198.71616221875,72.839453046875,198.68696521875Q72.986233046875,198.65776851875,73.134273046875,198.63580891875Q73.282313046875,198.61384941875,73.431253046875,198.59918021875Q73.580193046875,198.58451111875,73.729673046875,198.57716764875Q73.879153046875,198.56982421875,74.028813046875,198.56982421875Q74.178473046875,198.56982421875,74.327953046875,198.57716764875Q74.477423046875,198.58451111875,74.626363046875,198.59918021875Q74.775303046875,198.61384941875,74.923343046875,198.63580891875Q75.071383046875,198.65776851875,75.218163046875,198.68696521875Q75.364953046875,198.71616221875,75.510123046875,198.75252721875Q75.655303046875,198.78889121875,75.798513046875,198.83233521875Q75.941733046875,198.87577821875,76.082643046875,198.92619721875Q76.223553046875,198.97661621875,76.361813046875,199.03388821875Q76.500083046875,199.09116021875,76.635373046875,199.15514721875Q76.770663046875,199.21913521875,76.902653046875,199.28968421875Q77.034643046875,199.36023221875,77.163003046875,199.43717321875Q77.291373046875,199.51411321875,77.415813046875,199.59725421875Q77.540243046875,199.68040421875,77.660453046875,199.76955421875Q77.780663046875,199.85870421875,77.89635304687499,199.95365421875Q78.012073046875,200.04859421875,78.122973046875,200.14910421875Q78.233773046875,200.24960421875,78.33967304687499,200.35543421875Q78.445473046875,200.46125421875,78.545973046875,200.57214421875Q78.646473046875,200.68303421875,78.741373046875,200.79872421875Q78.836373046875,200.91441421875,78.925473046875,201.03461421875Q79.014673046875,201.15482421875,79.097773046875,201.27926421875Q79.180973046875,201.40370421875,79.257873046875,201.53206421875Q79.334873046875,201.66043421875,79.405373046875,201.79242421875Q79.475973046875,201.92440421875,79.539973046875,202.05969421875Q79.603873046875,202.19498421875,79.661173046875,202.33325421875Q79.718473046875,202.47152421875,79.768873046875,202.61243421875Q79.819273046875,202.75334421875,79.862773046875,202.89656421875Q79.906173046875,203.03977421875,79.942573046875,203.18494421875Q79.978873046875,203.33012421875,80.008073046875,203.47690421875Q80.037273046875,203.62368421875,80.059273046875,203.77172421875Q80.081273046875,203.91976421875,80.095873046875,204.06870421874999Q80.110573046875,204.21764421875,80.117873046875,204.36712421875Q80.125273046875,204.51660421875,80.125273046875,204.66626421875ZM77.512493046875,204.66626421875Q77.512493046875,204.49512421875,77.495713046875,204.32480421875Q77.478943046875,204.15448421875,77.445553046875,203.98663421875Q77.412163046875,203.81877421875,77.362483046875,203.65500421875Q77.312803046875,203.49123421875,77.247313046875,203.33311421875Q77.18181304687499,203.17500421875,77.101143046875,203.02406421875Q77.020463046875,202.87313421875,76.925383046875,202.73083421875Q76.830303046875,202.58853421875,76.721733046875,202.45624421875Q76.613163046875,202.32394421875,76.492143046875,202.20293421875Q76.371133046875,202.08191421875,76.238833046875,201.97334421875Q76.106543046875,201.86477421875,75.964243046875,201.76968421875Q75.821943046875,201.67460421875,75.671003046875,201.59393421875Q75.520073046875,201.51325421875,75.361953046875,201.44776421875Q75.203843046875,201.38227421875,75.040073046875,201.33259421875Q74.876293046875,201.28291421875,74.708443046875,201.24952421875Q74.540593046875,201.21613421875,74.370273046875,201.19935421875Q74.199953046875,201.18258421875,74.028813046875,201.18258421875Q73.857673046875,201.18258421875,73.687353046875,201.19935421875Q73.517033046875,201.21613421875,73.349183046875,201.24952421875Q73.181323046875,201.28291421875,73.017553046875,201.33259421875Q72.853783046875,201.38227421875,72.695663046875,201.44776421875Q72.537553046875,201.51325421875,72.386613046875,201.59393421875Q72.235683046875,201.67460421875,72.093383046875,201.76968421875Q71.951083046875,201.86477421875,71.818793046875,201.97334421875Q71.686493046875,202.08191421875,71.565483046875,202.20293421875Q71.444463046875,202.32394421875,71.335893046875,202.45624421875Q71.227323046875,202.58853421875,71.132233046875,202.73083421875Q71.037153046875,202.87313421875,70.956483046875,203.02406421875Q70.875803046875,203.17500421875,70.810313046875,203.33311421875Q70.744823046875,203.49123421875,70.695143046875,203.65500421875Q70.645463046875,203.81877421875,70.612073046875,203.98663421875Q70.578683046875,204.15448421875,70.561903046875,204.32480421875Q70.545133046875,204.49512421875,70.545133046875,204.66626421875Q70.545133046875,204.83740421875,70.561903046875,205.00772421875Q70.578683046875,205.17804421875,70.612073046875,205.34589421875Q70.645463046875,205.51374421875,70.695143046875,205.67752421875Q70.744823046875,205.84129421875,70.810313046875,205.99940421875Q70.875803046875,206.15752421875,70.956483046875,206.30845421875Q71.037153046875,206.45939421875,71.132233046875,206.60169421875Q71.227323046875,206.74399421875,71.335893046875,206.87628421875Q71.444463046875,207.00858421875,71.565483046875,207.12959421875001Q71.686493046875,207.25061421875,71.818793046875,207.35918421875Q71.951083046875,207.46775421875,72.093383046875,207.56283421875Q72.235683046875,207.65791421875,72.386613046875,207.73859421875Q72.537553046875,207.81926421875,72.695663046875,207.88476421875Q72.853783046875,207.95025421875,73.017553046875,207.99993421875Q73.181323046875,208.04961421875,73.349183046875,208.08300421875Q73.517033046875,208.11639421875,73.687353046875,208.13316421875Q73.857673046875,208.14994421875,74.028813046875,208.14994421875Q74.199953046875,208.14994421875,74.370273046875,208.13316421875Q74.540593046875,208.11639421875,74.708443046875,208.08300421875Q74.876293046875,208.04961421875,75.040073046875,207.99993421875Q75.203843046875,207.95025421875,75.361953046875,207.88476421875Q75.520073046875,207.81926421875,75.671003046875,207.73859421875Q75.821943046875,207.65791421875,75.964243046875,207.56283421875Q76.106543046875,207.46775421875,76.238833046875,207.35918421875Q76.371133046875,207.25061421875,76.492143046875,207.12959421875001Q76.613163046875,207.00858421875,76.721733046875,206.87628421875Q76.830303046875,206.74399421875,76.925383046875,206.60169421875Q77.020463046875,206.45939421875,77.101143046875,206.30845421875Q77.18181304687499,206.15752421875,77.247313046875,205.99940421875Q77.312803046875,205.84129421875,77.362483046875,205.67752421875Q77.412163046875,205.51374421875,77.445553046875,205.34589421875Q77.478943046875,205.17804421875,77.495713046875,205.00772421875Q77.512493046875,204.83740421875,77.512493046875,204.66626421875Z"
                  fill="url(#master_svge__00322)" fill-opacity="1"/>
        </g>
        <g>
            <path d="M227.310819921875,214.24634234375Q227.310819921875,214.39600234375,227.303419921875,214.54548234375Q227.296119921875,214.69495234375,227.281419921875,214.84389234375Q227.266819921875,214.99283234375,227.244819921875,215.14087234375Q227.222819921875,215.28891234375,227.193619921875,215.43569234375Q227.164419921875,215.58248234375,227.128119921875,215.72765234375Q227.091719921875,215.87283234375,227.048319921875,216.01604234375Q227.004819921875,216.15926234375,226.954419921875,216.30017234375Q226.904019921875,216.44108234375,226.846719921875,216.57934234375Q226.789419921875,216.71761234375,226.725519921875,216.85290234375Q226.661519921875,216.98819234375,226.590919921875,217.12018234375Q226.520419921875,217.25217234375,226.443419921875,217.38053234375Q226.366519921875,217.50890234375,226.283319921875,217.63334234375Q226.200219921875,217.75777234375,226.111019921875,217.87798234375Q226.021919921875,217.99819234375,225.926919921875,218.11388234375Q225.832019921875,218.22960234375,225.731519921875,218.34050234375Q225.631019921875,218.45130234375,225.525219921875,218.55720234375Q225.419319921875,218.66300234375,225.308519921875,218.76350234375Q225.197619921875,218.86400234375,225.081899921875,218.95890234375Q224.966209921875,219.05390234375,224.845999921875,219.14300234375Q224.725789921875,219.23220234375,224.601359921875,219.31530234375Q224.476919921875,219.39850234375,224.348549921875,219.47540234375Q224.220189921875,219.55240234375,224.088199921875,219.62290234375Q223.956209921875,219.69350234375,223.820919921875,219.75750234375Q223.685629921875,219.82140234375,223.547359921875,219.87870234375Q223.409099921875,219.93600234375,223.268189921875,219.98640234375Q223.127279921875,220.03680234375,222.984059921875,220.08030234375Q222.840849921875,220.12370234375,222.695669921875,220.16010234375Q222.550499921875,220.19640234375,222.403709921875,220.22560234375Q222.256929921875,220.25480234375,222.108889921875,220.27680234375Q221.960849921875,220.29880234375,221.811909921875,220.31340234375Q221.662969921875,220.32810234375,221.513499921875,220.33540234375Q221.364019921875,220.34280234375,221.214359921875,220.34280234375Q221.064699921875,220.34280234375,220.915219921875,220.33540234375Q220.765739921875,220.32810234375,220.61679992187499,220.31340234375Q220.467859921875,220.29880234375,220.319829921875,220.27680234375Q220.171789921875,220.25480234375,220.024999921875,220.22560234375Q219.878219921875,220.19640234375,219.733039921875,220.16010234375Q219.587869921875,220.12370234375,219.444659921875,220.08030234375Q219.301439921875,220.03680234375,219.160529921875,219.98640234375Q219.019619921875,219.93600234375,218.881349921875,219.87870234375Q218.743079921875,219.82140234375,218.607789921875,219.75750234375Q218.472499921875,219.69350234375,218.340519921875,219.62290234375Q218.208529921875,219.55240234375,218.080159921875,219.47540234375Q217.951799921875,219.39850234375,217.827359921875,219.31530234375Q217.702919921875,219.23220234375,217.582709921875,219.14300234375Q217.462509921875,219.05390234375,217.346819921875,218.95890234375Q217.231129921875,218.86400234375,217.120239921875,218.76350234375Q217.009349921875,218.66300234375,216.903529921875,218.55720234375Q216.797699921875,218.45130234375,216.697199921875,218.34050234375Q216.596689921875,218.22960234375,216.501749921875,218.11388234375Q216.406799921875,217.99819234375,216.317649921875,217.87798234375Q216.228499921875,217.75777234375,216.145349921875,217.63334234375Q216.062208921875,217.50890234375,215.985268921875,217.38053234375Q215.908327921875,217.25217234375,215.837779921875,217.12018234375Q215.767230921875,216.98819234375,215.703242921875,216.85290234375Q215.639255921875,216.71761234375,215.581983921875,216.57934234375Q215.524711921875,216.44108234375,215.474292921875,216.30017234375Q215.423873921875,216.15926234375,215.380430921875,216.01604234375Q215.336986921875,215.87283234375,215.300622921875,215.72765234375Q215.264257921875,215.58248234375,215.235060921875,215.43569234375Q215.205864221875,215.28891234375,215.183904621875,215.14087234375Q215.161945121875,214.99283234375,215.147275921875,214.84389234375Q215.132606821875,214.69495234375,215.125263351875,214.54548234375Q215.117919921875,214.39600234375,215.117919921875,214.24634234375Q215.117919921875,214.09668234375,215.125263351875,213.94720234375Q215.132606821875,213.79772234375,215.147275921875,213.64878234374999Q215.161945121875,213.49984234375,215.183904621875,213.35181234375Q215.205864221875,213.20377234375,215.235060921875,213.05698234375Q215.264257921875,212.91020234375,215.300622921875,212.76502234375Q215.336986921875,212.61985234375,215.380430921875,212.47664234375Q215.423873921875,212.33342234375,215.474292921875,212.19251234375Q215.524711921875,212.05160234375,215.581983921875,211.91333234375Q215.639255921875,211.77506234375,215.703242921875,211.63977234375Q215.767230921875,211.50448234375,215.837779921875,211.37250234375Q215.908327921875,211.24051234375,215.985268921875,211.11214234375Q216.062208921875,210.98378234375,216.145349921875,210.85934234375Q216.228499921875,210.73490234375,216.317649921875,210.61469234375Q216.406799921875,210.49449234375,216.501749921875,210.37880234375Q216.596689921875,210.26311234375,216.697199921875,210.15222234375Q216.797699921875,210.04133234375,216.903529921875,209.93551234375Q217.009349921875,209.82968234375,217.120239921875,209.72918234375Q217.231129921875,209.62867234375,217.346819921875,209.53373234375Q217.462509921875,209.43878234375,217.582709921875,209.34963234375Q217.702919921875,209.26048234375,217.827359921875,209.17733234375Q217.951799921875,209.09419134375,218.080159921875,209.01725134375Q218.208529921875,208.94031034375,218.340519921875,208.86976234375Q218.472499921875,208.79921334375,218.607789921875,208.73522534375Q218.743079921875,208.67123834375,218.881349921875,208.61396634375Q219.019619921875,208.55669434375,219.160529921875,208.50627534375Q219.301439921875,208.45585634375,219.444659921875,208.41241334375Q219.587869921875,208.36896934375,219.733039921875,208.33260534375Q219.878219921875,208.29624034375,220.024999921875,208.26704334375Q220.171779921875,208.23784664375,220.319819921875,208.21588704375Q220.467859921875,208.19392754375,220.61679992187499,208.17925834375Q220.765739921875,208.16458924375,220.915219921875,208.15724577375Q221.064699921875,208.14990234375,221.214359921875,208.14990234375Q221.364019921875,208.14990234375,221.513499921875,208.15724577375Q221.662969921875,208.16458924375,221.811909921875,208.17925834375Q221.960849921875,208.19392754375,222.108889921875,208.21588704375Q222.256929921875,208.23784664375,222.403709921875,208.26704334375Q222.550499921875,208.29624034375,222.695669921875,208.33260534375Q222.840849921875,208.36896934375,222.984059921875,208.41241334375Q223.127279921875,208.45585634375,223.268189921875,208.50627534375Q223.409099921875,208.55669434375,223.547359921875,208.61396634375Q223.685629921875,208.67123834375,223.820919921875,208.73522534375Q223.956209921875,208.79921334375,224.088199921875,208.86976234375Q224.220189921875,208.94031034375,224.348549921875,209.01725134375Q224.476919921875,209.09419134375,224.601359921875,209.17733234375Q224.725789921875,209.26048234375,224.845999921875,209.34963234375Q224.966209921875,209.43878234375,225.081899921875,209.53373234375Q225.197619921875,209.62867234375,225.308519921875,209.72918234375Q225.419319921875,209.82968234375,225.525219921875,209.93551234375Q225.631019921875,210.04133234375,225.731519921875,210.15222234375Q225.832019921875,210.26311234375,225.926919921875,210.37880234375Q226.021919921875,210.49449234375,226.111019921875,210.61469234375Q226.200219921875,210.73490234375,226.283319921875,210.85934234375Q226.366519921875,210.98378234375,226.443419921875,211.11214234375Q226.520419921875,211.24051234375,226.590919921875,211.37250234375Q226.661519921875,211.50448234375,226.725519921875,211.63977234375Q226.789419921875,211.77506234375,226.846719921875,211.91333234375Q226.904019921875,212.05160234375,226.954419921875,212.19251234375Q227.004819921875,212.33342234375,227.048319921875,212.47664234375Q227.091719921875,212.61985234375,227.128119921875,212.76502234375Q227.164419921875,212.91020234375,227.193619921875,213.05698234375Q227.222819921875,213.20376234375,227.244819921875,213.35180234375Q227.266819921875,213.49984234375,227.281419921875,213.64878234374999Q227.296119921875,213.79772234375,227.303419921875,213.94720234375Q227.310819921875,214.09668234375,227.310819921875,214.24634234375ZM224.698039921875,214.24634234375Q224.698039921875,214.07520234375,224.681259921875,213.90488234375Q224.664489921875,213.73456234375,224.631099921875,213.56671234375Q224.597709921875,213.39885234375,224.548029921875,213.23508234375Q224.498349921875,213.07131234375,224.432859921875,212.91319234375Q224.367359921875,212.75508234375,224.286689921875,212.60414234375Q224.206009921875,212.45321234375,224.110929921875,212.31091234375Q224.015849921875,212.16861234375,223.907279921875,212.03632234375Q223.798709921875,211.90402234375,223.67768992187501,211.78301234375Q223.556679921875,211.66199234375,223.424379921875,211.55342234375Q223.292089921875,211.44485234375,223.149789921875,211.34976234375Q223.007489921875,211.25468234375,222.856549921875,211.17401234375Q222.705619921875,211.09333234375,222.547499921875,211.02784234375Q222.389389921875,210.96235234375,222.225619921875,210.91267234375Q222.061839921875,210.86299234375,221.893989921875,210.82960234375Q221.726139921875,210.79621234375,221.555819921875,210.77943234375Q221.385499921875,210.76266234375,221.214359921875,210.76266234375Q221.043219921875,210.76266234375,220.872899921875,210.77943234375Q220.702579921875,210.79621234375,220.534729921875,210.82960234375Q220.366869921875,210.86299234375,220.203099921875,210.91267234375Q220.039329921875,210.96235234375,219.881209921875,211.02784234375Q219.723099921875,211.09333234375,219.572159921875,211.17401234375Q219.421229921875,211.25468234375,219.278929921875,211.34976234375Q219.136629921875,211.44485234375,219.004339921875,211.55342234375Q218.872039921875,211.66199234375,218.751029921875,211.78301234375Q218.630009921875,211.90402234375,218.521439921875,212.03632234375Q218.412869921875,212.16861234375,218.317779921875,212.31091234375Q218.222699921875,212.45321234375,218.142029921875,212.60414234375Q218.061349921875,212.75508234375,217.995859921875,212.91319234375Q217.930369921875,213.07131234375,217.880689921875,213.23508234375Q217.831009921875,213.39885234375,217.797619921875,213.56671234375Q217.764229921875,213.73456234375,217.747449921875,213.90488234375Q217.730679921875,214.07520234375,217.730679921875,214.24634234375Q217.730679921875,214.41748234375,217.747449921875,214.58780234375Q217.764229921875,214.75812234375,217.797619921875,214.92597234375Q217.831009921875,215.09382234375,217.880689921875,215.25760234375Q217.930369921875,215.42137234375,217.995859921875,215.57948234375Q218.061349921875,215.73760234375,218.142029921875,215.88853234375Q218.222699921875,216.03947234375,218.317779921875,216.18177234375Q218.412869921875,216.32407234375,218.521439921875,216.45636234375Q218.630009921875,216.58866234375,218.751029921875,216.70967234375001Q218.872039921875,216.83069234375,219.004339921875,216.93926234375Q219.136629921875,217.04783234375,219.278929921875,217.14291234375Q219.421229921875,217.23799234375,219.572159921875,217.31867234375Q219.723099921875,217.39934234375,219.881209921875,217.46484234375Q220.039329921875,217.53033234375,220.203099921875,217.58001234375Q220.366869921875,217.62969234375,220.534729921875,217.66308234375Q220.702579921875,217.69647234375,220.872899921875,217.71324234375Q221.043219921875,217.73002234375,221.214359921875,217.73002234375Q221.385499921875,217.73002234375,221.555819921875,217.71324234375Q221.726139921875,217.69647234375,221.893989921875,217.66308234375Q222.061839921875,217.62969234375,222.225619921875,217.58001234375Q222.389389921875,217.53033234375,222.547499921875,217.46484234375Q222.705619921875,217.39934234375,222.856549921875,217.31867234375Q223.007489921875,217.23799234375,223.149789921875,217.14291234375Q223.292089921875,217.04783234375,223.424379921875,216.93926234375Q223.556679921875,216.83069234375,223.67768992187501,216.70967234375001Q223.798709921875,216.58866234375,223.907279921875,216.45636234375Q224.015849921875,216.32407234375,224.110929921875,216.18177234375Q224.206009921875,216.03947234375,224.286689921875,215.88853234375Q224.367359921875,215.73760234375,224.432859921875,215.57948234375Q224.498349921875,215.42137234375,224.548029921875,215.25760234375Q224.597709921875,215.09382234375,224.631099921875,214.92597234375Q224.664489921875,214.75812234375,224.681259921875,214.58780234375Q224.698039921875,214.41748234375,224.698039921875,214.24634234375Z"
                  fill="url(#master_svgf__00322)" fill-opacity="1"/>
        </g>
        <g>
            <path d="M90.28596955566407,31.93194435546875C90.80086955566406,29.79897135546875,93.83476955566407,29.79897135546875,94.34966955566406,31.93194435546875C94.34966955566406,31.93194435546875,96.08256955566407,39.11073435546875,96.08256955566407,39.11073435546875C96.26656955566406,39.87303435546875,96.86176955566407,40.46811435546875,97.62396955566406,40.652114355468754C97.62396955566406,40.652114355468754,104.80276955566407,42.38501435546875,104.80276955566407,42.38501435546875C106.93576955566407,42.89991435546875,106.93576955566407,45.93381435546875,104.80276955566407,46.44871435546875C104.80276955566407,46.44871435546875,97.62396955566406,48.18161435546875,97.62396955566406,48.18161435546875C96.86176955566407,48.36561435546875,96.26656955566406,48.96081435546875,96.08256955566407,49.72301435546875C96.08256955566407,49.72301435546875,94.34966955566406,56.90181435546875,94.34966955566406,56.90181435546875C93.83476955566407,59.034814355468754,90.80086955566406,59.034814355468754,90.28596955566407,56.90181435546875C90.28596955566407,56.90181435546875,88.55306955566407,49.72301435546875,88.55306955566407,49.72301435546875C88.36906955566405,48.96081435546875,87.77398955566406,48.36561435546875,87.01168955566406,48.18161435546875C87.01168955566406,48.18161435546875,79.83289955566406,46.44871435546875,79.83289955566406,46.44871435546875C77.69992655566406,45.93381435546875,77.69992655566406,42.89991435546875,79.83289955566406,42.38501435546875C79.83289955566406,42.38501435546875,87.01168955566406,40.652114355468754,87.01168955566406,40.652114355468754C87.77398955566406,40.46811435546875,88.36906955566405,39.87303435546875,88.55306955566407,39.11073435546875C88.55306955566407,39.11073435546875,90.28596955566407,31.93194435546875,90.28596955566407,31.93194435546875C90.28596955566407,31.93194435546875,90.28596955566407,31.93194435546875,90.28596955566407,31.93194435546875Z"
                  fill="url(#master_svgg__00248)" fill-opacity="1"/>
        </g>
        <g>
            <path d="M264.796208203125,183.4171128125C265.311108203125,181.2841398125,268.345008203125,181.2841398125,268.859908203125,183.4171128125C268.859908203125,183.4171128125,270.592808203125,190.59590281250001,270.592808203125,190.59590281250001C270.77680820312503,191.3582028125,271.372008203125,191.9532828125,272.134208203125,192.1372828125C272.134208203125,192.1372828125,279.313008203125,193.8701828125,279.313008203125,193.8701828125C281.446008203125,194.3850828125,281.446008203125,197.4189828125,279.313008203125,197.9338828125C279.313008203125,197.9338828125,272.134208203125,199.6667828125,272.134208203125,199.6667828125C271.372008203125,199.8507828125,270.77680820312503,200.4459828125,270.592808203125,201.2081828125C270.592808203125,201.2081828125,268.859908203125,208.3869828125,268.859908203125,208.3869828125C268.345008203125,210.5199828125,265.311108203125,210.5199828125,264.796208203125,208.3869828125C264.796208203125,208.3869828125,263.063308203125,201.2081828125,263.063308203125,201.2081828125C262.879308203125,200.4459828125,262.284228203125,199.8507828125,261.521928203125,199.6667828125C261.521928203125,199.6667828125,254.343138203125,197.9338828125,254.343138203125,197.9338828125C252.210165203125,197.4189828125,252.210165203125,194.3850828125,254.343138203125,193.8701828125C254.343138203125,193.8701828125,261.521928203125,192.1372828125,261.521928203125,192.1372828125C262.284228203125,191.9532828125,262.879308203125,191.3582028125,263.063308203125,190.59590281250001C263.063308203125,190.59590281250001,264.796208203125,183.4171128125,264.796208203125,183.4171128125C264.796208203125,183.4171128125,264.796208203125,183.4171128125,264.796208203125,183.4171128125Z"
                  fill="url(#master_svgh__00248)" fill-opacity="1"/>
        </g>
        <g transform="matrix(0.6306521892547607,0.7760655879974365,-0.7760655879974365,0.6306521892547607,140.72193303957692,29.05811621915973)">
            <path d="M44.59421661437988,163.2409181171875C45.26465661437988,162.0796881171875,46.94073661437989,162.0796881171875,47.611196614379885,163.2409181171875C47.611196614379885,163.2409181171875,52.136626614379885,171.0791551171875,52.136626614379885,171.0791551171875C52.80702661437988,172.2404551171875,51.969026614379885,173.6919951171875,50.62812661437988,173.6919951171875C50.62812661437988,173.6919951171875,41.577256614379884,173.6919951171875,41.577256614379884,173.6919951171875C40.236399614379884,173.6919951171875,39.39834961437988,172.2404551171875,40.06878961437988,171.0791551171875C40.06878961437988,171.0791551171875,44.59421661437988,163.2409181171875,44.59421661437988,163.2409181171875C44.59421661437988,163.2409181171875,44.59421661437988,163.2409181171875,44.59421661437988,163.2409181171875Z"
                  fill="url(#master_svgi__00248)" fill-opacity="1"/>
        </g>
        <g transform="matrix(0.7156461477279663,-0.6984630227088928,0.6984630227088928,0.7156461477279663,17.078101587457695,208.19783281104446)">
            <path d="M269.00031211914063,83.99522872509766C269.6707521191406,82.83399872509766,271.34683211914063,82.83399872509766,272.0172921191406,83.99522872509766C272.0172921191406,83.99522872509766,276.54272211914065,91.83346572509765,276.54272211914065,91.83346572509765C277.2131221191406,92.99476572509765,276.3751221191406,94.44630572509766,275.0342221191406,94.44630572509766C275.0342221191406,94.44630572509766,265.98335211914065,94.44630572509766,265.98335211914065,94.44630572509766C264.6424951191406,94.44630572509766,263.8044451191406,92.99476572509765,264.47488511914065,91.83346572509765C264.47488511914065,91.83346572509765,269.00031211914063,83.99522872509766,269.00031211914063,83.99522872509766C269.00031211914063,83.99522872509766,269.00031211914063,83.99522872509766,269.00031211914063,83.99522872509766Z"
                  fill="url(#master_svgj__00248)" fill-opacity="1"/>
        </g>
    </g>
</svg>