<svg t="1726561486239" class="icon" viewBox="0 0 1024 1024" version="1.1" xmlns="http://www.w3.org/2000/svg" p-id="4813" width="200" height="200"><path d="M530.975 573.73c37.806-57.455 176.293-263.933 228.158-308.35-66.135 157.529-196.404 319.61-274.365 474.165 144.019 48.795 209.288-9.045 288.74-76.374l-78.73-15.107c99.987-32.764 93-20.63 128.017-69.031 27.78-38.384 50.835-90.192 59.284-144.299l-65.067 8.103c20.756-12.086 66.991-33.323 74.334-45.168C910.986 366 962.57 63.154 963.168 0.204 764.33 2.042 446.636 417.443 423.655 615.971c-23.123 199.608-250.319 501.222 107.319-42.243z m296.4 112.237c59.303 35.362 94.579 81.03 94.579 131.923 0 274.538-861.12 274.538-861.12 0 0-126.073 195.605-182.615 296.939-198.106-2.386 16.964-7.592 34.265-14.395 51.96-69.647 12.74-233.595 59.862-233.595 146.146 0 207.383 763.221 207.383 763.221 0 0-36.392-32.783-71.119-86.948-99.034 13.866-10.094 27.472-21.237 41.319-32.89z" fill="#ffffff" p-id="4814"></path></svg>