<svg xmlns="http://www.w3.org/2000/svg" xmlns:xlink="http://www.w3.org/1999/xlink" fill="none" version="1.1" width="177"
     height="156" viewBox="0 0 177 156">
    <g>
        <g>
            <path d="M90.5945,0L15.9887,0C7.16035,0,0,7.04297,0,15.7266L0,73.3828C0,82.0664,7.16035,89.1094,15.9887,89.1094L90.5945,89.1094C99.4228,89.1094,106.583,82.0664,106.583,73.3828L106.583,15.7266C106.583,7.04296,99.4229,-0.00000357628,90.5945,0ZM22.6486,15.7266C26.3301,15.7266,29.3086,18.6562,29.3086,22.2773C29.3086,25.8984,26.3301,28.8281,22.6486,28.8281C18.9672,28.8281,15.9887,25.8984,15.9887,22.2773C15.9887,18.6562,18.9672,15.7266,22.6486,15.7266ZM95.8725,81.2461L10.9729,81.2461C6.52891,81.2461,4.03887,76.1953,6.79102,72.7617L28.701,45.3984C30.8336,42.7383,34.9439,42.7383,37.0766,45.3984L46.1908,56.7891L63.8951,26.3203C65.9443,22.793,71.1031,22.793,73.1523,26.3203L100.507,73.4062C102.532,76.8984,99.9709,81.2461,95.8725,81.2461Z"
                  fill="#FFFFFF" fill-opacity="1" style="mix-blend-mode:passthrough"/>
        </g>
        <g>
            <g>
                <rect x="53" y="106" width="124" height="50" rx="12" fill="#FFFFFF" fill-opacity="1"/>
            </g>
            <g>
                <path d="M83.56,142.42000000000002C88.33,142.42000000000002,90.43,139,90.43,134.82999999999998L90.43,119.77L85.99,119.77L85.99,134.47C85.99,137.53,84.97,138.57999999999998,83.02,138.57999999999998C81.76,138.57999999999998,80.56,137.89,79.72,136.27L76.69,138.52C78.16,141.13,80.35,142.42000000000002,83.56,142.42000000000002ZM95.77,142L100.21000000000001,142L100.21000000000001,134.11L103.18,134.11C107.95,134.11,111.75999999999999,131.82999999999998,111.75999999999999,126.76C111.75999999999999,121.51,107.98,119.77,103.06,119.77L95.77,119.77L95.77,142ZM100.21000000000001,130.6L100.21000000000001,123.31L102.73,123.31C105.78999999999999,123.31,107.41,124.18,107.41,126.76C107.41,129.31,105.94,130.6,102.88,130.6L100.21000000000001,130.6ZM115.78,142L129.73,142L129.73,138.28L120.22,138.28L120.22,132.34L127.99000000000001,132.34L127.99000000000001,128.62L120.22,128.62L120.22,123.49L129.4,123.49L129.4,119.77L115.78,119.77L115.78,142ZM143.76999999999998,142.42000000000002C146.82999999999998,142.42000000000002,149.47,141.25,151,139.75L151,129.73L143.07999999999998,129.73L143.07999999999998,133.36L147.01,133.36L147.01,137.74C146.41,138.28,145.3,138.57999999999998,144.25,138.57999999999998C139.87,138.57999999999998,137.68,135.67000000000002,137.68,130.84C137.68,126.07,140.2,123.19,143.92000000000002,123.19C145.9,123.19,147.16,124,148.26999999999998,125.05L150.64,122.23C149.2,120.76,146.98000000000002,119.38,143.76999999999998,119.38C137.86,119.38,133.12,123.67,133.12,130.99C133.12,138.4,137.74,142.42000000000002,143.76999999999998,142.42000000000002Z"
                      fill="#1483D9" fill-opacity="1"/>
            </g>
        </g>
        <g transform="matrix(-0.01234373264014721,0.999923825263977,-0.999923825263977,-0.01234373264014721,208.13751059657443,-128.4975553693953)">
            <path d="M209.06659687500002,51.152712890625L203.503596875,45.589722890625L197.940596875,40.026692890625C196.951596875,39.037704890625,195.715296875,38.543212890625,194.479096875,38.543212890625L189.78139687499998,38.543212890625C187.061696875,38.543212890625,185.825496875,41.757412890625,187.803496875,43.488132890624996L192.006596875,47.938552890625L172.474216875,47.938552890625C169.754506875,47.938552890625,167.529296875,50.163812890624996,167.529296875,52.883512890625L167.529296875,77.608112890625C167.529296875,80.327812890625,169.754506875,82.553012890625,172.474216875,82.553012890625C175.193926875,82.553012890625,177.419136875,80.327812890625,177.419136875,77.608112890625L177.419136875,57.828412890625L192.501096875,57.828412890625L187.061696875,63.267812890624995C185.083796875,65.245812890625,186.567196875,68.212712890625,189.039696875,68.212712890625L193.737396875,68.212712890625C194.973596875,68.212712890625,196.209796875,67.718212890625,197.198796875,66.729212890625L208.819396875,55.108712890625C210.302796875,54.119712890624996,210.302796875,52.141712890625,209.06659687500002,51.152712890625Z"
                  fill="#FFFFFF" fill-opacity="1" style="mix-blend-mode:passthrough"/>
        </g>
    </g>
</svg>