<?xml version="1.0" encoding="UTF-8"?>
<svg width="84px" height="24px" viewBox="0 0 84 24" version="1.1" xmlns="http://www.w3.org/2000/svg" xmlns:xlink="http://www.w3.org/1999/xlink">
    <title>hot search_light</title>
    <g id="页面-1" stroke="none" stroke-width="1" fill="none" fill-rule="evenodd">
        <g id="10.1热搜榜" transform="translate(-917.000000, -504.000000)">
            <g id="热搜榜" transform="translate(448.000000, 488.000000)">
                <g id="头部" transform="translate(20.000000, 16.000000)">
                    <g id="hot-search_light" transform="translate(449.000000, 0.000000)">
                        <rect id="矩形" fill="#FFFFFF" opacity="0" x="0" y="0" width="84" height="24"></rect>
                        <g id="热搜榜" transform="translate(1.836000, 1.784000)" fill-rule="nonzero">
                            <path d="M4.312,20.244 L0,20.244 L1.456,15.904 L5.768,15.904 L4.312,20.244 Z M6.972,15.904 L11.284,15.904 L12.74,20.244 L8.428,20.244 L6.972,15.904 Z M17.304,15.904 L18.76,20.244 L14.448,20.244 L12.992,15.904 L17.304,15.904 Z M23.352,15.904 L24.808,20.244 L20.468,20.244 L19.04,15.904 L23.352,15.904 Z M11.648,6.356 L12.152,4.676 L9.268,4.676 L9.268,1.904 L12.992,1.904 L13.58,0 L17.304,0 L16.716,1.904 L23.016,1.904 L23.016,11.032 L24.64,14.784 L20.748,14.784 L19.124,11.032 L19.124,4.676 L15.848,4.676 L14.588,8.764 L18.088,13.804 L14.252,13.804 L13.412,12.628 L12.796,14.672 L9.1,14.672 L10.864,8.904 L9.072,6.356 L11.648,6.356 Z M0.112,1.904 L2.576,1.904 L2.576,0 L6.468,0 L6.468,1.904 L8.12,1.904 L8.12,4.676 L6.468,4.676 L6.468,6.664 L7.924,6.664 L6.468,8.344 L6.468,11.592 C6.468,12.0213333 6.384,12.4226667 6.216,12.796 C6.048,13.1693333 5.824,13.496 5.544,13.776 C5.264,14.056 4.93733333,14.2753333 4.564,14.434 C4.19066667,14.5926667 3.79866667,14.672 3.388,14.672 L0.532,14.672 L1.596,12.236 L1.68,12.236 C1.94133333,12.236 2.156,12.152 2.324,11.984 C2.492,11.816 2.576,11.6106667 2.576,11.368 L2.576,10.78 L0.084,10.78 L2.576,8.092 L2.576,4.676 L0.112,4.676 L0.112,1.904 Z" id="形状" fill="#3A3A3C"></path>
                            <path d="M46.66,10.136 L46.66,11.004 L52.036,11.004 L52.036,13.132 C51.4013333,13.804 50.7573333,14.4153333 50.104,14.966 C49.4506667,15.5166667 48.7786667,16.016 48.088,16.464 C48.7413333,16.6693333 49.4273333,16.8466667 50.146,16.996 C50.8646667,17.1453333 51.6346667,17.276 52.456,17.388 L52.456,20.244 C51.112,20.076 49.7913333,19.8426667 48.494,19.544 C47.1966667,19.2453333 45.904,18.8346667 44.616,18.312 C43.3466667,18.8346667 42.068,19.2453333 40.78,19.544 C39.492,19.8426667 38.1853333,20.076 36.86,20.244 L36.86,17.304 C37.644,17.192 38.3766667,17.0613333 39.058,16.912 C39.7393333,16.7626667 40.3786667,16.5946667 40.976,16.408 C40.416,16.0346667 39.8653333,15.6333333 39.324,15.204 C38.7826667,14.7746667 38.2506667,14.2986667 37.728,13.776 L42.572,13.776 C42.8706667,14 43.1693333,14.2053333 43.468,14.392 C43.7666667,14.5786667 44.0746667,14.756 44.392,14.924 C45.2693333,14.4386667 46.156,13.8413333 47.052,13.132 L37.252,13.132 L37.252,11.004 L42.964,11.004 L42.964,10.136 L37.168,10.136 L37.168,7.812 L37.168,3.248 L37.168,0.728 L42.152,0.28 L42.152,2.8 L40.808,2.912 L40.808,4.032 L41.984,4.032 L41.984,6.412 L40.808,6.412 L40.808,7.812 L42.964,7.812 L42.964,0.028 L46.66,0.028 L46.66,7.812 L47.92,7.812 C48.1626667,7.812 48.3726667,7.728 48.55,7.56 C48.7273333,7.392 48.816,7.18666667 48.816,6.944 L48.816,6.412 L47.696,6.412 L47.696,4.032 L48.816,4.032 L48.816,2.772 L47.5,2.772 L47.5,0.392 L48.816,0.392 L51.28,0.392 L52.456,0.392 L52.456,7.056 C52.456,7.48533333 52.372,7.88666667 52.204,8.26 C52.036,8.63333333 51.8073333,8.96 51.518,9.24 C51.2286667,9.52 50.8926667,9.73933333 50.51,9.898 C50.1273333,10.0566667 49.7213333,10.136 49.292,10.136 L46.66,10.136 Z M29.804,17.836 C29.9906667,17.836 30.1446667,17.7753333 30.266,17.654 C30.3873333,17.5326667 30.448,17.3786667 30.448,17.192 L30.448,15.316 L27.872,15.316 L30.448,10.136 L30.448,4.34 L27.9,4.34 L27.9,1.568 L30.448,1.568 L30.448,0.028 L34.34,0.028 L34.34,1.568 L36.58,1.568 L36.58,4.34 L34.34,4.34 L34.34,6.72 L36.356,6.72 L34.34,10.836 L34.34,17.78 C34.34,18.4706667 34.0973333,19.054 33.612,19.53 C33.1266667,20.006 32.5386667,20.244 31.848,20.244 L27.844,20.244 L28.936,17.836 L29.804,17.836 Z" id="形状" fill="#3A3A3C"></path>
                            <path d="M65.32,1.176 L70.612,1.176 L70.108,0.028 L74.672,0.028 L75.176,1.176 L79.88,1.176 L79.88,3.136 L65.32,3.136 L65.32,1.176 Z M76.436,8.456 L76.436,8.148 C76.436,7.84933333 76.2866667,7.7 75.988,7.7 L73.748,7.7 L69.128,7.7 L68.792,7.7 L68.792,9.688 L64.956,9.688 L64.956,5.74 L66.412,5.74 L66.104,3.864 L70.024,3.864 L70.304,5.74 L73.748,5.74 L74.476,5.74 L74.756,3.864 L78.676,3.864 L78.368,5.74 C79.0026667,5.81466667 79.4786667,6.006 79.796,6.314 C80.1133333,6.622 80.272,7.13066667 80.272,7.84 L80.272,9.688 L76.436,9.688 L76.436,8.456 Z M58.488,4.144 L55.576,4.144 L55.576,1.372 L58.488,1.372 L58.488,0.056 L61.568,0.056 L61.568,1.372 L64.48,1.372 L64.48,4.144 L61.568,4.144 L61.568,20.244 L58.488,20.244 L58.488,4.144 Z M67.364,12.46 L64.956,12.46 L64.956,10.556 L70.892,10.556 L70.192,8.456 L74.728,8.456 L75.456,10.556 L80.272,10.556 L80.272,12.46 L71.2,12.46 L70.808,13.916 L79.88,13.916 L79.88,14.588 L79.88,15.652 L79.88,17.192 C79.88,17.6213333 79.8006667,18.0226667 79.642,18.396 C79.4833333,18.7693333 79.264,19.0913333 78.984,19.362 C78.704,19.6326667 78.3773333,19.8473333 78.004,20.006 C77.6306667,20.1646667 77.2386667,20.244 76.828,20.244 L74.42,20.244 L73.664,18.172 L75.204,18.172 C75.4466667,18.172 75.652,18.088 75.82,17.92 C75.988,17.752 76.072,17.5373333 76.072,17.276 L76.072,15.652 L70.304,15.652 L69.016,20.216 L65.18,20.216 L67.364,12.46 Z M57.62,20.244 L55.576,20.244 L56.052,5.18 L58.124,5.18 L57.62,20.244 Z M62.436,20.244 L61.932,5.18 L64.004,5.18 L64.48,20.244 L62.436,20.244 Z" id="形状" fill="#FF3631"></path>
                        </g>
                    </g>
                </g>
            </g>
        </g>
    </g>
</svg>