<svg xmlns="http://www.w3.org/2000/svg" xmlns:xlink="http://www.w3.org/1999/xlink" fill="none" version="1.1" width="24"
     height="24" viewBox="0 0 24 24">
    <g>
        <g>
            <g>
                <path d="M12.00008644760132,11.036706447601318C11.468026447601318,11.036706447601318,11.036706447601318,11.468026447601318,11.036706447601318,12.00008644760132C11.036706447601318,12.532146447601319,11.468026447601318,12.963456447601319,12.00008644760132,12.963456447601319C12.532146447601319,12.963456447601319,12.963456447601319,12.532146447601319,12.963456447601319,12.00008644760132C12.963456447601319,11.468026447601318,12.532146447601319,11.036706447601318,12.00008644760132,11.036706447601318C12.00008644760132,11.036706447601318,12.00008644760132,11.036706447601318,12.00008644760132,11.036706447601318ZM9.536706447601318,12.00008644760132C9.536706447601318,10.639596447601319,10.639596447601319,9.536706447601318,12.00008644760132,9.536706447601318C13.360566447601318,9.536706447601318,14.463456447601319,10.639596447601319,14.463456447601319,12.00008644760132C14.463456447601319,13.360566447601318,13.360566447601318,14.463456447601319,12.00008644760132,14.463456447601319C10.639596447601319,14.463456447601319,9.536706447601318,13.360566447601318,9.536706447601318,12.00008644760132C9.536706447601318,12.00008644760132,9.536706447601318,12.00008644760132,9.536706447601318,12.00008644760132Z"
                      fill-rule="evenodd" fill="#ffffff" fill-opacity="1"/>
            </g>
            <g>
                <path d="M9.93142,4.90344C10.429400000000001,2.698849,13.5706,2.698857,14.0686,4.90344C14.0686,4.90344,14.1823,5.4066600000000005,14.1823,5.4066600000000005C14.2767,5.82485,14.7566,6.02363,15.1191,5.79472C15.1191,5.79472,15.5553,5.51926,15.5553,5.51926C17.4663,4.31251,19.6875,6.53368,18.4807,8.44469C18.4807,8.44469,18.2053,8.88089,18.2053,8.88089C17.976399999999998,9.24339,18.1752,9.723279999999999,18.5933,9.81775C18.5933,9.81775,19.096600000000002,9.93142,19.096600000000002,9.93142C21.3012,10.429400000000001,21.3011,13.5706,19.096600000000002,14.0686C19.096600000000002,14.0686,18.5933,14.1823,18.5933,14.1823C18.1752,14.2767,17.976399999999998,14.7566,18.2053,15.1191C18.2053,15.1191,18.4807,15.5553,18.4807,15.5553C19.6875,17.4663,17.4663,19.6875,15.5553,18.4807C15.5553,18.4807,15.1191,18.2053,15.1191,18.2053C14.7566,17.976399999999998,14.2767,18.1752,14.1823,18.5933C14.1823,18.5933,14.0686,19.096600000000002,14.0686,19.096600000000002C13.5706,21.3012,10.429400000000001,21.3011,9.93142,19.096600000000002C9.93142,19.096600000000002,9.81775,18.5933,9.81775,18.5933C9.723279999999999,18.1752,9.24339,17.976399999999998,8.88089,18.2053C8.88089,18.2053,8.44468,18.4807,8.44468,18.4807C6.53368,19.6875,4.31251,17.4663,5.519270000000001,15.5553C5.519270000000001,15.5553,5.79472,15.1191,5.79472,15.1191C6.02363,14.7566,5.82485,14.2767,5.4066600000000005,14.1823C5.4066600000000005,14.1823,4.90344,14.0686,4.90344,14.0686C2.698849,13.5706,2.698857,10.429400000000001,4.90344,9.93142C4.90344,9.93142,5.4066600000000005,9.81775,5.4066600000000005,9.81775C5.82485,9.723279999999999,6.02363,9.24339,5.79472,8.88089C5.79472,8.88089,5.51926,8.44468,5.51926,8.44468C4.31251,6.53368,6.53368,4.31252,8.44469,5.519270000000001C8.44469,5.519270000000001,8.88089,5.79472,8.88089,5.79472C9.24339,6.02363,9.723279999999999,5.82485,9.81775,5.4066600000000005C9.81775,5.4066600000000005,9.93142,4.90344,9.93142,4.90344C9.93142,4.90344,9.93142,4.90344,9.93142,4.90344ZM12.60545,5.2339400000000005C12.45969,4.58868,11.54031,4.58869,11.39455,5.2339400000000005C11.39455,5.2339400000000005,11.28088,5.737159999999999,11.28088,5.737159999999999C10.95814,7.1659500000000005,9.31852,7.84511,8.079989999999999,7.06301C8.079989999999999,7.06301,7.64379,6.78756,7.64379,6.78756C7.08446,6.43436,6.43436,7.08447,6.78756,7.64379C6.78756,7.64379,7.06301,8.079989999999999,7.06301,8.079989999999999C7.84511,9.31852,7.1659500000000005,10.95814,5.737159999999999,11.28088C5.737159999999999,11.28088,5.2339400000000005,11.39455,5.2339400000000005,11.39455C4.58868,11.54031,4.58869,12.4597,5.2339400000000005,12.60545C5.2339400000000005,12.60545,5.737159999999999,12.71912,5.737159999999999,12.71912C7.1659500000000005,13.04186,7.84511,14.6815,7.06301,15.92C7.06301,15.92,6.78756,16.3562,6.78756,16.3562C6.43436,16.9155,7.08446,17.5656,7.64379,17.212400000000002C7.64379,17.212400000000002,8.079989999999999,16.936999999999998,8.079989999999999,16.936999999999998C9.31852,16.154899999999998,10.95814,16.834,11.28088,18.2628C11.28088,18.2628,11.39455,18.7661,11.39455,18.7661C11.54031,19.4113,12.4597,19.4113,12.60545,18.7661C12.60545,18.7661,12.71912,18.2628,12.71912,18.2628C13.04186,16.834,14.6815,16.154899999999998,15.92,16.936999999999998C15.92,16.936999999999998,16.3562,17.212400000000002,16.3562,17.212400000000002C16.9155,17.5656,17.5656,16.9155,17.212400000000002,16.3562C17.212400000000002,16.3562,16.936999999999998,15.92,16.936999999999998,15.92C16.154899999999998,14.6815,16.834,13.04186,18.2628,12.71912C18.2628,12.71912,18.7661,12.60545,18.7661,12.60545C19.4113,12.45969,19.4113,11.54031,18.7661,11.39455C18.7661,11.39455,18.2628,11.28088,18.2628,11.28088C16.834,10.95814,16.154899999999998,9.31852,16.936999999999998,8.079989999999999C16.936999999999998,8.079989999999999,17.212400000000002,7.64379,17.212400000000002,7.64379C17.5656,7.08446,16.9155,6.43436,16.3562,6.78756C16.3562,6.78756,15.92,7.06301,15.92,7.06301C14.6815,7.84511,13.04186,7.1659500000000005,12.71912,5.737159999999999C12.71912,5.737159999999999,12.60545,5.2339400000000005,12.60545,5.2339400000000005C12.60545,5.2339400000000005,12.60545,5.2339400000000005,12.60545,5.2339400000000005Z"
                      fill-rule="evenodd" fill="#ffffff" fill-opacity="1"/>
            </g>
        </g>
    </g>
</svg>