<svg xmlns="http://www.w3.org/2000/svg" xmlns:xlink="http://www.w3.org/1999/xlink" fill="none" version="1.1" width="700" height="400" viewBox="0 0 700 400"><defs><clipPath id="master_svg0_0_19"><rect x="0" y="0" width="700" height="400" rx="40"/></clipPath><mask id="master_svg1_0_21" style="mask-type:alpha" maskUnits="userSpaceOnUse"><g><rect x="0" y="0" width="700" height="400" rx="40" fill="#FFFFFF" fill-opacity="1"/></g></mask></defs><g clip-path="url(#master_svg0_0_19)"><rect x="0" y="0" width="700" height="400" rx="40" fill="#420F6A" fill-opacity="1"/><g mask="url(#master_svg1_0_21)"><g><g><path d="M719.0000240057707,329.039C719.0000240057707,537.7,45.9790240057707,449.99,-32.65607599422931,411.818C-111.29157599422932,373.64599999999996,-164.9603759942293,240.10469999999998,-32.65607599422931,168.5158C99.64802400577068,96.9269,124.09902400577067,225.56279999999998,241.4010240057707,241.7862C358.7020240057707,258.01,719.0000240057707,227.7153,719.0000240057707,329.039C719.0000240057707,329.039,719.0000240057707,329.039,719.0000240057707,329.039Z" fill="#C624FF" fill-opacity="0.27000001072883606"/></g><g><path d="M718.7238435058593,348.99696234130863C718.7238435058593,535.5289623413087,45.84184350585937,457.1209623413086,-32.77695649414062,422.99696234130863C-111.39607649414063,388.8729623413086,-165.05385649414063,269.4939623413086,-32.77695649414062,205.4970623413086C99.49984350585939,141.5000623413086,123.94584350585939,256.4942623413086,241.22284350585937,270.9971623413086C358.49984350585936,285.5000623413086,718.7238435058593,258.4184623413086,718.7238435058593,348.99696234130863C718.7238435058593,348.99696234130863,718.7238435058593,348.99696234130863,718.7238435058593,348.99696234130863Z" fill="#C446FF" fill-opacity="0.4000000059604645"/></g><g><path d="M718.7238435058593,386.99696234130863C718.7238435058593,573.5289623413087,45.84184350585937,495.1209623413086,-32.77695649414062,460.99696234130863C-111.39607649414063,426.8729623413086,-165.05385649414063,307.4939623413086,-32.77695649414062,243.4970623413086C99.49984350585939,179.5000623413086,123.94584350585939,294.4942623413086,241.22284350585937,308.9971623413086C358.49984350585936,323.5000623413086,718.7238435058593,296.4184623413086,718.7238435058593,386.99696234130863C718.7238435058593,386.99696234130863,718.7238435058593,386.99696234130863,718.7238435058593,386.99696234130863Z" fill="#D781FF" fill-opacity="0.4000000059604645"/></g></g></g></g></svg>