<svg xmlns="http://www.w3.org/2000/svg" xmlns:xlink="http://www.w3.org/1999/xlink" fill="none" version="1.1" width="700" height="400.000244140625" viewBox="0 0 700 400.000244140625"><defs><clipPath id="master_svg0_28_419"><rect x="0" y="0" width="700" height="400" rx="40"/></clipPath><mask id="master_svg1_28_421" style="mask-type:alpha" maskUnits="userSpaceOnUse"><g><rect x="0" y="0" width="700" height="400" rx="40" fill="#FFFFFF" fill-opacity="1"/></g></mask></defs><g><g><g clip-path="url(#master_svg0_28_419)"><rect x="0" y="0" width="700" height="400" rx="40" fill="#004A5B" fill-opacity="1"/><g mask="url(#master_svg1_28_421)"><g><g><path d="M719.0000545233488,329.039C719.0000545233488,537.7,45.97905452334882,449.99,-32.65604547665119,411.818C-111.2915454766512,373.64599999999996,-164.96034547665118,240.10469999999998,-32.65604547665119,168.5158C99.6480545233488,96.9269,124.0990545233488,225.56279999999998,241.40105452334882,241.7862C358.7020545233488,258.01,719.0000545233488,227.7153,719.0000545233488,329.039C719.0000545233488,329.039,719.0000545233488,329.039,719.0000545233488,329.039Z" fill="#0AB7E0" fill-opacity="0.27000001072883606"/></g><g><path d="M718.7238740234375,348.99696234130863C718.7238740234375,535.5289623413087,45.8418740234375,457.1209623413086,-32.776925976562495,422.99696234130863C-111.3960459765625,388.8729623413086,-165.0538259765625,269.4939623413086,-32.776925976562495,205.4970623413086C99.49987402343751,141.5000623413086,123.94587402343751,256.4942623413086,241.2228740234375,270.9971623413086C358.4998740234375,285.5000623413086,718.7238740234375,258.4184623413086,718.7238740234375,348.99696234130863C718.7238740234375,348.99696234130863,718.7238740234375,348.99696234130863,718.7238740234375,348.99696234130863Z" fill="#0AB7E0" fill-opacity="0.4000000059604645"/></g><g><path d="M718.7238740234375,386.99696234130863C718.7238740234375,573.5289623413087,45.8418740234375,495.1209623413086,-32.776925976562495,460.99696234130863C-111.3960459765625,426.8729623413086,-165.0538259765625,307.4939623413086,-32.776925976562495,243.4970623413086C99.49987402343751,179.5000623413086,123.94587402343751,294.4942623413086,241.2228740234375,308.9971623413086C358.4998740234375,323.5000623413086,718.7238740234375,296.4184623413086,718.7238740234375,386.99696234130863C718.7238740234375,386.99696234130863,718.7238740234375,386.99696234130863,718.7238740234375,386.99696234130863Z" fill="#0AB7E0" fill-opacity="0.699999988079071"/></g></g></g></g></g></g></svg>