<svg xmlns="http://www.w3.org/2000/svg" xmlns:xlink="http://www.w3.org/1999/xlink" fill="none" version="1.1" width="700" height="400" viewBox="0 0 700 400"><defs><clipPath id="master_svg0_0_30"><rect x="0" y="0" width="700" height="400" rx="40"/></clipPath><mask id="master_svg1_0_32" style="mask-type:alpha" maskUnits="userSpaceOnUse"><g><rect x="0.1041259765625" y="0" width="700" height="400" rx="40" fill="#FFFFFF" fill-opacity="1"/></g></mask></defs><g clip-path="url(#master_svg0_0_30)" mask="url(#master_svg1_0_32)"><rect x="0" y="0" width="700" height="400" rx="40" fill="#00443E" fill-opacity="1"/><g><path d="M719.1041259765625,329.039C719.1041259765625,537.7,46.08312597656251,449.99,-32.551974023437495,411.818C-111.1874740234375,373.64599999999996,-164.8562740234375,240.10469999999998,-32.551974023437495,168.5158C99.7521259765625,96.9269,124.20312597656249,225.56279999999998,241.5051259765625,241.7862C358.8061259765625,258.01,719.1041259765625,227.7153,719.1041259765625,329.039C719.1041259765625,329.039,719.1041259765625,329.039,719.1041259765625,329.039Z" fill="#16BAAA" fill-opacity="0.27000001072883606"/></g><g><path d="M718.828,348.99693945312504C718.828,535.5289394531251,45.946,457.120939453125,-32.672799999999995,422.99693945312504C-111.29192,388.872939453125,-164.9497,269.493939453125,-32.672799999999995,205.497039453125C99.60400000000001,141.500039453125,124.05000000000001,256.49423945312503,241.327,270.997139453125C358.604,285.500039453125,718.828,258.418439453125,718.828,348.99693945312504C718.828,348.99693945312504,718.828,348.99693945312504,718.828,348.99693945312504Z" fill="#16BAAA" fill-opacity="0.4000000059604645"/></g><g><path d="M718.828,386.99693945312504C718.828,573.5289394531251,45.946,495.120939453125,-32.672799999999995,460.99693945312504C-111.29192,426.872939453125,-164.9497,307.493939453125,-32.672799999999995,243.497039453125C99.60400000000001,179.500039453125,124.05000000000001,294.49423945312503,241.327,308.997139453125C358.604,323.500039453125,718.828,296.418439453125,718.828,386.99693945312504C718.828,386.99693945312504,718.828,386.99693945312504,718.828,386.99693945312504Z" fill="#16BAAA" fill-opacity="0.699999988079071"/></g></g></svg>