<svg t="1721136060516" class="icon" viewBox="0 0 1024 1024" version="1.1" xmlns="http://www.w3.org/2000/svg" p-id="3470" width="32" height="32"><path d="M800 128H640a128 128 0 1 0-256 0H224A96 96 0 0 0 128 224v704A96 96 0 0 0 224 1024h576A96 96 0 0 0 896 928V224A96 96 0 0 0 800 128zM320 848.0256a47.9744 47.9744 0 1 1 47.9744-47.9744 47.872 47.872 0 0 1-47.9744 47.9744z m0-192a48.0256 48.0256 0 1 1 47.9744-47.9744 47.872 47.872 0 0 1-47.9744 47.9744z m0-192a47.9744 47.9744 0 1 1 47.9744-47.9744 47.872 47.872 0 0 1-47.9744 47.9744z m192-384a48.0256 48.0256 0 1 1-47.9744 47.9744 47.872 47.872 0 0 1 47.9744-47.9744z m256 736a16.0256 16.0256 0 0 1-15.9744 15.9744H464.0256a16.0256 16.0256 0 0 1-15.9744-15.9744v-32A16.0256 16.0256 0 0 1 464.0256 768h288a16.0256 16.0256 0 0 1 16.0256 16.0256z m0-192a16.0256 16.0256 0 0 1-15.9744 16.0256H464.0256a16.0256 16.0256 0 0 1-15.9744-15.9744v-32a16.0256 16.0256 0 0 1 16.0256-15.9744h288a16.0256 16.0256 0 0 1 16.0256 16.0256z m0-192a16.0256 16.0256 0 0 1-15.9744 16.0256H464.0256a16.0256 16.0256 0 0 1-15.9744-15.9744v-32.0512a16.0256 16.0256 0 0 1 15.9744-16.0256h288a16.0256 16.0256 0 0 1 16.0256 16.0256z" fill="#e6a23c" p-id="3471"></path></svg>