<svg t="1722520691919" class="icon" viewBox="0 0 1024 1024" version="1.1" xmlns="http://www.w3.org/2000/svg" p-id="2636" width="32" height="32"><path d="M182.039273 4.002909H842.007273a177.943273 177.943273 0 0 1 178.036363 178.036364V842.007273a177.943273 177.943273 0 0 1-178.036363 178.036363H181.992727A177.943273 177.943273 0 0 1 4.002909 842.007273V181.992727A177.943273 177.943273 0 0 1 181.992727 4.002909z" fill="#FFFFFF" p-id="2637"></path><path d="M841.960727 1024H181.992727A182.225455 182.225455 0 0 1 0 841.960727V181.992727A181.853091 181.853091 0 0 1 182.039273 0H842.007273A181.853091 181.853091 0 0 1 1024 182.039273V842.007273A182.225455 182.225455 0 0 1 841.960727 1024zM181.992727 7.959273a174.08 174.08 0 0 0-174.08 174.08V842.007273a174.685091 174.685091 0 0 0 174.638546 174.638545h659.921454c96.162909 0 174.08-77.917091 174.638546-174.638545V181.992727c0-96.116364-77.917091-174.08-174.638546-174.638545L182.039273 7.912727z" fill="#DBDCDC" p-id="2638"></path><path d="M208.802909 291.84L274.152727 194.001455l27.880728 35.281454 39.237818-64.325818 61.44 114.967273V156.392727h-261.12v172.962909h261.12V291.84H208.802909zM171.752727 191.720727c0-9.122909 5.678545-17.082182 13.637818-21.038545a21.085091 21.085091 0 0 1 24.48291 5.12 22.807273 22.807273 0 0 1 5.12 24.436363 22.341818 22.341818 0 0 1-21.038546 13.684364 21.876364 21.876364 0 0 1-22.202182-22.202182z m516.002909-35.281454h195.118546v28.439272h-195.118546v-28.392727z m0 54.597818h195.118546v28.485818h-195.118546v-28.485818z m0-108.637091h195.118546v28.439273h-195.118546V102.4zM434.082909 156.439273h221.277091v28.439272H434.082909v-28.392727z m0 54.597818h221.277091v28.485818H434.082909v-28.485818z m0-108.637091h221.277091v28.439273H434.082909V102.4zM141.032727 838.562909H655.36v28.392727H141.079273v-28.392727z m0 54.597818H655.36v28.439273H141.079273v-28.439273z m0-108.683636H655.36v28.485818H141.079273v-28.485818z m546.722909 54.085818h195.118546v28.392727h-195.118546v-28.392727z m0 54.597818h195.118546v28.439273h-195.118546v-28.439273z m0-108.683636h195.118546v28.485818h-195.118546v-28.485818zM158.114909 102.4h4.608c1.117091 0 2.792727 0.558545 3.956364 1.722182 1.163636 0.558545 1.722182 1.675636 2.280727 2.792727 0.558545 1.163636 1.117091 2.885818 0.558545 4.002909a10.705455 10.705455 0 0 1-1.11709 4.561455 10.24 10.24 0 0 1-4.00291 2.839272 8.285091 8.285091 0 0 1 5.12 3.444364c2.327273 3.397818 2.839273 7.354182 1.163637 10.798546a15.080727 15.080727 0 0 1-2.839273 3.397818 6.144 6.144 0 0 1-4.002909 1.722182c-1.722182 0.558545-2.839273 0.558545-4.561455 0.558545h-18.152727V102.4h17.035637z m-1.117091 14.242909a8.098909 8.098909 0 0 0 3.444364-1.163636 2.746182 2.746182 0 0 0 1.117091-3.397818v-2.327273c-0.558545-0.512-0.558545-1.117091-1.117091-1.117091-0.605091-0.558545-1.163636-0.558545-1.722182-0.558546h-9.681455v8.564364h7.959273z m0 15.918546h2.327273c0.512 0 1.117091-0.558545 1.675636-0.558546 0.558545-0.605091 1.117091-1.163636 1.117091-1.722182 0.605091-0.558545 0.605091-1.722182 0.605091-2.280727a5.166545 5.166545 0 0 0-1.722182-4.002909c-1.163636-1.117091-2.839273-1.117091-4.002909-1.117091H148.48v10.24l8.517818-0.558545z m27.322182 13.032727c-1.722182 1.163636-4.002909 1.768727-5.678545 1.163636H174.08V140.567273h4.002909a4.328727 4.328727 0 0 0 2.234182-1.163637c0.605091-0.558545 0.605091-1.117091 0.605091-2.234181v-1.722182l-9.122909-24.482909h7.959272l5.678546 18.199272 5.12-17.594181h7.447273l-10.845091 29.556363c-0.558545 1.722182-1.117091 3.397818-2.839273 4.561455z m36.398545-34.071273l-3.397818 4.514909h-5.12v13.684364c0 0.558545 0 1.675636 0.558546 2.280727 0.558545 0.558545 1.722182 1.117091 2.280727 0.558546h2.280727v5.678545H209.92c-1.117091 0-1.722182-0.558545-2.839273-1.117091-0.558545-0.605091-1.722182-1.163636-1.722182-1.722182C204.8 134.237091 204.8 133.12 204.8 132.002909v-15.965091h-4.561455v-4.514909H204.8V107.52l7.400727-3.397818v7.400727h8.517818z m46.08-9.122909a20.48 20.48 0 0 1 6.283637 1.117091 10.24 10.24 0 0 1 5.12 3.444364 11.822545 11.822545 0 0 1 3.397818 5.678545c1.117091 2.280727 1.117091 5.12 1.117091 7.959273 0 2.280727-0.558545 5.12-1.117091 7.400727s-1.722182 4.002909-2.839273 5.678545a12.381091 12.381091 0 0 1-5.12 4.00291c-2.280727 1.117091-4.561455 1.675636-7.400727 1.11709h-15.918545V102.4h16.47709z m0 29.602909h3.444364a12.427636 12.427636 0 0 0 2.792727-1.722182 11.915636 11.915636 0 0 0 2.327273-3.397818c0.558545-1.722182 0.558545-3.444364 0.558546-5.12 0-1.722182 0-3.444364-0.558546-5.12 0-1.163636-1.163636-2.885818-1.722182-4.002909-0.558545-1.117091-1.722182-1.722182-3.397818-2.280727-1.722182-0.558545-3.444364-1.117091-5.12-0.558546h-5.725091v22.760728l7.447273-0.558546z m97.838546-4.002909c-0.558545 2.839273-2.792727 4.561455-5.678546 5.12-5.678545 0-6.237091-7.400727-6.23709-7.400727v-1.722182s0-7.354182 6.23709-7.354182c2.839273 0 5.12 2.234182 5.678546 5.12h6.842182a12.846545 12.846545 0 0 0-12.520728-10.24 13.032727 13.032727 0 0 0-13.032727 11.915636v4.00291a13.032727 13.032727 0 0 0 13.032727 11.915636 12.288 12.288 0 0 0 12.567273-10.24l-6.888727-1.117091z m32.442182-1.722182h3.397818V122.88a12.753455 12.753455 0 0 0-13.032727-12.520727 13.032727 13.032727 0 0 0-13.125819 11.962182v3.956363a13.032727 13.032727 0 0 0 13.079273 11.962182 13.032727 13.032727 0 0 0 12.567273-8.517818h-7.447273c-1.117091 1.675636-2.792727 3.397818-5.12 3.397818-4.514909 0-5.678545-4.561455-5.678545-6.842182h15.36z m-9.681455-9.634909c4.002909 0 5.12 3.397818 5.725091 5.678546h-10.845091c0.605091-2.839273 1.722182-5.678545 5.12-5.678546z m-143.918545 9.634909h3.397818V122.88a12.753455 12.753455 0 0 0-13.032727-12.520727 12.148364 12.148364 0 0 0-12.567273 11.962182v3.956363a12.893091 12.893091 0 0 0 12.567273 11.962182c5.678545 0 10.798545-3.397818 11.915636-8.517818h-7.400727c-0.558545 2.280727-2.839273 3.397818-5.12 3.397818-4.561455 0-5.678545-4.561455-5.678546-6.842182h15.918546z m-9.681455-9.634909c2.839273 0 5.12 2.792727 5.725091 5.678546h-10.845091c0.605091-2.839273 2.327273-5.678545 5.12-5.678546z m79.127273-4.561454H304.872727a16.849455 16.849455 0 0 0-5.678545-1.163637 12.148364 12.148364 0 0 0-12.520727 11.962182v4.002909a12.520727 12.520727 0 0 0 12.520727 11.915636 15.127273 15.127273 0 0 0 6.842182-1.675636l6.237091 1.675636v-26.71709h0.558545z m-13.125818 21.038545c-5.678545 0-5.678545-7.400727-5.678546-7.400727v-1.722182s0-7.354182 5.678546-7.354182 5.678545 7.354182 5.678545 7.354182v1.722182c0.605091 0 0 7.400727-5.678545 7.400727z m42.123636-14.242909c-0.605091-4.514909-4.002909-7.912727-8.564364-7.912727a11.589818 11.589818 0 0 0-8.517818 3.397818l-7.400727-2.327273v26.763636h7.400727v-15.36c0-7.400727 6.237091-6.795636 6.237091-6.795636 4.561455 0 4.002909 6.237091 4.002909 6.237091v15.918545h7.400728V122.88c-0.558545-2.280727-0.558545-4.002909-0.558546-4.002909z" fill="#DBDCDC" p-id="2639"></path><path d="M0 220.16v621.800727c0 5.12 0 10.798545 0.558545 15.918546L1024 799.837091V182.039273c0-5.12 0-10.798545-0.558545-15.918546L0 220.16z" fill="#E62318" p-id="2640"></path><path d="M915.362909 578.001455v-48.407273l-153.6 8.564363v-24.436363l-74.007273 3.956363v24.48291l-153.6 8.517818v48.360727l153.6-8.517818v106.914909l74.007273-3.956364V586.472727z" fill="#FFFFFF" p-id="2641"></path><path d="M534.202182 488.680727v48.360728l52.875636-2.839273 135.959273-67.165091 138.845091 51.2 53.480727-2.792727v-48.407273l-35.281454 2.327273-91.601455-33.605819 121.762909-59.717818V291.281455l-74.007273 3.956363-170.635636 9.681455-59.159273-27.880728-75.682909 119.482182 62.603637 22.760728 40.401454-63.767273 201.914182-11.357091v11.962182l-112.64 55.202909-87.598546-32.442182-29.556363 44.962909 51.758545 19.316364-88.762182 43.799272-34.676363 1.722182z m341.317818 105.797818l-73.960727 4.00291 54.039272 89.832727 74.007273-3.956364-54.085818-89.832727z m-340.759273 112.64l73.960728-3.956363 49.477818-95.604364-73.960728 4.002909-49.477818 95.557818z m-175.802182-109.195636l58.647273 114.874182 81.92-3.956364-58.647273-114.920727-81.92 4.002909z m-76.8-83.642182L222.487273 438.597818l-81.361455 4.561455 59.717818 75.077818 81.361455-3.956364z m0-94.440727L222.487273 344.762182l-81.361455 4.514909L200.797091 424.96l81.361454-5.12z" fill="#FFFFFF" p-id="2642"></path><path d="M352.721455 584.797091l136.517818-7.912727v-48.407273l-90.996364 5.12V320.279273l-74.007273 4.002909v213.317818l-216.157091 12.520727v48.360728l150.202182-8.564364-66.56 87.645091-81.361454 5.12v48.360727l137.122909-8.005818z" fill="#FFFFFF" p-id="2643"></path></svg>